999
dxflib 3.12.2.0
  0
SECTION
  2
HEADER
  9
$ACADVER
  1
AC1015
  9
$HANDSEED
  5
FFFF
  9
$DIMADEC
 70
0
  9
$DIMASZ
 40
2.5
  9
$DIMAUNIT
 70
0
  9
$DIMAZIN
 70
2
  9
$DIMDEC
 70
4
  9
$DIMEXE
 40
1.25
  9
$DIMEXO
 40
0.625
  9
$DIMGAP
 40
0.625
  9
$DIMLUNIT
 70
2
  9
$DIMSCALE
 40
1.0
  9
$DIMTSZ
 40
0.0
  9
$DIMTXT
 40
2.5
  9
$DIMZIN
 70
8
  9
$DWGCODEPAGE
  3
ANSI_1252
  9
$INSUNITS
 70
4
  9
$LTSCALE
 40
1.0
  9
$MAXACTVP
 70
32
  9
$MEASUREMENT
 70
1
  9
$PDMODE
 70
0
  9
$PDSIZE
 40
0
  0
ENDSEC
  0
SECTION
  2
TABLES
  0
TABLE
  2
VPORT
  5
8
100
AcDbSymbolTable
 70
1
  0
VPORT
  5
30
100
AcDbSymbolTableRecord
100
AcDbViewportTableRecord
  2
*Active
 70
0
 10
0.0
 20
0.0
 11
1.0
 21
1.0
 12
286.3055555555554861
 22
148.5
 13
0.0
 23
0.0
 14
10.0
 24
10.0
 15
10.0
 25
10.0
 16
0.0
 26
0.0
 36
1.0
 17
0.0
 27
0.0
 37
0.0
 40
297.0
 41
1.92798353909465
 42
50.0
 43
0.0
 44
0.0
 50
0.0
 51
0.0
 71
0
 72
100
 73
1
 74
3
 75
1
 76
1
 77
0
 78
0
281
0
 65
1
110
0.0
120
0.0
130
0.0
111
1.0
121
0.0
131
0.0
112
0.0
122
1.0
132
0.0
 79
0
146
0.0
  0
ENDTAB
  0
TABLE
  2
LTYPE
  5
5
100
AcDbSymbolTable
 70
3
  0
LTYPE
  5
16
100
AcDbSymbolTableRecord
100
AcDbLinetypeTableRecord
  2
Continuous
 70
0
  3
Solid line
 72
65
 73
0
 40
0.0
  0
LTYPE
  5
15
100
AcDbSymbolTableRecord
100
AcDbLinetypeTableRecord
  2
BYLAYER
 70
0
  3

 72
65
 73
0
 40
0.0
  0
LTYPE
  5
14
100
AcDbSymbolTableRecord
100
AcDbLinetypeTableRecord
  2
BYBLOCK
 70
0
  3

 72
65
 73
0
 40
0.0
  0
ENDTAB
  0
TABLE
  2
LAYER
  5
2
100
AcDbSymbolTable
 70
2
  0
LAYER
  5
10
100
AcDbSymbolTableRecord
100
AcDbLayerTableRecord
  2
0
 70
0
 62
7
420
16777215
  6
Continuous
370
25
390
F
  0
LAYER
  5
31
100
AcDbSymbolTableRecord
100
AcDbLayerTableRecord
  2
MAGENTA
 70
0
 62
7
420
16777215
  6
Continuous
370
5
390
F
  0
ENDTAB
  0
TABLE
  2
STYLE
  5
3
100
AcDbSymbolTable
 70
1
  0
STYLE
  5
32
100
AcDbSymbolTableRecord
100
AcDbTextStyleTableRecord
  2
Standard
 70
0
 40
0.0
 41
1.0
 50
0.0
 71
0
 42
2.5
  3

  4

1001
ACAD
1000
txt
1071
0
  0
ENDTAB
  0
TABLE
  2
VIEW
  5
6
100
AcDbSymbolTable
 70
0
  0
ENDTAB
  0
TABLE
  2
UCS
  5
7
100
AcDbSymbolTable
 70
0
  0
ENDTAB
  0
TABLE
  2
APPID
  5
9
100
AcDbSymbolTable
 70
1
  0
APPID
  5
12
100
AcDbSymbolTableRecord
100
AcDbRegAppTableRecord
  2
ACAD
 70
0
  0
APPID
  5
33
100
AcDbSymbolTableRecord
100
AcDbRegAppTableRecord
  2
QCAD
 70
0
  0
ENDTAB
  0
TABLE
  2
DIMSTYLE
  5
A
100
AcDbSymbolTable
 70
1
100
AcDbDimStyleTable
 71
0
  0
DIMSTYLE
105
27
100
AcDbSymbolTableRecord
100
AcDbDimStyleTableRecord
  2
Standard
 41
2.5
 42
0.625
 43
3.75
 44
1.25
 70
0
 73
0
 74
0
 77
1
 78
8
140
2.5
141
2.5
143
0.03937007874016
147
0.625
171
3
172
1
271
2
272
2
274
3
278
44
283
0
284
8
340
32
  0
ENDTAB
  0
TABLE
  2
BLOCK_RECORD
  5
1
100
AcDbSymbolTable
 70
1
  0
BLOCK_RECORD
  5
1F
100
AcDbSymbolTableRecord
100
AcDbBlockTableRecord
  2
*Model_Space
340
22
  0
BLOCK_RECORD
  5
1B
100
AcDbSymbolTableRecord
100
AcDbBlockTableRecord
  2
*Paper_Space
340
1E
  0
BLOCK_RECORD
  5
23
100
AcDbSymbolTableRecord
100
AcDbBlockTableRecord
  2
*Paper_Space0
340
26
  0
BLOCK_RECORD
  5
34
100
AcDbSymbolTableRecord
100
AcDbBlockTableRecord
  2
plate
340
0
  0
ENDTAB
  0
ENDSEC
  0
SECTION
  2
BLOCKS
  0
BLOCK
  5
20
100
AcDbEntity
  8
0
100
AcDbBlockBegin
  2
*Model_Space
 70
0
 10
0.0
 20
0.0
 30
0.0
  3
*Model_Space
  1

  0
ENDBLK
  5
21
100
AcDbEntity
  8
0
100
AcDbBlockEnd
  0
BLOCK
  5
1C
100
AcDbEntity
 67
1
  8
0
100
AcDbBlockBegin
  2
*Paper_Space
 70
0
 10
0.0
 20
0.0
 30
0.0
  3
*Paper_Space
  1

  0
ENDBLK
  5
1D
100
AcDbEntity
 67
1
  8
0
100
AcDbBlockEnd
  0
BLOCK
  5
24
100
AcDbEntity
  8
0
100
AcDbBlockBegin
  2
*Paper_Space0
 70
0
 10
0.0
 20
0.0
 30
0.0
  3
*Paper_Space0
  1

  0
ENDBLK
  5
25
100
AcDbEntity
  8
0
100
AcDbBlockEnd
  0
BLOCK
  5
35
100
AcDbEntity
  8
0
100
AcDbBlockBegin
  2
plate
 70
0
 10
0.0
 20
0.0
 30
0.0
  3
plate
  1

  0
LWPOLYLINE
  5
36
100
AcDbEntity
  8
0
 62
1
420
16711680
370
-1
 48
1.0
  6
BYLAYER
100
AcDbPolyline
 90
4
 70
1
 10
139.7900400000000047
 20
172.5931649999999991
 30
0.0
 10
136.4875606884559431
 20
172.5931649999999991
 30
0.0
 10
136.4985406884559609
 20
186.5634560000000022
 30
0.0
 10
139.7996496884559576
 20
186.5605460000000164
 30
0.0
  0
LWPOLYLINE
  5
37
100
AcDbEntity
  8
0
 62
1
420
16711680
370
-1
 48
1.0
  6
BYLAYER
100
AcDbPolyline
 90
4
 70
1
 10
163.4862899999999968
 20
172.5931649999999991
 30
0.0
 10
160.1841159999999888
 20
172.5931649999999991
 30
0.0
 10
160.1950960000000066
 20
186.5634560000000022
 30
0.0
 10
163.4962040000000059
 20
186.560545999999988
 30
0.0
  0
LWPOLYLINE
  5
38
100
AcDbEntity
  8
MAGENTA
 62
1
420
16711680
370
-1
 48
1.0
  6
BYLAYER
100
AcDbPolyline
 90
4
 70
1
 10
189.5484309999999937
 20
235.6557459999999935
 30
0.0
 10
189.5494899999999916
 20
238.9579200000000014
 30
0.0
 10
203.5197750000000099
 20
238.9420189999999877
 30
0.0
 10
203.5157010000000071
 20
235.640909999999991
 30
0.0
  0
LWPOLYLINE
  5
39
100
AcDbEntity
  8
MAGENTA
 62
1
420
16711680
370
-1
 48
1.0
  6
BYLAYER
100
AcDbPolyline
 90
4
 70
1
 10
189.2228670000000079
 20
211.9595510000000047
 30
0.0
 10
189.2239250000000084
 20
215.2617260000000101
 30
0.0
 10
203.1942109999999957
 20
215.2458239999999989
 30
0.0
 10
203.1901359999999954
 20
211.9447189999999921
 30
0.0
  0
LWPOLYLINE
  5
3A
100
AcDbEntity
  8
MAGENTA
 62
1
420
16711680
370
-1
 48
1.0
  6
BYLAYER
100
AcDbPolyline
 90
4
 70
1
 10
189.2692380000000014
 20
199.0898290000000088
 30
0.0
 10
189.2697670000000016
 20
202.3920039999999858
 30
0.0
 10
203.2400550000000123
 20
202.3785890000000052
 30
0.0
 10
203.236536000000001
 20
199.0774810000000059
 30
0.0
  0
LWPOLYLINE
  5
3B
100
AcDbEntity
  8
MAGENTA
 62
1
420
16711680
370
-1
 48
1.0
  6
BYLAYER
100
AcDbPolyline
 90
4
 70
1
 10
188.9478829999999903
 20
175.3935789999999884
 30
0.0
 10
188.9484119999999905
 20
178.6957539999999938
 30
0.0
 10
202.9187000000000012
 20
178.6823390000000131
 30
0.0
 10
202.9152080000000069
 20
175.3812310000000139
 30
0.0
  0
SPLINE
  5
3C
100
AcDbEntity
  8
MAGENTA
 62
1
420
16711680
370
-1
 48
1.0
  6
BYLAYER
100
AcDbSpline
 70
8
 71
3
 72
8
 73
4
 74
0
 40
0.0
 40
0.0
 40
0.0
 40
0.0
 40
1.0
 40
1.0
 40
1.0
 40
1.0
 10
212.4292121116952217
 20
262.0188886092047937
 30
0.0
 10
212.4292121116952217
 20
262.5547866092048253
 30
0.0
 10
212.1433131116952211
 20
263.0499776092048023
 30
0.0
 10
211.6792111116951958
 20
263.3179266092047897
 30
0.0
  0
SPLINE
  5
3D
100
AcDbEntity
  8
MAGENTA
 62
1
420
16711680
370
-1
 48
1.0
  6
BYLAYER
100
AcDbSpline
 70
8
 71
3
 72
8
 73
4
 74
0
 40
0.0
 40
0.0
 40
0.0
 40
0.0
 40
1.0
 40
1.0
 40
1.0
 40
1.0
 10
211.5000009999999975
 20
164.0
 30
0.0
 10
211.5000009999999975
 20
164.5358980000000031
 30
0.0
 10
211.2141019999999969
 20
165.0310890000000086
 30
0.0
 10
210.7499999999999716
 20
165.2990379999999959
 30
0.0
  0
SPLINE
  5
3E
100
AcDbEntity
  8
MAGENTA
 62
1
420
16711680
370
-1
 48
1.0
  6
BYLAYER
100
AcDbSpline
 70
8
 71
3
 72
8
 73
4
 74
0
 40
0.0
 40
0.0
 40
0.0
 40
0.0
 40
1.0
 40
1.0
 40
1.0
 40
1.0
 10
126.5000009999999975
 20
164.0
 30
0.0
 10
126.5000009999999975
 20
164.5358980000000031
 30
0.0
 10
126.2141019999999969
 20
165.0310890000000086
 30
0.0
 10
125.7499999999999716
 20
165.2990379999999959
 30
0.0
  0
SPLINE
  5
3F
100
AcDbEntity
  8
MAGENTA
 62
1
420
16711680
370
-1
 48
1.0
  6
BYLAYER
100
AcDbSpline
 70
8
 71
3
 72
8
 73
4
 74
0
 40
0.0
 40
0.0
 40
0.0
 40
0.0
 40
1.0
 40
1.0
 40
1.0
 40
1.0
 10
-206.015239768659427
 20
336.1627696664616565
 30
0.0
 10
-206.015239768659427
 20
336.698667666461688
 30
0.0
 10
-206.3011387686594276
 20
337.1938586664616651
 30
0.0
 10
-206.7652407686594529
 20
337.4618076664616524
 30
0.0
  0
SPLINE
  5
40
100
AcDbEntity
  8
MAGENTA
 62
1
420
16711680
370
-1
 48
1.0
  6
BYLAYER
100
AcDbSpline
 70
8
 71
3
 72
8
 73
4
 74
0
 40
0.0
 40
0.0
 40
0.0
 40
0.0
 40
1.0
 40
1.0
 40
1.0
 40
1.0
 10
-96.015239768659427
 20
336.1627696664616565
 30
0.0
 10
-96.015239768659427
 20
336.698667666461688
 30
0.0
 10
-96.3011387686594276
 20
337.1938586664616651
 30
0.0
 10
-96.7652407686594529
 20
337.4618076664616524
 30
0.0
  0
SPLINE
  5
41
100
AcDbEntity
  8
MAGENTA
 62
1
420
16711680
370
-1
 48
1.0
  6
BYLAYER
100
AcDbSpline
 70
8
 71
3
 72
8
 73
4
 74
0
 40
0.0
 40
0.0
 40
0.0
 40
0.0
 40
1.0
 40
1.0
 40
1.0
 40
1.0
 10
23.984760231340573
 20
336.1627696664616565
 30
0.0
 10
23.984760231340573
 20
336.698667666461688
 30
0.0
 10
23.6988612313405724
 20
337.1938586664616651
 30
0.0
 10
23.2347592313405471
 20
337.4618076664616524
 30
0.0
  0
SPLINE
  5
42
100
AcDbEntity
  8
MAGENTA
 62
1
420
16711680
370
-1
 48
1.0
  6
BYLAYER
100
AcDbSpline
 70
8
 71
3
 72
8
 73
4
 74
0
 40
0.0
 40
0.0
 40
0.0
 40
0.0
 40
1.0
 40
1.0
 40
1.0
 40
1.0
 10
-205.0828983890870916
 20
261.1366160094706288
 30
0.0
 10
-205.0828983890870916
 20
261.6725140094706603
 30
0.0
 10
-205.3687973890870921
 20
262.1677050094706374
 30
0.0
 10
-205.8328993890871175
 20
262.4356540094706247
 30
0.0
  0
SPLINE
  5
43
100
AcDbEntity
  8
MAGENTA
 62
1
420
16711680
370
-1
 48
1.0
  6
BYLAYER
100
AcDbSpline
 70
8
 71
3
 72
8
 73
4
 74
0
 40
0.0
 40
0.0
 40
0.0
 40
0.0
 40
1.0
 40
1.0
 40
1.0
 40
1.0
 10
-95.0828983890870916
 20
261.1366160094706288
 30
0.0
 10
-95.0828983890870916
 20
261.6725140094706603
 30
0.0
 10
-95.3687973890870921
 20
262.1677050094706374
 30
0.0
 10
-95.8328993890871175
 20
262.4356540094706247
 30
0.0
  0
SPLINE
  5
44
100
AcDbEntity
  8
MAGENTA
 62
1
420
16711680
370
-1
 48
1.0
  6
BYLAYER
100
AcDbSpline
 70
8
 71
3
 72
8
 73
4
 74
0
 40
0.0
 40
0.0
 40
0.0
 40
0.0
 40
1.0
 40
1.0
 40
1.0
 40
1.0
 10
24.9171016109129084
 20
261.1366160094706288
 30
0.0
 10
24.9171016109129084
 20
261.6725140094706603
 30
0.0
 10
24.6312026109129079
 20
262.1677050094706374
 30
0.0
 10
24.1671006109128825
 20
262.4356540094706247
 30
0.0
  0
SPLINE
  5
45
100
AcDbEntity
  8
MAGENTA
 62
1
420
16711680
370
-1
 48
1.0
  6
BYLAYER
100
AcDbSpline
 70
8
 71
3
 72
8
 73
4
 74
0
 40
0.0
 40
0.0
 40
0.0
 40
0.0
 40
1.0
 40
1.0
 40
1.0
 40
1.0
 10
-206.0121095007823158
 20
163.1177274002658351
 30
0.0
 10
-206.0121095007823158
 20
163.6536254002658382
 30
0.0
 10
-206.2980085007823163
 20
164.1488164002658436
 30
0.0
 10
-206.7621105007823417
 20
164.416765400265831
 30
0.0
  0
SPLINE
  5
46
100
AcDbEntity
  8
MAGENTA
 62
1
420
16711680
370
-1
 48
1.0
  6
BYLAYER
100
AcDbSpline
 70
8
 71
3
 72
8
 73
4
 74
0
 40
0.0
 40
0.0
 40
0.0
 40
0.0
 40
1.0
 40
1.0
 40
1.0
 40
1.0
 10
-96.0121095007823158
 20
163.1177274002658351
 30
0.0
 10
-96.0121095007823158
 20
163.6536254002658382
 30
0.0
 10
-96.2980085007823163
 20
164.1488164002658436
 30
0.0
 10
-96.7621105007823417
 20
164.416765400265831
 30
0.0
  0
SPLINE
  5
47
100
AcDbEntity
  8
MAGENTA
 62
1
420
16711680
370
-1
 48
1.0
  6
BYLAYER
100
AcDbSpline
 70
8
 71
3
 72
8
 73
4
 74
0
 40
0.0
 40
0.0
 40
0.0
 40
0.0
 40
1.0
 40
1.0
 40
1.0
 40
1.0
 10
23.9878904992176842
 20
163.1177274002658351
 30
0.0
 10
23.9878904992176842
 20
163.6536254002658382
 30
0.0
 10
23.7019914992176837
 20
164.1488164002658436
 30
0.0
 10
23.2378894992176583
 20
164.416765400265831
 30
0.0
  0
SPLINE
  5
48
100
AcDbEntity
  8
MAGENTA
 62
1
420
16711680
370
-1
 48
1.0
  6
BYLAYER
100
AcDbSpline
 70
8
 71
3
 72
8
 73
4
 74
0
 40
0.0
 40
0.0
 40
0.0
 40
0.0
 40
1.0
 40
1.0
 40
1.0
 40
1.0
 10
-291.0121095007823442
 20
163.1177274002658351
 30
0.0
 10
-291.0121095007823442
 20
163.6536254002658382
 30
0.0
 10
-291.2980085007823163
 20
164.1488164002658436
 30
0.0
 10
-291.7621105007823417
 20
164.416765400265831
 30
0.0
  0
SPLINE
  5
49
100
AcDbEntity
  8
MAGENTA
 62
1
420
16711680
370
-1
 48
1.0
  6
BYLAYER
100
AcDbSpline
 70
8
 71
3
 72
8
 73
4
 74
0
 40
0.0
 40
0.0
 40
0.0
 40
0.0
 40
1.0
 40
1.0
 40
1.0
 40
1.0
 10
-181.0121095007823158
 20
163.1177274002658351
 30
0.0
 10
-181.0121095007823158
 20
163.6536254002658382
 30
0.0
 10
-181.2980085007823163
 20
164.1488164002658436
 30
0.0
 10
-181.7621105007823417
 20
164.416765400265831
 30
0.0
  0
SPLINE
  5
4A
100
AcDbEntity
  8
MAGENTA
 62
1
420
16711680
370
-1
 48
1.0
  6
BYLAYER
100
AcDbSpline
 70
8
 71
3
 72
8
 73
4
 74
0
 40
0.0
 40
0.0
 40
0.0
 40
0.0
 40
1.0
 40
1.0
 40
1.0
 40
1.0
 10
-61.0121095007823158
 20
163.1177274002658351
 30
0.0
 10
-61.0121095007823158
 20
163.6536254002658382
 30
0.0
 10
-61.2980085007823163
 20
164.1488164002658436
 30
0.0
 10
-61.7621105007823417
 20
164.416765400265831
 30
0.0
  0
SPLINE
  5
4B
100
AcDbEntity
  8
MAGENTA
 62
1
420
16711680
370
-1
 48
1.0
  6
BYLAYER
100
AcDbSpline
 70
8
 71
3
 72
8
 73
4
 74
0
 40
0.0
 40
0.0
 40
0.0
 40
0.0
 40
1.0
 40
1.0
 40
1.0
 40
1.0
 10
-290.9493971270408679
 20
335.877755715594617
 30
0.0
 10
-290.9493971270408679
 20
336.4136537155946485
 30
0.0
 10
-291.23529612704084
 20
336.9088447155946255
 30
0.0
 10
-291.6993981270408653
 20
337.1767937155946129
 30
0.0
  0
SPLINE
  5
4C
100
AcDbEntity
  8
MAGENTA
 62
1
420
16711680
370
-1
 48
1.0
  6
BYLAYER
100
AcDbSpline
 70
8
 71
3
 72
8
 73
4
 74
0
 40
0.0
 40
0.0
 40
0.0
 40
0.0
 40
1.0
 40
1.0
 40
1.0
 40
1.0
 10
-180.9493971270408395
 20
335.877755715594617
 30
0.0
 10
-180.9493971270408395
 20
336.4136537155946485
 30
0.0
 10
-181.23529612704084
 20
336.9088447155946255
 30
0.0
 10
-181.6993981270408653
 20
337.1767937155946129
 30
0.0
  0
SPLINE
  5
4D
100
AcDbEntity
  8
MAGENTA
 62
1
420
16711680
370
-1
 48
1.0
  6
BYLAYER
100
AcDbSpline
 70
8
 71
3
 72
8
 73
4
 74
0
 40
0.0
 40
0.0
 40
0.0
 40
0.0
 40
1.0
 40
1.0
 40
1.0
 40
1.0
 10
-60.9493971270408395
 20
335.877755715594617
 30
0.0
 10
-60.9493971270408395
 20
336.4136537155946485
 30
0.0
 10
-61.23529612704084
 20
336.9088447155946255
 30
0.0
 10
-61.6993981270408653
 20
337.1767937155946129
 30
0.0
  0
SPLINE
  5
4E
100
AcDbEntity
  8
MAGENTA
 62
1
420
16711680
370
-1
 48
1.0
  6
BYLAYER
100
AcDbSpline
 70
8
 71
3
 72
8
 73
4
 74
0
 40
0.0
 40
0.0
 40
0.0
 40
0.0
 40
1.0
 40
1.0
 40
1.0
 40
1.0
 10
126.5627133737414738
 20
336.7600283153287819
 30
0.0
 10
126.5627133737414738
 20
337.2959263153288134
 30
0.0
 10
126.2768143737414732
 20
337.7911173153287905
 30
0.0
 10
125.8127123737414479
 20
338.0590663153287778
 30
0.0
  0
SPLINE
  5
4F
100
AcDbEntity
  8
MAGENTA
 62
1
420
16711680
370
-1
 48
1.0
  6
BYLAYER
100
AcDbSpline
 70
8
 71
3
 72
8
 73
4
 74
0
 40
0.0
 40
0.0
 40
0.0
 40
0.0
 40
1.0
 40
1.0
 40
1.0
 40
1.0
 10
211.4968707321228862
 20
337.0450422661958214
 30
0.0
 10
211.4968707321228862
 20
337.5809402661958529
 30
0.0
 10
211.2109717321228857
 20
338.07613126619583
 30
0.0
 10
210.7468697321228603
 20
338.3440802661958173
 30
0.0
  0
SPLINE
  5
50
100
AcDbEntity
  8
MAGENTA
 62
1
420
16711680
370
-1
 48
1.0
  6
BYLAYER
100
AcDbSpline
 70
8
 71
3
 72
8
 73
4
 74
0
 40
0.0
 40
0.0
 40
0.0
 40
0.0
 40
1.0
 40
1.0
 40
1.0
 40
1.0
 10
211.6792111116951958
 20
263.3179266092047897
 30
0.0
 10
211.2151101116951963
 20
263.585875609204777
 30
0.0
 10
210.6433111116951977
 20
263.585875609204777
 30
0.0
 10
210.1792111116951958
 20
263.3179266092047897
 30
0.0
  0
SPLINE
  5
51
100
AcDbEntity
  8
MAGENTA
 62
1
420
16711680
370
-1
 48
1.0
  6
BYLAYER
100
AcDbSpline
 70
8
 71
3
 72
8
 73
4
 74
0
 40
0.0
 40
0.0
 40
0.0
 40
0.0
 40
1.0
 40
1.0
 40
1.0
 40
1.0
 10
210.7499999999999716
 20
165.2990379999999959
 30
0.0
 10
210.2858989999999721
 20
165.5669870000000117
 30
0.0
 10
209.7140999999999735
 20
165.5669870000000117
 30
0.0
 10
209.2499999999999716
 20
165.2990379999999959
 30
0.0
  0
SPLINE
  5
52
100
AcDbEntity
  8
MAGENTA
 62
1
420
16711680
370
-1
 48
1.0
  6
BYLAYER
100
AcDbSpline
 70
8
 71
3
 72
8
 73
4
 74
0
 40
0.0
 40
0.0
 40
0.0
 40
0.0
 40
1.0
 40
1.0
 40
1.0
 40
1.0
 10
125.7499999999999716
 20
165.2990379999999959
 30
0.0
 10
125.2858989999999721
 20
165.5669870000000117
 30
0.0
 10
124.7140999999999735
 20
165.5669870000000117
 30
0.0
 10
124.2499999999999716
 20
165.2990379999999959
 30
0.0
  0
SPLINE
  5
53
100
AcDbEntity
  8
MAGENTA
 62
1
420
16711680
370
-1
 48
1.0
  6
BYLAYER
100
AcDbSpline
 70
8
 71
3
 72
8
 73
4
 74
0
 40
0.0
 40
0.0
 40
0.0
 40
0.0
 40
1.0
 40
1.0
 40
1.0
 40
1.0
 10
-205.8328993890871175
 20
262.4356540094706247
 30
0.0
 10
-206.2970003890871169
 20
262.7036030094706121
 30
0.0
 10
-206.8687993890871155
 20
262.7036030094706121
 30
0.0
 10
-207.3328993890871175
 20
262.4356540094706247
 30
0.0
  0
SPLINE
  5
54
100
AcDbEntity
  8
MAGENTA
 62
1
420
16711680
370
-1
 48
1.0
  6
BYLAYER
100
AcDbSpline
 70
8
 71
3
 72
8
 73
4
 74
0
 40
0.0
 40
0.0
 40
0.0
 40
0.0
 40
1.0
 40
1.0
 40
1.0
 40
1.0
 10
-95.8328993890871175
 20
262.4356540094706247
 30
0.0
 10
-96.2970003890871169
 20
262.7036030094706121
 30
0.0
 10
-96.8687993890871155
 20
262.7036030094706121
 30
0.0
 10
-97.3328993890871175
 20
262.4356540094706247
 30
0.0
  0
SPLINE
  5
55
100
AcDbEntity
  8
MAGENTA
 62
1
420
16711680
370
-1
 48
1.0
  6
BYLAYER
100
AcDbSpline
 70
8
 71
3
 72
8
 73
4
 74
0
 40
0.0
 40
0.0
 40
0.0
 40
0.0
 40
1.0
 40
1.0
 40
1.0
 40
1.0
 10
24.1671006109128825
 20
262.4356540094706247
 30
0.0
 10
23.7029996109128831
 20
262.7036030094706121
 30
0.0
 10
23.1312006109128845
 20
262.7036030094706121
 30
0.0
 10
22.6671006109128825
 20
262.4356540094706247
 30
0.0
  0
SPLINE
  5
56
100
AcDbEntity
  8
MAGENTA
 62
1
420
16711680
370
-1
 48
1.0
  6
BYLAYER
100
AcDbSpline
 70
8
 71
3
 72
8
 73
4
 74
0
 40
0.0
 40
0.0
 40
0.0
 40
0.0
 40
1.0
 40
1.0
 40
1.0
 40
1.0
 10
-206.7621105007823417
 20
164.416765400265831
 30
0.0
 10
-207.2262115007823411
 20
164.6847144002658467
 30
0.0
 10
-207.7980105007823397
 20
164.6847144002658467
 30
0.0
 10
-208.2621105007823417
 20
164.416765400265831
 30
0.0
  0
SPLINE
  5
57
100
AcDbEntity
  8
MAGENTA
 62
1
420
16711680
370
-1
 48
1.0
  6
BYLAYER
100
AcDbSpline
 70
8
 71
3
 72
8
 73
4
 74
0
 40
0.0
 40
0.0
 40
0.0
 40
0.0
 40
1.0
 40
1.0
 40
1.0
 40
1.0
 10
-96.7621105007823417
 20
164.416765400265831
 30
0.0
 10
-97.2262115007823411
 20
164.6847144002658467
 30
0.0
 10
-97.7980105007823397
 20
164.6847144002658467
 30
0.0
 10
-98.2621105007823417
 20
164.416765400265831
 30
0.0
  0
SPLINE
  5
58
100
AcDbEntity
  8
MAGENTA
 62
1
420
16711680
370
-1
 48
1.0
  6
BYLAYER
100
AcDbSpline
 70
8
 71
3
 72
8
 73
4
 74
0
 40
0.0
 40
0.0
 40
0.0
 40
0.0
 40
1.0
 40
1.0
 40
1.0
 40
1.0
 10
23.2378894992176583
 20
164.416765400265831
 30
0.0
 10
22.7737884992176589
 20
164.6847144002658467
 30
0.0
 10
22.2019894992176603
 20
164.6847144002658467
 30
0.0
 10
21.7378894992176583
 20
164.416765400265831
 30
0.0
  0
SPLINE
  5
59
100
AcDbEntity
  8
MAGENTA
 62
1
420
16711680
370
-1
 48
1.0
  6
BYLAYER
100
AcDbSpline
 70
8
 71
3
 72
8
 73
4
 74
0
 40
0.0
 40
0.0
 40
0.0
 40
0.0
 40
1.0
 40
1.0
 40
1.0
 40
1.0
 10
-181.7621105007823417
 20
164.416765400265831
 30
0.0
 10
-182.2262115007823411
 20
164.6847144002658467
 30
0.0
 10
-182.7980105007823397
 20
164.6847144002658467
 30
0.0
 10
-183.2621105007823417
 20
164.416765400265831
 30
0.0
  0
SPLINE
  5
5A
100
AcDbEntity
  8
MAGENTA
 62
1
420
16711680
370
-1
 48
1.0
  6
BYLAYER
100
AcDbSpline
 70
8
 71
3
 72
8
 73
4
 74
0
 40
0.0
 40
0.0
 40
0.0
 40
0.0
 40
1.0
 40
1.0
 40
1.0
 40
1.0
 10
-61.7621105007823417
 20
164.416765400265831
 30
0.0
 10
-62.2262115007823411
 20
164.6847144002658467
 30
0.0
 10
-62.7980105007823397
 20
164.6847144002658467
 30
0.0
 10
-63.2621105007823417
 20
164.416765400265831
 30
0.0
  0
SPLINE
  5
5B
100
AcDbEntity
  8
MAGENTA
 62
1
420
16711680
370
-1
 48
1.0
  6
BYLAYER
100
AcDbSpline
 70
8
 71
3
 72
8
 73
4
 74
0
 40
0.0
 40
0.0
 40
0.0
 40
0.0
 40
1.0
 40
1.0
 40
1.0
 40
1.0
 10
-291.7621105007823417
 20
164.416765400265831
 30
0.0
 10
-292.2262115007823695
 20
164.6847144002658467
 30
0.0
 10
-292.7980105007823681
 20
164.6847144002658467
 30
0.0
 10
-293.2621105007823417
 20
164.416765400265831
 30
0.0
  0
SPLINE
  5
5C
100
AcDbEntity
  8
MAGENTA
 62
1
420
16711680
370
-1
 48
1.0
  6
BYLAYER
100
AcDbSpline
 70
8
 71
3
 72
8
 73
4
 74
0
 40
0.0
 40
0.0
 40
0.0
 40
0.0
 40
1.0
 40
1.0
 40
1.0
 40
1.0
 10
-181.6993981270408653
 20
337.1767937155946129
 30
0.0
 10
-182.1634991270408648
 20
337.4447427155946002
 30
0.0
 10
-182.7352981270408634
 20
337.4447427155946002
 30
0.0
 10
-183.1993981270408653
 20
337.1767937155946129
 30
0.0
  0
SPLINE
  5
5D
100
AcDbEntity
  8
MAGENTA
 62
1
420
16711680
370
-1
 48
1.0
  6
BYLAYER
100
AcDbSpline
 70
8
 71
3
 72
8
 73
4
 74
0
 40
0.0
 40
0.0
 40
0.0
 40
0.0
 40
1.0
 40
1.0
 40
1.0
 40
1.0
 10
-61.6993981270408653
 20
337.1767937155946129
 30
0.0
 10
-62.1634991270408648
 20
337.4447427155946002
 30
0.0
 10
-62.7352981270408634
 20
337.4447427155946002
 30
0.0
 10
-63.1993981270408653
 20
337.1767937155946129
 30
0.0
  0
SPLINE
  5
5E
100
AcDbEntity
  8
MAGENTA
 62
1
420
16711680
370
-1
 48
1.0
  6
BYLAYER
100
AcDbSpline
 70
8
 71
3
 72
8
 73
4
 74
0
 40
0.0
 40
0.0
 40
0.0
 40
0.0
 40
1.0
 40
1.0
 40
1.0
 40
1.0
 10
-291.6993981270408653
 20
337.1767937155946129
 30
0.0
 10
-292.1634991270408932
 20
337.4447427155946002
 30
0.0
 10
-292.7352981270408918
 20
337.4447427155946002
 30
0.0
 10
-293.1993981270408653
 20
337.1767937155946129
 30
0.0
  0
SPLINE
  5
5F
100
AcDbEntity
  8
MAGENTA
 62
1
420
16711680
370
-1
 48
1.0
  6
BYLAYER
100
AcDbSpline
 70
8
 71
3
 72
8
 73
4
 74
0
 40
0.0
 40
0.0
 40
0.0
 40
0.0
 40
1.0
 40
1.0
 40
1.0
 40
1.0
 10
-96.7652407686594529
 20
337.4618076664616524
 30
0.0
 10
-97.2293417686594523
 20
337.7297566664616397
 30
0.0
 10
-97.8011407686594509
 20
337.7297566664616397
 30
0.0
 10
-98.2652407686594529
 20
337.4618076664616524
 30
0.0
  0
SPLINE
  5
60
100
AcDbEntity
  8
MAGENTA
 62
1
420
16711680
370
-1
 48
1.0
  6
BYLAYER
100
AcDbSpline
 70
8
 71
3
 72
8
 73
4
 74
0
 40
0.0
 40
0.0
 40
0.0
 40
0.0
 40
1.0
 40
1.0
 40
1.0
 40
1.0
 10
23.2347592313405471
 20
337.4618076664616524
 30
0.0
 10
22.7706582313405477
 20
337.7297566664616397
 30
0.0
 10
22.1988592313405491
 20
337.7297566664616397
 30
0.0
 10
21.7347592313405471
 20
337.4618076664616524
 30
0.0
  0
SPLINE
  5
61
100
AcDbEntity
  8
MAGENTA
 62
1
420
16711680
370
-1
 48
1.0
  6
BYLAYER
100
AcDbSpline
 70
8
 71
3
 72
8
 73
4
 74
0
 40
0.0
 40
0.0
 40
0.0
 40
0.0
 40
1.0
 40
1.0
 40
1.0
 40
1.0
 10
-206.7652407686594529
 20
337.4618076664616524
 30
0.0
 10
-207.2293417686594523
 20
337.7297566664616397
 30
0.0
 10
-207.8011407686594509
 20
337.7297566664616397
 30
0.0
 10
-208.2652407686594529
 20
337.4618076664616524
 30
0.0
  0
SPLINE
  5
62
100
AcDbEntity
  8
MAGENTA
 62
1
420
16711680
370
-1
 48
1.0
  6
BYLAYER
100
AcDbSpline
 70
8
 71
3
 72
8
 73
4
 74
0
 40
0.0
 40
0.0
 40
0.0
 40
0.0
 40
1.0
 40
1.0
 40
1.0
 40
1.0
 10
125.8127123737414479
 20
338.0590663153287778
 30
0.0
 10
125.3486113737414485
 20
338.3270153153287652
 30
0.0
 10
124.7768123737414498
 20
338.3270153153287652
 30
0.0
 10
124.3127123737414479
 20
338.0590663153287778
 30
0.0
  0
SPLINE
  5
63
100
AcDbEntity
  8
MAGENTA
 62
1
420
16711680
370
-1
 48
1.0
  6
BYLAYER
100
AcDbSpline
 70
8
 71
3
 72
8
 73
4
 74
0
 40
0.0
 40
0.0
 40
0.0
 40
0.0
 40
1.0
 40
1.0
 40
1.0
 40
1.0
 10
210.7468697321228603
 20
338.3440802661958173
 30
0.0
 10
210.2827687321228609
 20
338.6120292661958047
 30
0.0
 10
209.7109697321228623
 20
338.6120292661958047
 30
0.0
 10
209.2468697321228603
 20
338.3440802661958173
 30
0.0
  0
SPLINE
  5
64
100
AcDbEntity
  8
MAGENTA
 62
1
420
16711680
370
-1
 48
1.0
  6
BYLAYER
100
AcDbSpline
 70
8
 71
3
 72
8
 73
4
 74
0
 40
0.0
 40
0.0
 40
0.0
 40
0.0
 40
1.0
 40
1.0
 40
1.0
 40
1.0
 10
209.2499999999999716
 20
165.2990379999999959
 30
0.0
 10
208.7858969999999772
 20
165.0310890000000086
 30
0.0
 10
208.4999989999999741
 20
164.5358980000000031
 30
0.0
 10
208.4999989999999741
 20
164.0
 30
0.0
  0
SPLINE
  5
65
100
AcDbEntity
  8
MAGENTA
 62
1
420
16711680
370
-1
 48
1.0
  6
BYLAYER
100
AcDbSpline
 70
8
 71
3
 72
8
 73
4
 74
0
 40
0.0
 40
0.0
 40
0.0
 40
0.0
 40
1.0
 40
1.0
 40
1.0
 40
1.0
 10
124.2499999999999716
 20
165.2990379999999959
 30
0.0
 10
123.7858969999999772
 20
165.0310890000000086
 30
0.0
 10
123.4999989999999741
 20
164.5358980000000031
 30
0.0
 10
123.4999989999999741
 20
164.0
 30
0.0
  0
SPLINE
  5
66
100
AcDbEntity
  8
MAGENTA
 62
1
420
16711680
370
-1
 48
1.0
  6
BYLAYER
100
AcDbSpline
 70
8
 71
3
 72
8
 73
4
 74
0
 40
0.0
 40
0.0
 40
0.0
 40
0.0
 40
1.0
 40
1.0
 40
1.0
 40
1.0
 10
-97.3328993890871175
 20
262.4356540094706247
 30
0.0
 10
-97.7970023890871119
 20
262.1677050094706374
 30
0.0
 10
-98.0829003890871149
 20
261.6725140094706603
 30
0.0
 10
-98.0829003890871149
 20
261.1366160094706288
 30
0.0
  0
SPLINE
  5
67
100
AcDbEntity
  8
MAGENTA
 62
1
420
16711680
370
-1
 48
1.0
  6
BYLAYER
100
AcDbSpline
 70
8
 71
3
 72
8
 73
4
 74
0
 40
0.0
 40
0.0
 40
0.0
 40
0.0
 40
1.0
 40
1.0
 40
1.0
 40
1.0
 10
22.6671006109128825
 20
262.4356540094706247
 30
0.0
 10
22.2029976109128881
 20
262.1677050094706374
 30
0.0
 10
21.9170996109128851
 20
261.6725140094706603
 30
0.0
 10
21.9170996109128851
 20
261.1366160094706288
 30
0.0
  0
SPLINE
  5
68
100
AcDbEntity
  8
MAGENTA
 62
1
420
16711680
370
-1
 48
1.0
  6
BYLAYER
100
AcDbSpline
 70
8
 71
3
 72
8
 73
4
 74
0
 40
0.0
 40
0.0
 40
0.0
 40
0.0
 40
1.0
 40
1.0
 40
1.0
 40
1.0
 10
-207.3328993890871175
 20
262.4356540094706247
 30
0.0
 10
-207.7970023890871119
 20
262.1677050094706374
 30
0.0
 10
-208.0829003890871149
 20
261.6725140094706603
 30
0.0
 10
-208.0829003890871149
 20
261.1366160094706288
 30
0.0
  0
SPLINE
  5
69
100
AcDbEntity
  8
MAGENTA
 62
1
420
16711680
370
-1
 48
1.0
  6
BYLAYER
100
AcDbSpline
 70
8
 71
3
 72
8
 73
4
 74
0
 40
0.0
 40
0.0
 40
0.0
 40
0.0
 40
1.0
 40
1.0
 40
1.0
 40
1.0
 10
-98.2621105007823417
 20
164.416765400265831
 30
0.0
 10
-98.726213500782336
 20
164.1488164002658436
 30
0.0
 10
-99.0121115007823391
 20
163.6536254002658382
 30
0.0
 10
-99.0121115007823391
 20
163.1177274002658351
 30
0.0
  0
SPLINE
  5
6A
100
AcDbEntity
  8
MAGENTA
 62
1
420
16711680
370
-1
 48
1.0
  6
BYLAYER
100
AcDbSpline
 70
8
 71
3
 72
8
 73
4
 74
0
 40
0.0
 40
0.0
 40
0.0
 40
0.0
 40
1.0
 40
1.0
 40
1.0
 40
1.0
 10
21.7378894992176583
 20
164.416765400265831
 30
0.0
 10
21.273786499217664
 20
164.1488164002658436
 30
0.0
 10
20.9878884992176609
 20
163.6536254002658382
 30
0.0
 10
20.9878884992176609
 20
163.1177274002658351
 30
0.0
  0
SPLINE
  5
6B
100
AcDbEntity
  8
MAGENTA
 62
1
420
16711680
370
-1
 48
1.0
  6
BYLAYER
100
AcDbSpline
 70
8
 71
3
 72
8
 73
4
 74
0
 40
0.0
 40
0.0
 40
0.0
 40
0.0
 40
1.0
 40
1.0
 40
1.0
 40
1.0
 10
-208.2621105007823417
 20
164.416765400265831
 30
0.0
 10
-208.726213500782336
 20
164.1488164002658436
 30
0.0
 10
-209.0121115007823391
 20
163.6536254002658382
 30
0.0
 10
-209.0121115007823391
 20
163.1177274002658351
 30
0.0
  0
SPLINE
  5
6C
100
AcDbEntity
  8
MAGENTA
 62
1
420
16711680
370
-1
 48
1.0
  6
BYLAYER
100
AcDbSpline
 70
8
 71
3
 72
8
 73
4
 74
0
 40
0.0
 40
0.0
 40
0.0
 40
0.0
 40
1.0
 40
1.0
 40
1.0
 40
1.0
 10
-183.2621105007823417
 20
164.416765400265831
 30
0.0
 10
-183.726213500782336
 20
164.1488164002658436
 30
0.0
 10
-184.0121115007823391
 20
163.6536254002658382
 30
0.0
 10
-184.0121115007823391
 20
163.1177274002658351
 30
0.0
  0
SPLINE
  5
6D
100
AcDbEntity
  8
MAGENTA
 62
1
420
16711680
370
-1
 48
1.0
  6
BYLAYER
100
AcDbSpline
 70
8
 71
3
 72
8
 73
4
 74
0
 40
0.0
 40
0.0
 40
0.0
 40
0.0
 40
1.0
 40
1.0
 40
1.0
 40
1.0
 10
-63.2621105007823417
 20
164.416765400265831
 30
0.0
 10
-63.726213500782336
 20
164.1488164002658436
 30
0.0
 10
-64.0121115007823391
 20
163.6536254002658382
 30
0.0
 10
-64.0121115007823391
 20
163.1177274002658351
 30
0.0
  0
SPLINE
  5
6E
100
AcDbEntity
  8
MAGENTA
 62
1
420
16711680
370
-1
 48
1.0
  6
BYLAYER
100
AcDbSpline
 70
8
 71
3
 72
8
 73
4
 74
0
 40
0.0
 40
0.0
 40
0.0
 40
0.0
 40
1.0
 40
1.0
 40
1.0
 40
1.0
 10
-293.2621105007823417
 20
164.416765400265831
 30
0.0
 10
-293.7262135007823645
 20
164.1488164002658436
 30
0.0
 10
-294.0121115007823391
 20
163.6536254002658382
 30
0.0
 10
-294.0121115007823391
 20
163.1177274002658351
 30
0.0
  0
SPLINE
  5
6F
100
AcDbEntity
  8
MAGENTA
 62
1
420
16711680
370
-1
 48
1.0
  6
BYLAYER
100
AcDbSpline
 70
8
 71
3
 72
8
 73
4
 74
0
 40
0.0
 40
0.0
 40
0.0
 40
0.0
 40
1.0
 40
1.0
 40
1.0
 40
1.0
 10
-183.1993981270408653
 20
337.1767937155946129
 30
0.0
 10
-183.6635011270408597
 20
336.9088447155946255
 30
0.0
 10
-183.9493991270408628
 20
336.4136537155946485
 30
0.0
 10
-183.9493991270408628
 20
335.877755715594617
 30
0.0
  0
SPLINE
  5
70
100
AcDbEntity
  8
MAGENTA
 62
1
420
16711680
370
-1
 48
1.0
  6
BYLAYER
100
AcDbSpline
 70
8
 71
3
 72
8
 73
4
 74
0
 40
0.0
 40
0.0
 40
0.0
 40
0.0
 40
1.0
 40
1.0
 40
1.0
 40
1.0
 10
-63.1993981270408653
 20
337.1767937155946129
 30
0.0
 10
-63.6635011270408597
 20
336.9088447155946255
 30
0.0
 10
-63.9493991270408628
 20
336.4136537155946485
 30
0.0
 10
-63.9493991270408628
 20
335.877755715594617
 30
0.0
  0
SPLINE
  5
71
100
AcDbEntity
  8
MAGENTA
 62
1
420
16711680
370
-1
 48
1.0
  6
BYLAYER
100
AcDbSpline
 70
8
 71
3
 72
8
 73
4
 74
0
 40
0.0
 40
0.0
 40
0.0
 40
0.0
 40
1.0
 40
1.0
 40
1.0
 40
1.0
 10
-293.1993981270408653
 20
337.1767937155946129
 30
0.0
 10
-293.6635011270408882
 20
336.9088447155946255
 30
0.0
 10
-293.9493991270408628
 20
336.4136537155946485
 30
0.0
 10
-293.9493991270408628
 20
335.877755715594617
 30
0.0
  0
SPLINE
  5
72
100
AcDbEntity
  8
MAGENTA
 62
1
420
16711680
370
-1
 48
1.0
  6
BYLAYER
100
AcDbSpline
 70
8
 71
3
 72
8
 73
4
 74
0
 40
0.0
 40
0.0
 40
0.0
 40
0.0
 40
1.0
 40
1.0
 40
1.0
 40
1.0
 10
-98.2652407686594529
 20
337.4618076664616524
 30
0.0
 10
-98.7293437686594473
 20
337.1938586664616651
 30
0.0
 10
-99.0152417686594504
 20
336.698667666461688
 30
0.0
 10
-99.0152417686594504
 20
336.1627696664616565
 30
0.0
  0
SPLINE
  5
73
100
AcDbEntity
  8
MAGENTA
 62
1
420
16711680
370
-1
 48
1.0
  6
BYLAYER
100
AcDbSpline
 70
8
 71
3
 72
8
 73
4
 74
0
 40
0.0
 40
0.0
 40
0.0
 40
0.0
 40
1.0
 40
1.0
 40
1.0
 40
1.0
 10
21.7347592313405471
 20
337.4618076664616524
 30
0.0
 10
21.2706562313405527
 20
337.1938586664616651
 30
0.0
 10
20.9847582313405496
 20
336.698667666461688
 30
0.0
 10
20.9847582313405496
 20
336.1627696664616565
 30
0.0
  0
SPLINE
  5
74
100
AcDbEntity
  8
MAGENTA
 62
1
420
16711680
370
-1
 48
1.0
  6
BYLAYER
100
AcDbSpline
 70
8
 71
3
 72
8
 73
4
 74
0
 40
0.0
 40
0.0
 40
0.0
 40
0.0
 40
1.0
 40
1.0
 40
1.0
 40
1.0
 10
-208.2652407686594529
 20
337.4618076664616524
 30
0.0
 10
-208.7293437686594473
 20
337.1938586664616651
 30
0.0
 10
-209.0152417686594504
 20
336.698667666461688
 30
0.0
 10
-209.0152417686594504
 20
336.1627696664616565
 30
0.0
  0
SPLINE
  5
75
100
AcDbEntity
  8
MAGENTA
 62
1
420
16711680
370
-1
 48
1.0
  6
BYLAYER
100
AcDbSpline
 70
8
 71
3
 72
8
 73
4
 74
0
 40
0.0
 40
0.0
 40
0.0
 40
0.0
 40
1.0
 40
1.0
 40
1.0
 40
1.0
 10
124.3127123737414479
 20
338.0590663153287778
 30
0.0
 10
123.8486093737414535
 20
337.7911173153287905
 30
0.0
 10
123.5627113737414504
 20
337.2959263153288134
 30
0.0
 10
123.5627113737414504
 20
336.7600283153287819
 30
0.0
  0
SPLINE
  5
76
100
AcDbEntity
  8
MAGENTA
 62
1
420
16711680
370
-1
 48
1.0
  6
BYLAYER
100
AcDbSpline
 70
8
 71
3
 72
8
 73
4
 74
0
 40
0.0
 40
0.0
 40
0.0
 40
0.0
 40
1.0
 40
1.0
 40
1.0
 40
1.0
 10
209.2468697321228603
 20
338.3440802661958173
 30
0.0
 10
208.782766732122866
 20
338.07613126619583
 30
0.0
 10
208.4968687321228629
 20
337.5809402661958529
 30
0.0
 10
208.4968687321228629
 20
337.0450422661958214
 30
0.0
  0
SPLINE
  5
77
100
AcDbEntity
  8
MAGENTA
 62
1
420
16711680
370
-1
 48
1.0
  6
BYLAYER
100
AcDbSpline
 70
8
 71
3
 72
8
 73
4
 74
0
 40
0.0
 40
0.0
 40
0.0
 40
0.0
 40
1.0
 40
1.0
 40
1.0
 40
1.0
 10
210.1792111116951958
 20
263.3179266092047897
 30
0.0
 10
209.7151081116952014
 20
263.0499776092048023
 30
0.0
 10
209.4292101116951983
 20
262.5547866092048253
 30
0.0
 10
209.4292101116951983
 20
262.0188886092047937
 30
0.0
  0
SPLINE
  5
78
100
AcDbEntity
  8
MAGENTA
 62
1
420
16711680
370
-1
 48
1.0
  6
BYLAYER
100
AcDbSpline
 70
8
 71
3
 72
8
 73
4
 74
0
 40
0.0
 40
0.0
 40
0.0
 40
0.0
 40
1.0
 40
1.0
 40
1.0
 40
1.0
 10
208.4999989999999741
 20
164.0
 30
0.0
 10
208.4999989999999741
 20
163.4641019999999969
 30
0.0
 10
208.7858969999999772
 20
162.9689110000000198
 30
0.0
 10
209.2499999999999716
 20
162.7009620000000041
 30
0.0
  0
SPLINE
  5
79
100
AcDbEntity
  8
MAGENTA
 62
1
420
16711680
370
-1
 48
1.0
  6
BYLAYER
100
AcDbSpline
 70
8
 71
3
 72
8
 73
4
 74
0
 40
0.0
 40
0.0
 40
0.0
 40
0.0
 40
1.0
 40
1.0
 40
1.0
 40
1.0
 10
123.4999989999999741
 20
164.0
 30
0.0
 10
123.4999989999999741
 20
163.4641019999999969
 30
0.0
 10
123.7858969999999772
 20
162.9689110000000198
 30
0.0
 10
124.2499999999999716
 20
162.7009620000000041
 30
0.0
  0
SPLINE
  5
7A
100
AcDbEntity
  8
MAGENTA
 62
1
420
16711680
370
-1
 48
1.0
  6
BYLAYER
100
AcDbSpline
 70
8
 71
3
 72
8
 73
4
 74
0
 40
0.0
 40
0.0
 40
0.0
 40
0.0
 40
1.0
 40
1.0
 40
1.0
 40
1.0
 10
-98.0829003890871149
 20
261.1366160094706288
 30
0.0
 10
-98.0829003890871149
 20
260.6007180094705973
 30
0.0
 10
-97.7970023890871119
 20
260.1055270094706202
 30
0.0
 10
-97.3328993890871175
 20
259.8375780094706329
 30
0.0
  0
SPLINE
  5
7B
100
AcDbEntity
  8
MAGENTA
 62
1
420
16711680
370
-1
 48
1.0
  6
BYLAYER
100
AcDbSpline
 70
8
 71
3
 72
8
 73
4
 74
0
 40
0.0
 40
0.0
 40
0.0
 40
0.0
 40
1.0
 40
1.0
 40
1.0
 40
1.0
 10
21.9170996109128851
 20
261.1366160094706288
 30
0.0
 10
21.9170996109128851
 20
260.6007180094705973
 30
0.0
 10
22.2029976109128881
 20
260.1055270094706202
 30
0.0
 10
22.6671006109128825
 20
259.8375780094706329
 30
0.0
  0
SPLINE
  5
7C
100
AcDbEntity
  8
MAGENTA
 62
1
420
16711680
370
-1
 48
1.0
  6
BYLAYER
100
AcDbSpline
 70
8
 71
3
 72
8
 73
4
 74
0
 40
0.0
 40
0.0
 40
0.0
 40
0.0
 40
1.0
 40
1.0
 40
1.0
 40
1.0
 10
-208.0829003890871149
 20
261.1366160094706288
 30
0.0
 10
-208.0829003890871149
 20
260.6007180094705973
 30
0.0
 10
-207.7970023890871119
 20
260.1055270094706202
 30
0.0
 10
-207.3328993890871175
 20
259.8375780094706329
 30
0.0
  0
SPLINE
  5
7D
100
AcDbEntity
  8
MAGENTA
 62
1
420
16711680
370
-1
 48
1.0
  6
BYLAYER
100
AcDbSpline
 70
8
 71
3
 72
8
 73
4
 74
0
 40
0.0
 40
0.0
 40
0.0
 40
0.0
 40
1.0
 40
1.0
 40
1.0
 40
1.0
 10
-99.0121115007823391
 20
163.1177274002658351
 30
0.0
 10
-99.0121115007823391
 20
162.581829400265832
 30
0.0
 10
-98.726213500782336
 20
162.0866384002658549
 30
0.0
 10
-98.2621105007823417
 20
161.8186894002658391
 30
0.0
  0
SPLINE
  5
7E
100
AcDbEntity
  8
MAGENTA
 62
1
420
16711680
370
-1
 48
1.0
  6
BYLAYER
100
AcDbSpline
 70
8
 71
3
 72
8
 73
4
 74
0
 40
0.0
 40
0.0
 40
0.0
 40
0.0
 40
1.0
 40
1.0
 40
1.0
 40
1.0
 10
20.9878884992176609
 20
163.1177274002658351
 30
0.0
 10
20.9878884992176609
 20
162.581829400265832
 30
0.0
 10
21.273786499217664
 20
162.0866384002658549
 30
0.0
 10
21.7378894992176583
 20
161.8186894002658391
 30
0.0
  0
SPLINE
  5
7F
100
AcDbEntity
  8
MAGENTA
 62
1
420
16711680
370
-1
 48
1.0
  6
BYLAYER
100
AcDbSpline
 70
8
 71
3
 72
8
 73
4
 74
0
 40
0.0
 40
0.0
 40
0.0
 40
0.0
 40
1.0
 40
1.0
 40
1.0
 40
1.0
 10
-209.0121115007823391
 20
163.1177274002658351
 30
0.0
 10
-209.0121115007823391
 20
162.581829400265832
 30
0.0
 10
-208.726213500782336
 20
162.0866384002658549
 30
0.0
 10
-208.2621105007823417
 20
161.8186894002658391
 30
0.0
  0
SPLINE
  5
80
100
AcDbEntity
  8
MAGENTA
 62
1
420
16711680
370
-1
 48
1.0
  6
BYLAYER
100
AcDbSpline
 70
8
 71
3
 72
8
 73
4
 74
0
 40
0.0
 40
0.0
 40
0.0
 40
0.0
 40
1.0
 40
1.0
 40
1.0
 40
1.0
 10
-184.0121115007823391
 20
163.1177274002658351
 30
0.0
 10
-184.0121115007823391
 20
162.581829400265832
 30
0.0
 10
-183.726213500782336
 20
162.0866384002658549
 30
0.0
 10
-183.2621105007823417
 20
161.8186894002658391
 30
0.0
  0
SPLINE
  5
81
100
AcDbEntity
  8
MAGENTA
 62
1
420
16711680
370
-1
 48
1.0
  6
BYLAYER
100
AcDbSpline
 70
8
 71
3
 72
8
 73
4
 74
0
 40
0.0
 40
0.0
 40
0.0
 40
0.0
 40
1.0
 40
1.0
 40
1.0
 40
1.0
 10
-64.0121115007823391
 20
163.1177274002658351
 30
0.0
 10
-64.0121115007823391
 20
162.581829400265832
 30
0.0
 10
-63.726213500782336
 20
162.0866384002658549
 30
0.0
 10
-63.2621105007823417
 20
161.8186894002658391
 30
0.0
  0
SPLINE
  5
82
100
AcDbEntity
  8
MAGENTA
 62
1
420
16711680
370
-1
 48
1.0
  6
BYLAYER
100
AcDbSpline
 70
8
 71
3
 72
8
 73
4
 74
0
 40
0.0
 40
0.0
 40
0.0
 40
0.0
 40
1.0
 40
1.0
 40
1.0
 40
1.0
 10
-294.0121115007823391
 20
163.1177274002658351
 30
0.0
 10
-294.0121115007823391
 20
162.581829400265832
 30
0.0
 10
-293.7262135007823645
 20
162.0866384002658549
 30
0.0
 10
-293.2621105007823417
 20
161.8186894002658391
 30
0.0
  0
SPLINE
  5
83
100
AcDbEntity
  8
MAGENTA
 62
1
420
16711680
370
-1
 48
1.0
  6
BYLAYER
100
AcDbSpline
 70
8
 71
3
 72
8
 73
4
 74
0
 40
0.0
 40
0.0
 40
0.0
 40
0.0
 40
1.0
 40
1.0
 40
1.0
 40
1.0
 10
-183.9493991270408628
 20
335.877755715594617
 30
0.0
 10
-183.9493991270408628
 20
335.3418577155945854
 30
0.0
 10
-183.6635011270408597
 20
334.8466667155946084
 30
0.0
 10
-183.1993981270408653
 20
334.578717715594621
 30
0.0
  0
SPLINE
  5
84
100
AcDbEntity
  8
MAGENTA
 62
1
420
16711680
370
-1
 48
1.0
  6
BYLAYER
100
AcDbSpline
 70
8
 71
3
 72
8
 73
4
 74
0
 40
0.0
 40
0.0
 40
0.0
 40
0.0
 40
1.0
 40
1.0
 40
1.0
 40
1.0
 10
-63.9493991270408628
 20
335.877755715594617
 30
0.0
 10
-63.9493991270408628
 20
335.3418577155945854
 30
0.0
 10
-63.6635011270408597
 20
334.8466667155946084
 30
0.0
 10
-63.1993981270408653
 20
334.578717715594621
 30
0.0
  0
SPLINE
  5
85
100
AcDbEntity
  8
MAGENTA
 62
1
420
16711680
370
-1
 48
1.0
  6
BYLAYER
100
AcDbSpline
 70
8
 71
3
 72
8
 73
4
 74
0
 40
0.0
 40
0.0
 40
0.0
 40
0.0
 40
1.0
 40
1.0
 40
1.0
 40
1.0
 10
-293.9493991270408628
 20
335.877755715594617
 30
0.0
 10
-293.9493991270408628
 20
335.3418577155945854
 30
0.0
 10
-293.6635011270408882
 20
334.8466667155946084
 30
0.0
 10
-293.1993981270408653
 20
334.578717715594621
 30
0.0
  0
SPLINE
  5
86
100
AcDbEntity
  8
MAGENTA
 62
1
420
16711680
370
-1
 48
1.0
  6
BYLAYER
100
AcDbSpline
 70
8
 71
3
 72
8
 73
4
 74
0
 40
0.0
 40
0.0
 40
0.0
 40
0.0
 40
1.0
 40
1.0
 40
1.0
 40
1.0
 10
-99.0152417686594504
 20
336.1627696664616565
 30
0.0
 10
-99.0152417686594504
 20
335.626871666461625
 30
0.0
 10
-98.7293437686594473
 20
335.1316806664616479
 30
0.0
 10
-98.2652407686594529
 20
334.8637316664616606
 30
0.0
  0
SPLINE
  5
87
100
AcDbEntity
  8
MAGENTA
 62
1
420
16711680
370
-1
 48
1.0
  6
BYLAYER
100
AcDbSpline
 70
8
 71
3
 72
8
 73
4
 74
0
 40
0.0
 40
0.0
 40
0.0
 40
0.0
 40
1.0
 40
1.0
 40
1.0
 40
1.0
 10
20.9847582313405496
 20
336.1627696664616565
 30
0.0
 10
20.9847582313405496
 20
335.626871666461625
 30
0.0
 10
21.2706562313405527
 20
335.1316806664616479
 30
0.0
 10
21.7347592313405471
 20
334.8637316664616606
 30
0.0
  0
SPLINE
  5
88
100
AcDbEntity
  8
MAGENTA
 62
1
420
16711680
370
-1
 48
1.0
  6
BYLAYER
100
AcDbSpline
 70
8
 71
3
 72
8
 73
4
 74
0
 40
0.0
 40
0.0
 40
0.0
 40
0.0
 40
1.0
 40
1.0
 40
1.0
 40
1.0
 10
-209.0152417686594504
 20
336.1627696664616565
 30
0.0
 10
-209.0152417686594504
 20
335.626871666461625
 30
0.0
 10
-208.7293437686594473
 20
335.1316806664616479
 30
0.0
 10
-208.2652407686594529
 20
334.8637316664616606
 30
0.0
  0
SPLINE
  5
89
100
AcDbEntity
  8
MAGENTA
 62
1
420
16711680
370
-1
 48
1.0
  6
BYLAYER
100
AcDbSpline
 70
8
 71
3
 72
8
 73
4
 74
0
 40
0.0
 40
0.0
 40
0.0
 40
0.0
 40
1.0
 40
1.0
 40
1.0
 40
1.0
 10
123.5627113737414504
 20
336.7600283153287819
 30
0.0
 10
123.5627113737414504
 20
336.2241303153287504
 30
0.0
 10
123.8486093737414535
 20
335.7289393153287733
 30
0.0
 10
124.3127123737414479
 20
335.460990315328786
 30
0.0
  0
SPLINE
  5
8A
100
AcDbEntity
  8
MAGENTA
 62
1
420
16711680
370
-1
 48
1.0
  6
BYLAYER
100
AcDbSpline
 70
8
 71
3
 72
8
 73
4
 74
0
 40
0.0
 40
0.0
 40
0.0
 40
0.0
 40
1.0
 40
1.0
 40
1.0
 40
1.0
 10
208.4968687321228629
 20
337.0450422661958214
 30
0.0
 10
208.4968687321228629
 20
336.5091442661957899
 30
0.0
 10
208.782766732122866
 20
336.0139532661958128
 30
0.0
 10
209.2468697321228603
 20
335.7460042661958255
 30
0.0
  0
SPLINE
  5
8B
100
AcDbEntity
  8
MAGENTA
 62
1
420
16711680
370
-1
 48
1.0
  6
BYLAYER
100
AcDbSpline
 70
8
 71
3
 72
8
 73
4
 74
0
 40
0.0
 40
0.0
 40
0.0
 40
0.0
 40
1.0
 40
1.0
 40
1.0
 40
1.0
 10
209.4292101116951983
 20
262.0188886092047937
 30
0.0
 10
209.4292101116951983
 20
261.4829906092047622
 30
0.0
 10
209.7151081116952014
 20
260.9877996092047852
 30
0.0
 10
210.1792111116951958
 20
260.7198506092047978
 30
0.0
  0
SPLINE
  5
8C
100
AcDbEntity
  8
MAGENTA
 62
1
420
16711680
370
-1
 48
1.0
  6
BYLAYER
100
AcDbSpline
 70
8
 71
3
 72
8
 73
4
 74
0
 40
0.0
 40
0.0
 40
0.0
 40
0.0
 40
1.0
 40
1.0
 40
1.0
 40
1.0
 10
209.2499999999999716
 20
162.7009620000000041
 30
0.0
 10
209.7140999999999735
 20
162.4330130000000167
 30
0.0
 10
210.2858989999999721
 20
162.4330130000000167
 30
0.0
 10
210.7499999999999716
 20
162.7009620000000041
 30
0.0
  0
SPLINE
  5
8D
100
AcDbEntity
  8
MAGENTA
 62
1
420
16711680
370
-1
 48
1.0
  6
BYLAYER
100
AcDbSpline
 70
8
 71
3
 72
8
 73
4
 74
0
 40
0.0
 40
0.0
 40
0.0
 40
0.0
 40
1.0
 40
1.0
 40
1.0
 40
1.0
 10
124.2499999999999716
 20
162.7009620000000041
 30
0.0
 10
124.7140999999999735
 20
162.4330130000000167
 30
0.0
 10
125.2858989999999721
 20
162.4330130000000167
 30
0.0
 10
125.7499999999999716
 20
162.7009620000000041
 30
0.0
  0
SPLINE
  5
8E
100
AcDbEntity
  8
MAGENTA
 62
1
420
16711680
370
-1
 48
1.0
  6
BYLAYER
100
AcDbSpline
 70
8
 71
3
 72
8
 73
4
 74
0
 40
0.0
 40
0.0
 40
0.0
 40
0.0
 40
1.0
 40
1.0
 40
1.0
 40
1.0
 10
-97.3328993890871175
 20
259.8375780094706329
 30
0.0
 10
-96.8687993890871155
 20
259.5696290094706455
 30
0.0
 10
-96.2970003890871169
 20
259.5696290094706455
 30
0.0
 10
-95.8328993890871175
 20
259.8375780094706329
 30
0.0
  0
SPLINE
  5
8F
100
AcDbEntity
  8
MAGENTA
 62
1
420
16711680
370
-1
 48
1.0
  6
BYLAYER
100
AcDbSpline
 70
8
 71
3
 72
8
 73
4
 74
0
 40
0.0
 40
0.0
 40
0.0
 40
0.0
 40
1.0
 40
1.0
 40
1.0
 40
1.0
 10
22.6671006109128825
 20
259.8375780094706329
 30
0.0
 10
23.1312006109128845
 20
259.5696290094706455
 30
0.0
 10
23.7029996109128831
 20
259.5696290094706455
 30
0.0
 10
24.1671006109128825
 20
259.8375780094706329
 30
0.0
  0
SPLINE
  5
90
100
AcDbEntity
  8
MAGENTA
 62
1
420
16711680
370
-1
 48
1.0
  6
BYLAYER
100
AcDbSpline
 70
8
 71
3
 72
8
 73
4
 74
0
 40
0.0
 40
0.0
 40
0.0
 40
0.0
 40
1.0
 40
1.0
 40
1.0
 40
1.0
 10
-207.3328993890871175
 20
259.8375780094706329
 30
0.0
 10
-206.8687993890871155
 20
259.5696290094706455
 30
0.0
 10
-206.2970003890871169
 20
259.5696290094706455
 30
0.0
 10
-205.8328993890871175
 20
259.8375780094706329
 30
0.0
  0
SPLINE
  5
91
100
AcDbEntity
  8
MAGENTA
 62
1
420
16711680
370
-1
 48
1.0
  6
BYLAYER
100
AcDbSpline
 70
8
 71
3
 72
8
 73
4
 74
0
 40
0.0
 40
0.0
 40
0.0
 40
0.0
 40
1.0
 40
1.0
 40
1.0
 40
1.0
 10
-98.2621105007823417
 20
161.8186894002658391
 30
0.0
 10
-97.7980105007823397
 20
161.5507404002658518
 30
0.0
 10
-97.2262115007823411
 20
161.5507404002658518
 30
0.0
 10
-96.7621105007823417
 20
161.8186894002658391
 30
0.0
  0
SPLINE
  5
92
100
AcDbEntity
  8
MAGENTA
 62
1
420
16711680
370
-1
 48
1.0
  6
BYLAYER
100
AcDbSpline
 70
8
 71
3
 72
8
 73
4
 74
0
 40
0.0
 40
0.0
 40
0.0
 40
0.0
 40
1.0
 40
1.0
 40
1.0
 40
1.0
 10
21.7378894992176583
 20
161.8186894002658391
 30
0.0
 10
22.2019894992176603
 20
161.5507404002658518
 30
0.0
 10
22.7737884992176589
 20
161.5507404002658518
 30
0.0
 10
23.2378894992176583
 20
161.8186894002658391
 30
0.0
  0
SPLINE
  5
93
100
AcDbEntity
  8
MAGENTA
 62
1
420
16711680
370
-1
 48
1.0
  6
BYLAYER
100
AcDbSpline
 70
8
 71
3
 72
8
 73
4
 74
0
 40
0.0
 40
0.0
 40
0.0
 40
0.0
 40
1.0
 40
1.0
 40
1.0
 40
1.0
 10
-208.2621105007823417
 20
161.8186894002658391
 30
0.0
 10
-207.7980105007823397
 20
161.5507404002658518
 30
0.0
 10
-207.2262115007823411
 20
161.5507404002658518
 30
0.0
 10
-206.7621105007823417
 20
161.8186894002658391
 30
0.0
  0
SPLINE
  5
94
100
AcDbEntity
  8
MAGENTA
 62
1
420
16711680
370
-1
 48
1.0
  6
BYLAYER
100
AcDbSpline
 70
8
 71
3
 72
8
 73
4
 74
0
 40
0.0
 40
0.0
 40
0.0
 40
0.0
 40
1.0
 40
1.0
 40
1.0
 40
1.0
 10
-183.2621105007823417
 20
161.8186894002658391
 30
0.0
 10
-182.7980105007823397
 20
161.5507404002658518
 30
0.0
 10
-182.2262115007823411
 20
161.5507404002658518
 30
0.0
 10
-181.7621105007823417
 20
161.8186894002658391
 30
0.0
  0
SPLINE
  5
95
100
AcDbEntity
  8
MAGENTA
 62
1
420
16711680
370
-1
 48
1.0
  6
BYLAYER
100
AcDbSpline
 70
8
 71
3
 72
8
 73
4
 74
0
 40
0.0
 40
0.0
 40
0.0
 40
0.0
 40
1.0
 40
1.0
 40
1.0
 40
1.0
 10
-63.2621105007823417
 20
161.8186894002658391
 30
0.0
 10
-62.7980105007823397
 20
161.5507404002658518
 30
0.0
 10
-62.2262115007823411
 20
161.5507404002658518
 30
0.0
 10
-61.7621105007823417
 20
161.8186894002658391
 30
0.0
  0
SPLINE
  5
96
100
AcDbEntity
  8
MAGENTA
 62
1
420
16711680
370
-1
 48
1.0
  6
BYLAYER
100
AcDbSpline
 70
8
 71
3
 72
8
 73
4
 74
0
 40
0.0
 40
0.0
 40
0.0
 40
0.0
 40
1.0
 40
1.0
 40
1.0
 40
1.0
 10
-293.2621105007823417
 20
161.8186894002658391
 30
0.0
 10
-292.7980105007823681
 20
161.5507404002658518
 30
0.0
 10
-292.2262115007823695
 20
161.5507404002658518
 30
0.0
 10
-291.7621105007823417
 20
161.8186894002658391
 30
0.0
  0
SPLINE
  5
97
100
AcDbEntity
  8
MAGENTA
 62
1
420
16711680
370
-1
 48
1.0
  6
BYLAYER
100
AcDbSpline
 70
8
 71
3
 72
8
 73
4
 74
0
 40
0.0
 40
0.0
 40
0.0
 40
0.0
 40
1.0
 40
1.0
 40
1.0
 40
1.0
 10
-183.1993981270408653
 20
334.578717715594621
 30
0.0
 10
-182.7352981270408634
 20
334.3107687155946337
 30
0.0
 10
-182.1634991270408648
 20
334.3107687155946337
 30
0.0
 10
-181.6993981270408653
 20
334.578717715594621
 30
0.0
  0
SPLINE
  5
98
100
AcDbEntity
  8
MAGENTA
 62
1
420
16711680
370
-1
 48
1.0
  6
BYLAYER
100
AcDbSpline
 70
8
 71
3
 72
8
 73
4
 74
0
 40
0.0
 40
0.0
 40
0.0
 40
0.0
 40
1.0
 40
1.0
 40
1.0
 40
1.0
 10
-63.1993981270408653
 20
334.578717715594621
 30
0.0
 10
-62.7352981270408634
 20
334.3107687155946337
 30
0.0
 10
-62.1634991270408648
 20
334.3107687155946337
 30
0.0
 10
-61.6993981270408653
 20
334.578717715594621
 30
0.0
  0
SPLINE
  5
99
100
AcDbEntity
  8
MAGENTA
 62
1
420
16711680
370
-1
 48
1.0
  6
BYLAYER
100
AcDbSpline
 70
8
 71
3
 72
8
 73
4
 74
0
 40
0.0
 40
0.0
 40
0.0
 40
0.0
 40
1.0
 40
1.0
 40
1.0
 40
1.0
 10
-293.1993981270408653
 20
334.578717715594621
 30
0.0
 10
-292.7352981270408918
 20
334.3107687155946337
 30
0.0
 10
-292.1634991270408932
 20
334.3107687155946337
 30
0.0
 10
-291.6993981270408653
 20
334.578717715594621
 30
0.0
  0
SPLINE
  5
9A
100
AcDbEntity
  8
MAGENTA
 62
1
420
16711680
370
-1
 48
1.0
  6
BYLAYER
100
AcDbSpline
 70
8
 71
3
 72
8
 73
4
 74
0
 40
0.0
 40
0.0
 40
0.0
 40
0.0
 40
1.0
 40
1.0
 40
1.0
 40
1.0
 10
-98.2652407686594529
 20
334.8637316664616606
 30
0.0
 10
-97.8011407686594509
 20
334.5957826664616732
 30
0.0
 10
-97.2293417686594523
 20
334.5957826664616732
 30
0.0
 10
-96.7652407686594529
 20
334.8637316664616606
 30
0.0
  0
SPLINE
  5
9B
100
AcDbEntity
  8
MAGENTA
 62
1
420
16711680
370
-1
 48
1.0
  6
BYLAYER
100
AcDbSpline
 70
8
 71
3
 72
8
 73
4
 74
0
 40
0.0
 40
0.0
 40
0.0
 40
0.0
 40
1.0
 40
1.0
 40
1.0
 40
1.0
 10
21.7347592313405471
 20
334.8637316664616606
 30
0.0
 10
22.1988592313405491
 20
334.5957826664616732
 30
0.0
 10
22.7706582313405477
 20
334.5957826664616732
 30
0.0
 10
23.2347592313405471
 20
334.8637316664616606
 30
0.0
  0
SPLINE
  5
9C
100
AcDbEntity
  8
MAGENTA
 62
1
420
16711680
370
-1
 48
1.0
  6
BYLAYER
100
AcDbSpline
 70
8
 71
3
 72
8
 73
4
 74
0
 40
0.0
 40
0.0
 40
0.0
 40
0.0
 40
1.0
 40
1.0
 40
1.0
 40
1.0
 10
-208.2652407686594529
 20
334.8637316664616606
 30
0.0
 10
-207.8011407686594509
 20
334.5957826664616732
 30
0.0
 10
-207.2293417686594523
 20
334.5957826664616732
 30
0.0
 10
-206.7652407686594529
 20
334.8637316664616606
 30
0.0
  0
SPLINE
  5
9D
100
AcDbEntity
  8
MAGENTA
 62
1
420
16711680
370
-1
 48
1.0
  6
BYLAYER
100
AcDbSpline
 70
8
 71
3
 72
8
 73
4
 74
0
 40
0.0
 40
0.0
 40
0.0
 40
0.0
 40
1.0
 40
1.0
 40
1.0
 40
1.0
 10
124.3127123737414479
 20
335.460990315328786
 30
0.0
 10
124.7768123737414498
 20
335.1930413153287986
 30
0.0
 10
125.3486113737414485
 20
335.1930413153287986
 30
0.0
 10
125.8127123737414479
 20
335.460990315328786
 30
0.0
  0
SPLINE
  5
9E
100
AcDbEntity
  8
MAGENTA
 62
1
420
16711680
370
-1
 48
1.0
  6
BYLAYER
100
AcDbSpline
 70
8
 71
3
 72
8
 73
4
 74
0
 40
0.0
 40
0.0
 40
0.0
 40
0.0
 40
1.0
 40
1.0
 40
1.0
 40
1.0
 10
209.2468697321228603
 20
335.7460042661958255
 30
0.0
 10
209.7109697321228623
 20
335.4780552661958382
 30
0.0
 10
210.2827687321228609
 20
335.4780552661958382
 30
0.0
 10
210.7468697321228603
 20
335.7460042661958255
 30
0.0
  0
SPLINE
  5
9F
100
AcDbEntity
  8
MAGENTA
 62
1
420
16711680
370
-1
 48
1.0
  6
BYLAYER
100
AcDbSpline
 70
8
 71
3
 72
8
 73
4
 74
0
 40
0.0
 40
0.0
 40
0.0
 40
0.0
 40
1.0
 40
1.0
 40
1.0
 40
1.0
 10
210.1792111116951958
 20
260.7198506092047978
 30
0.0
 10
210.6433111116951977
 20
260.4519016092048105
 30
0.0
 10
211.2151101116951963
 20
260.4519016092048105
 30
0.0
 10
211.6792111116951958
 20
260.7198506092047978
 30
0.0
  0
SPLINE
  5
A0
100
AcDbEntity
  8
MAGENTA
 62
1
420
16711680
370
-1
 48
1.0
  6
BYLAYER
100
AcDbSpline
 70
8
 71
3
 72
8
 73
4
 74
0
 40
0.0
 40
0.0
 40
0.0
 40
0.0
 40
1.0
 40
1.0
 40
1.0
 40
1.0
 10
210.7499999999999716
 20
162.7009620000000041
 30
0.0
 10
211.2141029999999944
 20
162.9689110000000198
 30
0.0
 10
211.5000009999999975
 20
163.4641019999999969
 30
0.0
 10
211.5000009999999975
 20
164.0
 30
0.0
  0
SPLINE
  5
A1
100
AcDbEntity
  8
MAGENTA
 62
1
420
16711680
370
-1
 48
1.0
  6
BYLAYER
100
AcDbSpline
 70
8
 71
3
 72
8
 73
4
 74
0
 40
0.0
 40
0.0
 40
0.0
 40
0.0
 40
1.0
 40
1.0
 40
1.0
 40
1.0
 10
125.7499999999999716
 20
162.7009620000000041
 30
0.0
 10
126.2141029999999944
 20
162.9689110000000198
 30
0.0
 10
126.5000009999999975
 20
163.4641019999999969
 30
0.0
 10
126.5000009999999975
 20
164.0
 30
0.0
  0
SPLINE
  5
A2
100
AcDbEntity
  8
MAGENTA
 62
1
420
16711680
370
-1
 48
1.0
  6
BYLAYER
100
AcDbSpline
 70
8
 71
3
 72
8
 73
4
 74
0
 40
0.0
 40
0.0
 40
0.0
 40
0.0
 40
1.0
 40
1.0
 40
1.0
 40
1.0
 10
-95.8328993890871175
 20
259.8375780094706329
 30
0.0
 10
-95.3687963890870947
 20
260.1055270094706202
 30
0.0
 10
-95.0828983890870916
 20
260.6007180094705973
 30
0.0
 10
-95.0828983890870916
 20
261.1366160094706288
 30
0.0
  0
SPLINE
  5
A3
100
AcDbEntity
  8
MAGENTA
 62
1
420
16711680
370
-1
 48
1.0
  6
BYLAYER
100
AcDbSpline
 70
8
 71
3
 72
8
 73
4
 74
0
 40
0.0
 40
0.0
 40
0.0
 40
0.0
 40
1.0
 40
1.0
 40
1.0
 40
1.0
 10
24.1671006109128825
 20
259.8375780094706329
 30
0.0
 10
24.6312036109129053
 20
260.1055270094706202
 30
0.0
 10
24.9171016109129084
 20
260.6007180094705973
 30
0.0
 10
24.9171016109129084
 20
261.1366160094706288
 30
0.0
  0
SPLINE
  5
A4
100
AcDbEntity
  8
MAGENTA
 62
1
420
16711680
370
-1
 48
1.0
  6
BYLAYER
100
AcDbSpline
 70
8
 71
3
 72
8
 73
4
 74
0
 40
0.0
 40
0.0
 40
0.0
 40
0.0
 40
1.0
 40
1.0
 40
1.0
 40
1.0
 10
-205.8328993890871175
 20
259.8375780094706329
 30
0.0
 10
-205.3687963890870947
 20
260.1055270094706202
 30
0.0
 10
-205.0828983890870916
 20
260.6007180094705973
 30
0.0
 10
-205.0828983890870916
 20
261.1366160094706288
 30
0.0
  0
SPLINE
  5
A5
100
AcDbEntity
  8
MAGENTA
 62
1
420
16711680
370
-1
 48
1.0
  6
BYLAYER
100
AcDbSpline
 70
8
 71
3
 72
8
 73
4
 74
0
 40
0.0
 40
0.0
 40
0.0
 40
0.0
 40
1.0
 40
1.0
 40
1.0
 40
1.0
 10
-96.7621105007823417
 20
161.8186894002658391
 30
0.0
 10
-96.2980075007823189
 20
162.0866384002658549
 30
0.0
 10
-96.0121095007823158
 20
162.581829400265832
 30
0.0
 10
-96.0121095007823158
 20
163.1177274002658351
 30
0.0
  0
SPLINE
  5
A6
100
AcDbEntity
  8
MAGENTA
 62
1
420
16711680
370
-1
 48
1.0
  6
BYLAYER
100
AcDbSpline
 70
8
 71
3
 72
8
 73
4
 74
0
 40
0.0
 40
0.0
 40
0.0
 40
0.0
 40
1.0
 40
1.0
 40
1.0
 40
1.0
 10
23.2378894992176583
 20
161.8186894002658391
 30
0.0
 10
23.7019924992176811
 20
162.0866384002658549
 30
0.0
 10
23.9878904992176842
 20
162.581829400265832
 30
0.0
 10
23.9878904992176842
 20
163.1177274002658351
 30
0.0
  0
SPLINE
  5
A7
100
AcDbEntity
  8
MAGENTA
 62
1
420
16711680
370
-1
 48
1.0
  6
BYLAYER
100
AcDbSpline
 70
8
 71
3
 72
8
 73
4
 74
0
 40
0.0
 40
0.0
 40
0.0
 40
0.0
 40
1.0
 40
1.0
 40
1.0
 40
1.0
 10
-206.7621105007823417
 20
161.8186894002658391
 30
0.0
 10
-206.2980075007823189
 20
162.0866384002658549
 30
0.0
 10
-206.0121095007823158
 20
162.581829400265832
 30
0.0
 10
-206.0121095007823158
 20
163.1177274002658351
 30
0.0
  0
SPLINE
  5
A8
100
AcDbEntity
  8
MAGENTA
 62
1
420
16711680
370
-1
 48
1.0
  6
BYLAYER
100
AcDbSpline
 70
8
 71
3
 72
8
 73
4
 74
0
 40
0.0
 40
0.0
 40
0.0
 40
0.0
 40
1.0
 40
1.0
 40
1.0
 40
1.0
 10
-181.7621105007823417
 20
161.8186894002658391
 30
0.0
 10
-181.2980075007823189
 20
162.0866384002658549
 30
0.0
 10
-181.0121095007823158
 20
162.581829400265832
 30
0.0
 10
-181.0121095007823158
 20
163.1177274002658351
 30
0.0
  0
SPLINE
  5
A9
100
AcDbEntity
  8
MAGENTA
 62
1
420
16711680
370
-1
 48
1.0
  6
BYLAYER
100
AcDbSpline
 70
8
 71
3
 72
8
 73
4
 74
0
 40
0.0
 40
0.0
 40
0.0
 40
0.0
 40
1.0
 40
1.0
 40
1.0
 40
1.0
 10
-61.7621105007823417
 20
161.8186894002658391
 30
0.0
 10
-61.2980075007823189
 20
162.0866384002658549
 30
0.0
 10
-61.0121095007823158
 20
162.581829400265832
 30
0.0
 10
-61.0121095007823158
 20
163.1177274002658351
 30
0.0
  0
SPLINE
  5
AA
100
AcDbEntity
  8
MAGENTA
 62
1
420
16711680
370
-1
 48
1.0
  6
BYLAYER
100
AcDbSpline
 70
8
 71
3
 72
8
 73
4
 74
0
 40
0.0
 40
0.0
 40
0.0
 40
0.0
 40
1.0
 40
1.0
 40
1.0
 40
1.0
 10
-291.7621105007823417
 20
161.8186894002658391
 30
0.0
 10
-291.2980075007823189
 20
162.0866384002658549
 30
0.0
 10
-291.0121095007823442
 20
162.581829400265832
 30
0.0
 10
-291.0121095007823442
 20
163.1177274002658351
 30
0.0
  0
SPLINE
  5
AB
100
AcDbEntity
  8
MAGENTA
 62
1
420
16711680
370
-1
 48
1.0
  6
BYLAYER
100
AcDbSpline
 70
8
 71
3
 72
8
 73
4
 74
0
 40
0.0
 40
0.0
 40
0.0
 40
0.0
 40
1.0
 40
1.0
 40
1.0
 40
1.0
 10
-181.6993981270408653
 20
334.578717715594621
 30
0.0
 10
-181.2352951270408425
 20
334.8466667155946084
 30
0.0
 10
-180.9493971270408395
 20
335.3418577155945854
 30
0.0
 10
-180.9493971270408395
 20
335.877755715594617
 30
0.0
  0
SPLINE
  5
AC
100
AcDbEntity
  8
MAGENTA
 62
1
420
16711680
370
-1
 48
1.0
  6
BYLAYER
100
AcDbSpline
 70
8
 71
3
 72
8
 73
4
 74
0
 40
0.0
 40
0.0
 40
0.0
 40
0.0
 40
1.0
 40
1.0
 40
1.0
 40
1.0
 10
-61.6993981270408653
 20
334.578717715594621
 30
0.0
 10
-61.2352951270408425
 20
334.8466667155946084
 30
0.0
 10
-60.9493971270408395
 20
335.3418577155945854
 30
0.0
 10
-60.9493971270408395
 20
335.877755715594617
 30
0.0
  0
SPLINE
  5
AD
100
AcDbEntity
  8
MAGENTA
 62
1
420
16711680
370
-1
 48
1.0
  6
BYLAYER
100
AcDbSpline
 70
8
 71
3
 72
8
 73
4
 74
0
 40
0.0
 40
0.0
 40
0.0
 40
0.0
 40
1.0
 40
1.0
 40
1.0
 40
1.0
 10
-291.6993981270408653
 20
334.578717715594621
 30
0.0
 10
-291.2352951270408425
 20
334.8466667155946084
 30
0.0
 10
-290.9493971270408679
 20
335.3418577155945854
 30
0.0
 10
-290.9493971270408679
 20
335.877755715594617
 30
0.0
  0
SPLINE
  5
AE
100
AcDbEntity
  8
MAGENTA
 62
1
420
16711680
370
-1
 48
1.0
  6
BYLAYER
100
AcDbSpline
 70
8
 71
3
 72
8
 73
4
 74
0
 40
0.0
 40
0.0
 40
0.0
 40
0.0
 40
1.0
 40
1.0
 40
1.0
 40
1.0
 10
-96.7652407686594529
 20
334.8637316664616606
 30
0.0
 10
-96.3011377686594301
 20
335.1316806664616479
 30
0.0
 10
-96.015239768659427
 20
335.626871666461625
 30
0.0
 10
-96.015239768659427
 20
336.1627696664616565
 30
0.0
  0
SPLINE
  5
AF
100
AcDbEntity
  8
MAGENTA
 62
1
420
16711680
370
-1
 48
1.0
  6
BYLAYER
100
AcDbSpline
 70
8
 71
3
 72
8
 73
4
 74
0
 40
0.0
 40
0.0
 40
0.0
 40
0.0
 40
1.0
 40
1.0
 40
1.0
 40
1.0
 10
23.2347592313405471
 20
334.8637316664616606
 30
0.0
 10
23.6988622313405699
 20
335.1316806664616479
 30
0.0
 10
23.984760231340573
 20
335.626871666461625
 30
0.0
 10
23.984760231340573
 20
336.1627696664616565
 30
0.0
  0
SPLINE
  5
B0
100
AcDbEntity
  8
MAGENTA
 62
1
420
16711680
370
-1
 48
1.0
  6
BYLAYER
100
AcDbSpline
 70
8
 71
3
 72
8
 73
4
 74
0
 40
0.0
 40
0.0
 40
0.0
 40
0.0
 40
1.0
 40
1.0
 40
1.0
 40
1.0
 10
-206.7652407686594529
 20
334.8637316664616606
 30
0.0
 10
-206.3011377686594301
 20
335.1316806664616479
 30
0.0
 10
-206.015239768659427
 20
335.626871666461625
 30
0.0
 10
-206.015239768659427
 20
336.1627696664616565
 30
0.0
  0
SPLINE
  5
B1
100
AcDbEntity
  8
MAGENTA
 62
1
420
16711680
370
-1
 48
1.0
  6
BYLAYER
100
AcDbSpline
 70
8
 71
3
 72
8
 73
4
 74
0
 40
0.0
 40
0.0
 40
0.0
 40
0.0
 40
1.0
 40
1.0
 40
1.0
 40
1.0
 10
125.8127123737414479
 20
335.460990315328786
 30
0.0
 10
126.2768153737414707
 20
335.7289393153287733
 30
0.0
 10
126.5627133737414738
 20
336.2241303153287504
 30
0.0
 10
126.5627133737414738
 20
336.7600283153287819
 30
0.0
  0
SPLINE
  5
B2
100
AcDbEntity
  8
MAGENTA
 62
1
420
16711680
370
-1
 48
1.0
  6
BYLAYER
100
AcDbSpline
 70
8
 71
3
 72
8
 73
4
 74
0
 40
0.0
 40
0.0
 40
0.0
 40
0.0
 40
1.0
 40
1.0
 40
1.0
 40
1.0
 10
210.7468697321228603
 20
335.7460042661958255
 30
0.0
 10
211.2109727321228831
 20
336.0139532661958128
 30
0.0
 10
211.4968707321228862
 20
336.5091442661957899
 30
0.0
 10
211.4968707321228862
 20
337.0450422661958214
 30
0.0
  0
SPLINE
  5
B3
100
AcDbEntity
  8
MAGENTA
 62
1
420
16711680
370
-1
 48
1.0
  6
BYLAYER
100
AcDbSpline
 70
8
 71
3
 72
8
 73
4
 74
0
 40
0.0
 40
0.0
 40
0.0
 40
0.0
 40
1.0
 40
1.0
 40
1.0
 40
1.0
 10
211.6792111116951958
 20
260.7198506092047978
 30
0.0
 10
212.1433141116952186
 20
260.9877996092047852
 30
0.0
 10
212.4292121116952217
 20
261.4829906092047622
 30
0.0
 10
212.4292121116952217
 20
262.0188886092047937
 30
0.0
  0
SPLINE
  5
B4
100
AcDbEntity
  8
MAGENTA
 62
1
420
16711680
370
-1
 48
1.0
  6
BYLAYER
100
AcDbSpline
 70
8
 71
3
 72
8
 73
4
 74
0
 40
0.0
 40
0.0
 40
0.0
 40
0.0
 40
1.0
 40
1.0
 40
1.0
 40
1.0
 10
126.5000004999999987
 20
262.0000000000000568
 30
0.0
 10
126.5000004999999987
 20
262.535897000000034
 30
0.0
 10
126.2141024999999956
 20
263.0310890000000654
 30
0.0
 10
125.7499994999999728
 20
263.2990380000000528
 30
0.0
  0
SPLINE
  5
B5
100
AcDbEntity
  8
MAGENTA
 62
1
420
16711680
370
-1
 48
1.0
  6
BYLAYER
100
AcDbSpline
 70
8
 71
3
 72
8
 73
4
 74
0
 40
0.0
 40
0.0
 40
0.0
 40
0.0
 40
1.0
 40
1.0
 40
1.0
 40
1.0
 10
-181.0121100007823145
 20
261.1177274002658919
 30
0.0
 10
-181.0121100007823145
 20
261.6536244002658691
 30
0.0
 10
-181.2980080007823176
 20
262.1488164002659005
 30
0.0
 10
-181.7621110007823404
 20
262.4167654002658878
 30
0.0
  0
SPLINE
  5
B6
100
AcDbEntity
  8
MAGENTA
 62
1
420
16711680
370
-1
 48
1.0
  6
BYLAYER
100
AcDbSpline
 70
8
 71
3
 72
8
 73
4
 74
0
 40
0.0
 40
0.0
 40
0.0
 40
0.0
 40
1.0
 40
1.0
 40
1.0
 40
1.0
 10
-61.0121100007823145
 20
261.1177274002658919
 30
0.0
 10
-61.0121100007823145
 20
261.6536244002658691
 30
0.0
 10
-61.2980080007823176
 20
262.1488164002659005
 30
0.0
 10
-61.7621110007823404
 20
262.4167654002658878
 30
0.0
  0
SPLINE
  5
B7
100
AcDbEntity
  8
MAGENTA
 62
1
420
16711680
370
-1
 48
1.0
  6
BYLAYER
100
AcDbSpline
 70
8
 71
3
 72
8
 73
4
 74
0
 40
0.0
 40
0.0
 40
0.0
 40
0.0
 40
1.0
 40
1.0
 40
1.0
 40
1.0
 10
-291.0121100007823429
 20
261.1177274002658919
 30
0.0
 10
-291.0121100007823429
 20
261.6536244002658691
 30
0.0
 10
-291.2980080007823176
 20
262.1488164002659005
 30
0.0
 10
-291.7621110007823404
 20
262.4167654002658878
 30
0.0
  0
SPLINE
  5
B8
100
AcDbEntity
  8
MAGENTA
 62
1
420
16711680
370
-1
 48
1.0
  6
BYLAYER
100
AcDbSpline
 70
8
 71
3
 72
8
 73
4
 74
0
 40
0.0
 40
0.0
 40
0.0
 40
0.0
 40
1.0
 40
1.0
 40
1.0
 40
1.0
 10
125.7499994999999728
 20
263.2990380000000528
 30
0.0
 10
125.2858994999999993
 20
263.5669870000000401
 30
0.0
 10
124.7141004999999723
 20
263.5669870000000401
 30
0.0
 10
124.2500004999999987
 20
263.2990380000000528
 30
0.0
  0
SPLINE
  5
B9
100
AcDbEntity
  8
MAGENTA
 62
1
420
16711680
370
-1
 48
1.0
  6
BYLAYER
100
AcDbSpline
 70
8
 71
3
 72
8
 73
4
 74
0
 40
0.0
 40
0.0
 40
0.0
 40
0.0
 40
1.0
 40
1.0
 40
1.0
 40
1.0
 10
-181.7621110007823404
 20
262.4167654002658878
 30
0.0
 10
-182.2262110007823139
 20
262.6847144002658752
 30
0.0
 10
-182.798010000782341
 20
262.6847144002658752
 30
0.0
 10
-183.2621100007823145
 20
262.4167654002658878
 30
0.0
  0
SPLINE
  5
BA
100
AcDbEntity
  8
MAGENTA
 62
1
420
16711680
370
-1
 48
1.0
  6
BYLAYER
100
AcDbSpline
 70
8
 71
3
 72
8
 73
4
 74
0
 40
0.0
 40
0.0
 40
0.0
 40
0.0
 40
1.0
 40
1.0
 40
1.0
 40
1.0
 10
-61.7621110007823404
 20
262.4167654002658878
 30
0.0
 10
-62.2262110007823139
 20
262.6847144002658752
 30
0.0
 10
-62.798010000782341
 20
262.6847144002658752
 30
0.0
 10
-63.2621100007823145
 20
262.4167654002658878
 30
0.0
  0
SPLINE
  5
BB
100
AcDbEntity
  8
MAGENTA
 62
1
420
16711680
370
-1
 48
1.0
  6
BYLAYER
100
AcDbSpline
 70
8
 71
3
 72
8
 73
4
 74
0
 40
0.0
 40
0.0
 40
0.0
 40
0.0
 40
1.0
 40
1.0
 40
1.0
 40
1.0
 10
-291.7621110007823404
 20
262.4167654002658878
 30
0.0
 10
-292.2262110007823139
 20
262.6847144002658752
 30
0.0
 10
-292.7980100007823694
 20
262.6847144002658752
 30
0.0
 10
-293.2621100007823429
 20
262.4167654002658878
 30
0.0
  0
SPLINE
  5
BC
100
AcDbEntity
  8
MAGENTA
 62
1
420
16711680
370
-1
 48
1.0
  6
BYLAYER
100
AcDbSpline
 70
8
 71
3
 72
8
 73
4
 74
0
 40
0.0
 40
0.0
 40
0.0
 40
0.0
 40
1.0
 40
1.0
 40
1.0
 40
1.0
 10
124.2500004999999987
 20
263.2990380000000528
 30
0.0
 10
123.7858974999999901
 20
263.0310890000000654
 30
0.0
 10
123.4999994999999871
 20
262.535897000000034
 30
0.0
 10
123.4999994999999871
 20
262.0000000000000568
 30
0.0
  0
SPLINE
  5
BD
100
AcDbEntity
  8
MAGENTA
 62
1
420
16711680
370
-1
 48
1.0
  6
BYLAYER
100
AcDbSpline
 70
8
 71
3
 72
8
 73
4
 74
0
 40
0.0
 40
0.0
 40
0.0
 40
0.0
 40
1.0
 40
1.0
 40
1.0
 40
1.0
 10
-183.2621100007823145
 20
262.4167654002658878
 30
0.0
 10
-183.7262130007823373
 20
262.1488164002659005
 30
0.0
 10
-184.0121110007823404
 20
261.6536244002658691
 30
0.0
 10
-184.0121110007823404
 20
261.1177274002658919
 30
0.0
  0
SPLINE
  5
BE
100
AcDbEntity
  8
MAGENTA
 62
1
420
16711680
370
-1
 48
1.0
  6
BYLAYER
100
AcDbSpline
 70
8
 71
3
 72
8
 73
4
 74
0
 40
0.0
 40
0.0
 40
0.0
 40
0.0
 40
1.0
 40
1.0
 40
1.0
 40
1.0
 10
-63.2621100007823145
 20
262.4167654002658878
 30
0.0
 10
-63.7262130007823231
 20
262.1488164002659005
 30
0.0
 10
-64.0121110007823262
 20
261.6536244002658691
 30
0.0
 10
-64.0121110007823262
 20
261.1177274002658919
 30
0.0
  0
SPLINE
  5
BF
100
AcDbEntity
  8
MAGENTA
 62
1
420
16711680
370
-1
 48
1.0
  6
BYLAYER
100
AcDbSpline
 70
8
 71
3
 72
8
 73
4
 74
0
 40
0.0
 40
0.0
 40
0.0
 40
0.0
 40
1.0
 40
1.0
 40
1.0
 40
1.0
 10
-293.2621100007823429
 20
262.4167654002658878
 30
0.0
 10
-293.7262130007823089
 20
262.1488164002659005
 30
0.0
 10
-294.0121110007823404
 20
261.6536244002658691
 30
0.0
 10
-294.0121110007823404
 20
261.1177274002658919
 30
0.0
  0
SPLINE
  5
C0
100
AcDbEntity
  8
MAGENTA
 62
1
420
16711680
370
-1
 48
1.0
  6
BYLAYER
100
AcDbSpline
 70
8
 71
3
 72
8
 73
4
 74
0
 40
0.0
 40
0.0
 40
0.0
 40
0.0
 40
1.0
 40
1.0
 40
1.0
 40
1.0
 10
123.4999994999999871
 20
262.0000000000000568
 30
0.0
 10
123.4999994999999871
 20
261.4641020000000253
 30
0.0
 10
123.7858974999999901
 20
260.9689110000000483
 30
0.0
 10
124.2500004999999987
 20
260.7009620000000609
 30
0.0
  0
SPLINE
  5
C1
100
AcDbEntity
  8
MAGENTA
 62
1
420
16711680
370
-1
 48
1.0
  6
BYLAYER
100
AcDbSpline
 70
8
 71
3
 72
8
 73
4
 74
0
 40
0.0
 40
0.0
 40
0.0
 40
0.0
 40
1.0
 40
1.0
 40
1.0
 40
1.0
 10
-184.0121110007823404
 20
261.1177274002658919
 30
0.0
 10
-184.0121110007823404
 20
260.5818294002658604
 30
0.0
 10
-183.7262130007823373
 20
260.0866384002658833
 30
0.0
 10
-183.2621100007823145
 20
259.818689400265896
 30
0.0
  0
SPLINE
  5
C2
100
AcDbEntity
  8
MAGENTA
 62
1
420
16711680
370
-1
 48
1.0
  6
BYLAYER
100
AcDbSpline
 70
8
 71
3
 72
8
 73
4
 74
0
 40
0.0
 40
0.0
 40
0.0
 40
0.0
 40
1.0
 40
1.0
 40
1.0
 40
1.0
 10
-64.0121110007823262
 20
261.1177274002658919
 30
0.0
 10
-64.0121110007823262
 20
260.5818294002658604
 30
0.0
 10
-63.7262130007823231
 20
260.0866384002658833
 30
0.0
 10
-63.2621100007823145
 20
259.818689400265896
 30
0.0
  0
SPLINE
  5
C3
100
AcDbEntity
  8
MAGENTA
 62
1
420
16711680
370
-1
 48
1.0
  6
BYLAYER
100
AcDbSpline
 70
8
 71
3
 72
8
 73
4
 74
0
 40
0.0
 40
0.0
 40
0.0
 40
0.0
 40
1.0
 40
1.0
 40
1.0
 40
1.0
 10
-294.0121110007823404
 20
261.1177274002658919
 30
0.0
 10
-294.0121110007823404
 20
260.5818294002658604
 30
0.0
 10
-293.7262130007823089
 20
260.0866384002658833
 30
0.0
 10
-293.2621100007823429
 20
259.818689400265896
 30
0.0
  0
SPLINE
  5
C4
100
AcDbEntity
  8
MAGENTA
 62
1
420
16711680
370
-1
 48
1.0
  6
BYLAYER
100
AcDbSpline
 70
8
 71
3
 72
8
 73
4
 74
0
 40
0.0
 40
0.0
 40
0.0
 40
0.0
 40
1.0
 40
1.0
 40
1.0
 40
1.0
 10
124.2500004999999987
 20
260.7009620000000609
 30
0.0
 10
124.7141004999999723
 20
260.4330130000000167
 30
0.0
 10
125.2858994999999993
 20
260.4330130000000167
 30
0.0
 10
125.7499994999999728
 20
260.7009620000000609
 30
0.0
  0
SPLINE
  5
C5
100
AcDbEntity
  8
MAGENTA
 62
1
420
16711680
370
-1
 48
1.0
  6
BYLAYER
100
AcDbSpline
 70
8
 71
3
 72
8
 73
4
 74
0
 40
0.0
 40
0.0
 40
0.0
 40
0.0
 40
1.0
 40
1.0
 40
1.0
 40
1.0
 10
-183.2621100007823145
 20
259.818689400265896
 30
0.0
 10
-182.798010000782341
 20
259.5507404002658518
 30
0.0
 10
-182.2262110007823139
 20
259.5507404002658518
 30
0.0
 10
-181.7621110007823404
 20
259.818689400265896
 30
0.0
  0
SPLINE
  5
C6
100
AcDbEntity
  8
MAGENTA
 62
1
420
16711680
370
-1
 48
1.0
  6
BYLAYER
100
AcDbSpline
 70
8
 71
3
 72
8
 73
4
 74
0
 40
0.0
 40
0.0
 40
0.0
 40
0.0
 40
1.0
 40
1.0
 40
1.0
 40
1.0
 10
-63.2621100007823145
 20
259.818689400265896
 30
0.0
 10
-62.798010000782341
 20
259.5507404002658518
 30
0.0
 10
-62.2262110007823139
 20
259.5507404002658518
 30
0.0
 10
-61.7621110007823404
 20
259.818689400265896
 30
0.0
  0
SPLINE
  5
C7
100
AcDbEntity
  8
MAGENTA
 62
1
420
16711680
370
-1
 48
1.0
  6
BYLAYER
100
AcDbSpline
 70
8
 71
3
 72
8
 73
4
 74
0
 40
0.0
 40
0.0
 40
0.0
 40
0.0
 40
1.0
 40
1.0
 40
1.0
 40
1.0
 10
-293.2621100007823429
 20
259.818689400265896
 30
0.0
 10
-292.7980100007823694
 20
259.5507404002658518
 30
0.0
 10
-292.2262110007823139
 20
259.5507404002658518
 30
0.0
 10
-291.7621110007823404
 20
259.818689400265896
 30
0.0
  0
SPLINE
  5
C8
100
AcDbEntity
  8
MAGENTA
 62
1
420
16711680
370
-1
 48
1.0
  6
BYLAYER
100
AcDbSpline
 70
8
 71
3
 72
8
 73
4
 74
0
 40
0.0
 40
0.0
 40
0.0
 40
0.0
 40
1.0
 40
1.0
 40
1.0
 40
1.0
 10
125.7499994999999728
 20
260.7009620000000609
 30
0.0
 10
126.2141024999999956
 20
260.9689110000000483
 30
0.0
 10
126.5000004999999987
 20
261.4641020000000253
 30
0.0
 10
126.5000004999999987
 20
262.0000000000000568
 30
0.0
  0
SPLINE
  5
C9
100
AcDbEntity
  8
MAGENTA
 62
1
420
16711680
370
-1
 48
1.0
  6
BYLAYER
100
AcDbSpline
 70
8
 71
3
 72
8
 73
4
 74
0
 40
0.0
 40
0.0
 40
0.0
 40
0.0
 40
1.0
 40
1.0
 40
1.0
 40
1.0
 10
-181.7621110007823404
 20
259.818689400265896
 30
0.0
 10
-181.2980080007823176
 20
260.0866384002658833
 30
0.0
 10
-181.0121100007823145
 20
260.5818294002658604
 30
0.0
 10
-181.0121100007823145
 20
261.1177274002658919
 30
0.0
  0
SPLINE
  5
CA
100
AcDbEntity
  8
MAGENTA
 62
1
420
16711680
370
-1
 48
1.0
  6
BYLAYER
100
AcDbSpline
 70
8
 71
3
 72
8
 73
4
 74
0
 40
0.0
 40
0.0
 40
0.0
 40
0.0
 40
1.0
 40
1.0
 40
1.0
 40
1.0
 10
-61.7621110007823404
 20
259.818689400265896
 30
0.0
 10
-61.2980080007823176
 20
260.0866384002658833
 30
0.0
 10
-61.0121100007823145
 20
260.5818294002658604
 30
0.0
 10
-61.0121100007823145
 20
261.1177274002658919
 30
0.0
  0
SPLINE
  5
CB
100
AcDbEntity
  8
MAGENTA
 62
1
420
16711680
370
-1
 48
1.0
  6
BYLAYER
100
AcDbSpline
 70
8
 71
3
 72
8
 73
4
 74
0
 40
0.0
 40
0.0
 40
0.0
 40
0.0
 40
1.0
 40
1.0
 40
1.0
 40
1.0
 10
-291.7621110007823404
 20
259.818689400265896
 30
0.0
 10
-291.2980080007823176
 20
260.0866384002658833
 30
0.0
 10
-291.0121100007823429
 20
260.5818294002658604
 30
0.0
 10
-291.0121100007823429
 20
261.1177274002658919
 30
0.0
  0
LINE
  5
CC
100
AcDbEntity
  8
0
 62
256
370
-1
 48
1.0
  6
BYLAYER
100
AcDbLine
 10
121.0307930289921785
 20
160.2543765598031769
 30
0.0
 11
121.0307930289921785
 21
341.510168639665153
 31
0.0
  0
LINE
  5
CD
100
AcDbEntity
  8
0
 62
256
370
-1
 48
1.0
  6
BYLAYER
100
AcDbLine
 10
-186.4813174717901347
 20
159.3721039600690119
 30
0.0
 11
-186.4813174717901347
 21
340.6278960399309881
 31
0.0
  0
LINE
  5
CE
100
AcDbEntity
  8
0
 62
256
370
-1
 48
1.0
  6
BYLAYER
100
AcDbLine
 10
-66.4813174717901347
 20
159.3721039600690119
 30
0.0
 11
-66.4813174717901347
 21
340.6278960399309881
 31
0.0
  0
LINE
  5
CF
100
AcDbEntity
  8
0
 62
256
370
-1
 48
1.0
  6
BYLAYER
100
AcDbLine
 10
-296.4813174717901347
 20
159.3721039600690119
 30
0.0
 11
-296.4813174717901347
 21
340.6278960399309881
 31
0.0
  0
LINE
  5
D0
100
AcDbEntity
  8
0
 62
256
370
-1
 48
1.0
  6
BYLAYER
100
AcDbLine
 10
213.993427972572448
 20
160.2543765598031769
 30
0.0
 11
213.9934279725724764
 21
341.510168639665153
 31
0.0
  0
LINE
  5
D1
100
AcDbEntity
  8
0
 62
256
370
-1
 48
1.0
  6
BYLAYER
100
AcDbLine
 10
-93.5186825282098653
 20
159.3721039600690119
 30
0.0
 11
-93.5186825282098368
 21
340.6278960399309881
 31
0.0
  0
LINE
  5
D2
100
AcDbEntity
  8
0
 62
256
370
-1
 48
1.0
  6
BYLAYER
100
AcDbLine
 10
26.4813174717901347
 20
159.3721039600690119
 30
0.0
 11
26.4813174717901632
 21
340.6278960399309881
 31
0.0
  0
LINE
  5
D3
100
AcDbEntity
  8
0
 62
256
370
-1
 48
1.0
  6
BYLAYER
100
AcDbLine
 10
-203.5186825282098653
 20
159.3721039600690119
 30
0.0
 11
-203.5186825282098368
 21
340.6278960399309881
 31
0.0
  0
LINE
  5
D4
100
AcDbEntity
  8
0
 62
256
370
-1
 48
1.0
  6
BYLAYER
100
AcDbLine
 10
121.0307930289921643
 20
160.2543765598031769
 30
0.0
 11
213.993427972572448
 21
160.2543765598031769
 31
0.0
  0
LINE
  5
D5
100
AcDbEntity
  8
0
 62
256
370
-1
 48
1.0
  6
BYLAYER
100
AcDbLine
 10
-186.4813174717901632
 20
159.3721039600690119
 30
0.0
 11
-93.5186825282098653
 21
159.3721039600690119
 31
0.0
  0
LINE
  5
D6
100
AcDbEntity
  8
0
 62
256
370
-1
 48
1.0
  6
BYLAYER
100
AcDbLine
 10
-66.4813174717901489
 20
159.3721039600690119
 30
0.0
 11
26.4813174717901347
 21
159.3721039600690119
 31
0.0
  0
LINE
  5
D7
100
AcDbEntity
  8
0
 62
256
370
-1
 48
1.0
  6
BYLAYER
100
AcDbLine
 10
-296.4813174717901347
 20
159.3721039600690119
 30
0.0
 11
-203.5186825282098653
 21
159.3721039600690119
 31
0.0
  0
LINE
  5
D8
100
AcDbEntity
  8
0
 62
256
370
-1
 48
1.0
  6
BYLAYER
100
AcDbLine
 10
-186.4813174717901347
 20
340.6278960399309881
 30
0.0
 11
-126.3462891019487131
 21
340.6278960399309881
 31
0.0
  0
LINE
  5
D9
100
AcDbEntity
  8
0
 62
256
370
-1
 48
1.0
  6
BYLAYER
100
AcDbLine
 10
-66.4813174717901347
 20
340.6278960399309881
 30
0.0
 11
-6.3462891019486989
 21
340.6278960399309881
 31
0.0
  0
LINE
  5
DA
100
AcDbEntity
  8
0
 62
256
370
-1
 48
1.0
  6
BYLAYER
100
AcDbLine
 10
-296.4813174717901347
 20
340.6278960399309881
 30
0.0
 11
-236.3462891019487131
 21
340.6278960399309881
 31
0.0
  0
LINE
  5
DB
100
AcDbEntity
  8
0
 62
256
370
-1
 48
1.0
  6
BYLAYER
100
AcDbLine
 10
121.0307930289921785
 20
341.510168639665153
 30
0.0
 11
213.9934279725724764
 21
341.510168639665153
 31
0.0
  0
LINE
  5
DC
100
AcDbEntity
  8
0
 62
256
370
-1
 48
1.0
  6
BYLAYER
100
AcDbLine
 10
-178.4742110246500602
 20
168.0931537363050552
 30
0.0
 11
-101.7653398888105016
 21
168.1327055796967898
 31
0.0
  0
LINE
  5
DD
100
AcDbEntity
  8
0
 62
256
370
-1
 48
1.0
  6
BYLAYER
100
AcDbLine
 10
-58.4742110246500459
 20
168.0931537363050552
 30
0.0
 11
18.2346601111894984
 21
168.1327055796967898
 31
0.0
  0
LINE
  5
DE
100
AcDbEntity
  8
0
 62
256
370
-1
 48
1.0
  6
BYLAYER
100
AcDbLine
 10
-178.4742110246500602
 20
168.0931537363050552
 30
0.0
 11
-178.4742110246500602
 21
332.5558846701033531
 31
0.0
  0
LINE
  5
DF
100
AcDbEntity
  8
0
 62
256
370
-1
 48
1.0
  6
BYLAYER
100
AcDbLine
 10
-58.4742110246500459
 20
168.0931537363050552
 30
0.0
 11
-58.4742110246500388
 21
332.5558846701033531
 31
0.0
  0
LINE
  5
E0
100
AcDbEntity
  8
0
 62
256
370
-1
 48
1.0
  6
BYLAYER
100
AcDbLine
 10
-101.7653398888105016
 20
168.1327055796967898
 30
0.0
 11
-101.7653398888105016
 21
332.5558846701034099
 31
0.0
  0
LINE
  5
E1
100
AcDbEntity
  8
0
 62
256
370
-1
 48
1.0
  6
BYLAYER
100
AcDbLine
 10
18.2346601111894984
 20
168.1327055796967898
 30
0.0
 11
18.2346601111895055
 21
332.5558846701034099
 31
0.0
  0
LINE
  5
E2
100
AcDbEntity
  8
0
 62
256
370
-1
 48
1.0
  6
BYLAYER
100
AcDbLine
 10
-178.4742110246500602
 20
332.5558846701033531
 30
0.0
 11
-126.3462891019487131
 21
332.5558846701033531
 31
0.0
  0
LINE
  5
E3
100
AcDbEntity
  8
0
 62
256
370
-1
 48
1.0
  6
BYLAYER
100
AcDbLine
 10
-58.4742110246500459
 20
332.5558846701033531
 30
0.0
 11
18.2346601111895055
 21
332.5558846701034099
 31
0.0
  0
LINE
  5
E4
100
AcDbEntity
  8
0
 62
256
370
-1
 48
1.0
  6
BYLAYER
100
AcDbLine
 10
-116.2850327345354344
 20
332.5558846701034099
 30
0.0
 11
-116.2850327345354344
 21
340.6278960399309881
 31
0.0
  0
LINE
  5
E5
100
AcDbEntity
  8
0
 62
256
370
-1
 48
1.0
  6
BYLAYER
100
AcDbLine
 10
-126.3462891019487131
 20
332.5558846701034099
 30
0.0
 11
-126.3462891019487131
 21
340.6278960399309881
 31
0.0
  0
LINE
  5
E6
100
AcDbEntity
  8
0
 62
256
370
-1
 48
1.0
  6
BYLAYER
100
AcDbLine
 10
-116.2850327345354344
 20
332.5558846701034099
 30
0.0
 11
-101.7653398888105016
 21
332.5558846701034099
 31
0.0
  0
LINE
  5
E7
100
AcDbEntity
  8
0
 62
256
370
-1
 48
1.0
  6
BYLAYER
100
AcDbLine
 10
-116.2850327345354344
 20
340.6278960399309881
 30
0.0
 11
-93.5186825282098368
 21
340.6278960399309881
 31
0.0
  0
LINE
  5
E8
100
AcDbEntity
  8
0
 62
256
370
-1
 48
1.0
  6
BYLAYER
100
AcDbLine
 10
3.7149672654645802
 20
340.6278960399309881
 30
0.0
 11
26.4813174717901632
 21
340.6278960399309881
 31
0.0
  0
LINE
  5
E9
100
AcDbEntity
  8
0
 62
256
370
-1
 48
1.0
  6
BYLAYER
100
AcDbLine
 10
-226.2850327345354344
 20
340.6278960399309881
 30
0.0
 11
-203.5186825282098368
 21
340.6278960399309881
 31
0.0
  0
LINE
  5
EA
100
AcDbEntity
  8
0
 62
256
370
-1
 48
1.0
  6
BYLAYER
100
AcDbLine
 10
-6.3462891019486989
 20
340.6278960399309312
 30
0.0
 11
3.7149672654645793
 21
340.6278960399309881
 31
0.0
  0
LINE
  5
EB
100
AcDbEntity
  8
0
 62
256
370
-1
 48
1.0
  6
BYLAYER
100
AcDbLine
 10
-236.3462891019487131
 20
340.6278960399309312
 30
0.0
 11
-226.2850327345354344
 21
340.6278960399309881
 31
0.0
  0
LINE
  5
EC
100
AcDbEntity
  8
0
 62
256
370
-1
 48
1.0
  6
BYLAYER
100
AcDbLine
 10
201.2270777662468788
 20
330.4381572698375749
 30
0.0
 11
201.2270777662468788
 21
323.4381572698375749
 31
0.0
  0
LINE
  5
ED
100
AcDbEntity
  8
0
 62
256
370
-1
 48
1.0
  6
BYLAYER
100
AcDbLine
 10
194.2270777662468788
 20
330.4381572698375749
 30
0.0
 11
194.2270777662468788
 21
323.4381572698375749
 31
0.0
  0
LINE
  5
EE
100
AcDbEntity
  8
0
 62
256
370
-1
 48
1.0
  6
BYLAYER
100
AcDbLine
 10
194.2270777662468788
 20
323.4381572698375749
 30
0.0
 11
201.2270777662468788
 21
323.4381572698375749
 31
0.0
  0
LINE
  5
EF
100
AcDbEntity
  8
0
 62
256
370
-1
 48
1.0
  6
BYLAYER
100
AcDbLine
 10
194.2270777662468788
 20
330.4381572698375749
 30
0.0
 11
201.2270777662468788
 21
330.4381572698375749
 31
0.0
  0
LINE
  5
F0
100
AcDbEntity
  8
0
 62
256
370
-1
 48
1.0
  6
BYLAYER
100
AcDbLine
 10
171.1425779999999861
 20
205.1856459999999913
 30
0.0
 11
185.112577999999985
 21
205.1856459999999913
 31
0.0
  0
LINE
  5
F1
100
AcDbEntity
  8
0
 62
256
370
-1
 48
1.0
  6
BYLAYER
100
AcDbLine
 10
171.1425779999999861
 20
191.215645999999964
 30
0.0
 11
185.112577999999985
 21
191.215645999999964
 31
0.0
  0
LINE
  5
F2
100
AcDbEntity
  8
0
 62
256
370
-1
 48
1.0
  6
BYLAYER
100
AcDbLine
 10
132.8009309999999914
 20
205.2652750000000026
 30
0.0
 11
146.7709309999999903
 21
205.2652750000000026
 31
0.0
  0
LINE
  5
F3
100
AcDbEntity
  8
0
 62
256
370
-1
 48
1.0
  6
BYLAYER
100
AcDbLine
 10
132.8009309999999914
 20
191.2952750000000037
 30
0.0
 11
146.7709309999999903
 21
191.2952750000000037
 31
0.0
  0
LINE
  5
F4
100
AcDbEntity
  8
0
 62
256
370
-1
 48
1.0
  6
BYLAYER
100
AcDbLine
 10
171.1425779999999861
 20
186.4531460000000038
 30
0.0
 11
185.112577999999985
 21
186.4531460000000038
 31
0.0
  0
LINE
  5
F5
100
AcDbEntity
  8
0
 62
256
370
-1
 48
1.0
  6
BYLAYER
100
AcDbLine
 10
171.1425779999999861
 20
172.483146000000005
 30
0.0
 11
185.112577999999985
 21
172.483146000000005
 31
0.0
  0
LINE
  5
F6
100
AcDbEntity
  8
0
 62
256
370
-1
 48
1.0
  6
BYLAYER
100
AcDbLine
 10
142.9203579999999931
 20
186.5488960000000134
 30
0.0
 11
156.890357999999992
 21
186.5488960000000134
 31
0.0
  0
LINE
  5
F7
100
AcDbEntity
  8
0
 62
256
370
-1
 48
1.0
  6
BYLAYER
100
AcDbLine
 10
142.9203579999999931
 20
172.5788960000000145
 30
0.0
 11
156.890357999999992
 21
172.5788960000000145
 31
0.0
  0
LINE
  5
F8
100
AcDbEntity
  8
0
 62
256
370
-1
 48
1.0
  6
BYLAYER
100
AcDbLine
 10
152.0925780000000032
 20
205.1856459999999913
 30
0.0
 11
166.062578000000002
 21
205.1856459999999913
 31
0.0
  0
LINE
  5
F9
100
AcDbEntity
  8
0
 62
256
370
-1
 48
1.0
  6
BYLAYER
100
AcDbLine
 10
152.0925780000000032
 20
191.215645999999964
 30
0.0
 11
166.062578000000002
 21
191.215645999999964
 31
0.0
  0
LINE
  5
FA
100
AcDbEntity
  8
0
 62
256
370
-1
 48
1.0
  6
BYLAYER
100
AcDbLine
 10
188.9372119999999882
 20
195.9592499999999973
 30
0.0
 11
202.907211999999987
 21
195.9592499999999973
 31
0.0
  0
LINE
  5
FB
100
AcDbEntity
  8
0
 62
256
370
-1
 48
1.0
  6
BYLAYER
100
AcDbLine
 10
188.9372119999999882
 20
181.9892500000000268
 30
0.0
 11
202.907211999999987
 21
181.9892500000000268
 31
0.0
  0
LINE
  5
FC
100
AcDbEntity
  8
0
 62
256
370
-1
 48
1.0
  6
BYLAYER
100
AcDbLine
 10
171.1425779999999861
 20
223.5723250000000064
 30
0.0
 11
185.112577999999985
 21
223.5723250000000064
 31
0.0
  0
LINE
  5
FD
100
AcDbEntity
  8
0
 62
256
370
-1
 48
1.0
  6
BYLAYER
100
AcDbLine
 10
171.1425779999999861
 20
209.6023250000000075
 30
0.0
 11
185.112577999999985
 21
209.6023250000000075
 31
0.0
  0
LINE
  5
FE
100
AcDbEntity
  8
0
 62
256
370
-1
 48
1.0
  6
BYLAYER
100
AcDbLine
 10
171.1425779999999861
 20
260.3456830000000082
 30
0.0
 11
185.112577999999985
 21
260.3456830000000082
 31
0.0
  0
LINE
  5
FF
100
AcDbEntity
  8
0
 62
256
370
-1
 48
1.0
  6
BYLAYER
100
AcDbLine
 10
171.1425779999999861
 20
246.3756830000000093
 30
0.0
 11
185.112577999999985
 21
246.3756830000000093
 31
0.0
  0
LINE
  5
100
100
AcDbEntity
  8
0
 62
256
370
-1
 48
1.0
  6
BYLAYER
100
AcDbLine
 10
189.6278780000000097
 20
260.1746249999999918
 30
0.0
 11
203.5978780000000086
 21
260.1746249999999918
 31
0.0
  0
LINE
  5
101
100
AcDbEntity
  8
0
 62
256
370
-1
 48
1.0
  6
BYLAYER
100
AcDbLine
 10
189.6278780000000097
 20
246.204624999999993
 30
0.0
 11
203.5978780000000086
 21
246.204624999999993
 31
0.0
  0
LINE
  5
102
100
AcDbEntity
  8
0
 62
256
370
-1
 48
1.0
  6
BYLAYER
100
AcDbLine
 10
152.0925780000000032
 20
260.3456830000000082
 30
0.0
 11
166.062578000000002
 21
260.3456830000000082
 31
0.0
  0
LINE
  5
103
100
AcDbEntity
  8
0
 62
256
370
-1
 48
1.0
  6
BYLAYER
100
AcDbLine
 10
152.0925780000000032
 20
246.3756829999999809
 30
0.0
 11
166.062578000000002
 21
246.3756829999999809
 31
0.0
  0
LINE
  5
104
100
AcDbEntity
  8
0
 62
256
370
-1
 48
1.0
  6
BYLAYER
100
AcDbLine
 10
132.8009309999999914
 20
242.0386330000000044
 30
0.0
 11
146.7709309999999903
 21
242.0386330000000044
 31
0.0
  0
LINE
  5
105
100
AcDbEntity
  8
0
 62
256
370
-1
 48
1.0
  6
BYLAYER
100
AcDbLine
 10
132.8009309999999914
 20
228.0686330000000339
 30
0.0
 11
146.7709309999999903
 21
228.0686330000000339
 31
0.0
  0
LINE
  5
106
100
AcDbEntity
  8
0
 62
256
370
-1
 48
1.0
  6
BYLAYER
100
AcDbLine
 10
132.8009309999999914
 20
260.4253120000000195
 30
0.0
 11
146.7709309999999903
 21
260.4253120000000195
 31
0.0
  0
LINE
  5
107
100
AcDbEntity
  8
0
 62
256
370
-1
 48
1.0
  6
BYLAYER
100
AcDbLine
 10
132.8009309999999914
 20
246.4553119999999922
 30
0.0
 11
146.7709309999999903
 21
246.4553119999999922
 31
0.0
  0
LINE
  5
108
100
AcDbEntity
  8
0
 62
256
370
-1
 48
1.0
  6
BYLAYER
100
AcDbLine
 10
152.0925780000000032
 20
223.5723250000000064
 30
0.0
 11
166.062578000000002
 21
223.5723250000000064
 31
0.0
  0
LINE
  5
109
100
AcDbEntity
  8
0
 62
256
370
-1
 48
1.0
  6
BYLAYER
100
AcDbLine
 10
152.0925780000000032
 20
209.6023250000000075
 30
0.0
 11
166.062578000000002
 21
209.6023250000000075
 31
0.0
  0
LINE
  5
10A
100
AcDbEntity
  8
0
 62
256
370
-1
 48
1.0
  6
BYLAYER
100
AcDbLine
 10
132.8009309999999914
 20
223.6519539999999893
 30
0.0
 11
146.7709309999999903
 21
223.6519539999999893
 31
0.0
  0
LINE
  5
10B
100
AcDbEntity
  8
0
 62
256
370
-1
 48
1.0
  6
BYLAYER
100
AcDbLine
 10
132.8009309999999914
 20
209.6819539999999904
 30
0.0
 11
146.7709309999999903
 21
209.6819539999999904
 31
0.0
  0
LINE
  5
10C
100
AcDbEntity
  8
0
 62
256
370
-1
 48
1.0
  6
BYLAYER
100
AcDbLine
 10
189.2158530000000098
 20
232.5255870000000016
 30
0.0
 11
203.1858530000000087
 21
232.5255870000000016
 31
0.0
  0
LINE
  5
10D
100
AcDbEntity
  8
0
 62
256
370
-1
 48
1.0
  6
BYLAYER
100
AcDbLine
 10
189.2158530000000098
 20
218.5555870000000027
 30
0.0
 11
203.1858530000000087
 21
218.5555870000000027
 31
0.0
  0
LINE
  5
10E
100
AcDbEntity
  8
0
 62
256
370
-1
 48
1.0
  6
BYLAYER
100
AcDbLine
 10
152.8737959114196201
 20
242.2098073180248434
 30
0.0
 11
166.843795911419619
 21
242.2098073180248434
 31
0.0
  0
LINE
  5
10F
100
AcDbEntity
  8
0
 62
256
370
-1
 48
1.0
  6
BYLAYER
100
AcDbLine
 10
152.8737959114196201
 20
228.2398073180248446
 30
0.0
 11
166.843795911419619
 21
228.2398073180248446
 31
0.0
  0
LINE
  5
110
100
AcDbEntity
  8
0
 62
256
370
-1
 48
1.0
  6
BYLAYER
100
AcDbLine
 10
171.1425779999999861
 20
241.9590039999999931
 30
0.0
 11
185.112577999999985
 21
241.9590039999999931
 31
0.0
  0
LINE
  5
111
100
AcDbEntity
  8
0
 62
256
370
-1
 48
1.0
  6
BYLAYER
100
AcDbLine
 10
171.1425779999999861
 20
227.9890039999999942
 30
0.0
 11
185.112577999999985
 21
227.9890039999999942
 31
0.0
  0
LINE
  5
112
100
AcDbEntity
  8
0
 62
256
370
-1
 48
1.0
  6
BYLAYER
100
AcDbLine
 10
185.112577999999985
 20
191.2156460000000209
 30
0.0
 11
185.112577999999985
 21
205.1856459999999913
 31
0.0
  0
LINE
  5
113
100
AcDbEntity
  8
0
 62
256
370
-1
 48
1.0
  6
BYLAYER
100
AcDbLine
 10
171.1425779999999861
 20
191.215645999999964
 30
0.0
 11
171.1425779999999861
 21
205.1856459999999913
 31
0.0
  0
LINE
  5
114
100
AcDbEntity
  8
0
 62
256
370
-1
 48
1.0
  6
BYLAYER
100
AcDbLine
 10
146.7709309999999903
 20
191.2952750000000322
 30
0.0
 11
146.7709309999999903
 21
205.2652750000000026
 31
0.0
  0
LINE
  5
115
100
AcDbEntity
  8
0
 62
256
370
-1
 48
1.0
  6
BYLAYER
100
AcDbLine
 10
132.8009309999999914
 20
191.2952750000000037
 30
0.0
 11
132.8009309999999914
 21
205.2652749999999742
 31
0.0
  0
LINE
  5
116
100
AcDbEntity
  8
0
 62
256
370
-1
 48
1.0
  6
BYLAYER
100
AcDbLine
 10
185.112577999999985
 20
172.4831460000000334
 30
0.0
 11
185.112577999999985
 21
186.4531460000000038
 31
0.0
  0
LINE
  5
117
100
AcDbEntity
  8
0
 62
256
370
-1
 48
1.0
  6
BYLAYER
100
AcDbLine
 10
171.1425779999999861
 20
172.483146000000005
 30
0.0
 11
171.1425779999999861
 21
186.4531459999999754
 31
0.0
  0
LINE
  5
118
100
AcDbEntity
  8
0
 62
256
370
-1
 48
1.0
  6
BYLAYER
100
AcDbLine
 10
156.890357999999992
 20
172.5788960000000429
 30
0.0
 11
156.890357999999992
 21
186.5488960000000134
 31
0.0
  0
LINE
  5
119
100
AcDbEntity
  8
0
 62
256
370
-1
 48
1.0
  6
BYLAYER
100
AcDbLine
 10
142.9203579999999931
 20
172.5788960000000145
 30
0.0
 11
142.9203579999999931
 21
186.548895999999985
 31
0.0
  0
LINE
  5
11A
100
AcDbEntity
  8
0
 62
256
370
-1
 48
1.0
  6
BYLAYER
100
AcDbLine
 10
166.062578000000002
 20
191.2156459999999925
 30
0.0
 11
166.062578000000002
 21
205.1856459999999913
 31
0.0
  0
LINE
  5
11B
100
AcDbEntity
  8
0
 62
256
370
-1
 48
1.0
  6
BYLAYER
100
AcDbLine
 10
152.0925780000000032
 20
191.215645999999964
 30
0.0
 11
152.0925780000000032
 21
205.1856459999999345
 31
0.0
  0
LINE
  5
11C
100
AcDbEntity
  8
0
 62
256
370
-1
 48
1.0
  6
BYLAYER
100
AcDbLine
 10
202.907211999999987
 20
181.9892500000000268
 30
0.0
 11
202.907211999999987
 21
195.9592499999999973
 31
0.0
  0
LINE
  5
11D
100
AcDbEntity
  8
0
 62
256
370
-1
 48
1.0
  6
BYLAYER
100
AcDbLine
 10
188.9372119999999882
 20
181.9892500000000268
 30
0.0
 11
188.9372119999999882
 21
195.9592499999999404
 31
0.0
  0
LINE
  5
11E
100
AcDbEntity
  8
0
 62
256
370
-1
 48
1.0
  6
BYLAYER
100
AcDbLine
 10
185.112577999999985
 20
209.602325000000036
 30
0.0
 11
185.112577999999985
 21
223.5723250000000064
 31
0.0
  0
LINE
  5
11F
100
AcDbEntity
  8
0
 62
256
370
-1
 48
1.0
  6
BYLAYER
100
AcDbLine
 10
171.1425779999999861
 20
209.6023250000000075
 30
0.0
 11
171.1425779999999861
 21
223.572324999999978
 31
0.0
  0
LINE
  5
120
100
AcDbEntity
  8
0
 62
256
370
-1
 48
1.0
  6
BYLAYER
100
AcDbLine
 10
185.112577999999985
 20
246.3756830000000377
 30
0.0
 11
185.112577999999985
 21
260.3456830000000082
 31
0.0
  0
LINE
  5
121
100
AcDbEntity
  8
0
 62
256
370
-1
 48
1.0
  6
BYLAYER
100
AcDbLine
 10
171.1425779999999861
 20
246.3756830000000093
 30
0.0
 11
171.1425779999999861
 21
260.3456829999999513
 31
0.0
  0
LINE
  5
122
100
AcDbEntity
  8
0
 62
256
370
-1
 48
1.0
  6
BYLAYER
100
AcDbLine
 10
203.5978780000000086
 20
246.2046250000000214
 30
0.0
 11
203.5978780000000086
 21
260.1746249999999918
 31
0.0
  0
LINE
  5
123
100
AcDbEntity
  8
0
 62
256
370
-1
 48
1.0
  6
BYLAYER
100
AcDbLine
 10
189.6278780000000097
 20
246.204624999999993
 30
0.0
 11
189.6278780000000097
 21
260.1746249999999918
 31
0.0
  0
LINE
  5
124
100
AcDbEntity
  8
0
 62
256
370
-1
 48
1.0
  6
BYLAYER
100
AcDbLine
 10
166.062578000000002
 20
246.3756830000000377
 30
0.0
 11
166.062578000000002
 21
260.3456830000000082
 31
0.0
  0
LINE
  5
125
100
AcDbEntity
  8
0
 62
256
370
-1
 48
1.0
  6
BYLAYER
100
AcDbLine
 10
152.0925780000000032
 20
246.3756829999999809
 30
0.0
 11
152.0925780000000032
 21
260.3456830000000082
 31
0.0
  0
LINE
  5
126
100
AcDbEntity
  8
0
 62
256
370
-1
 48
1.0
  6
BYLAYER
100
AcDbLine
 10
146.7709309999999903
 20
228.0686330000000339
 30
0.0
 11
146.7709309999999903
 21
242.0386330000000044
 31
0.0
  0
LINE
  5
127
100
AcDbEntity
  8
0
 62
256
370
-1
 48
1.0
  6
BYLAYER
100
AcDbLine
 10
132.8009309999999914
 20
228.0686330000000339
 30
0.0
 11
132.8009309999999914
 21
242.0386329999999475
 31
0.0
  0
LINE
  5
128
100
AcDbEntity
  8
0
 62
256
370
-1
 48
1.0
  6
BYLAYER
100
AcDbLine
 10
146.7709309999999903
 20
246.455312000000049
 30
0.0
 11
146.7709309999999903
 21
260.4253120000000195
 31
0.0
  0
LINE
  5
129
100
AcDbEntity
  8
0
 62
256
370
-1
 48
1.0
  6
BYLAYER
100
AcDbLine
 10
132.8009309999999914
 20
246.4553119999999922
 30
0.0
 11
132.8009309999999914
 21
260.4253120000000195
 31
0.0
  0
LINE
  5
12A
100
AcDbEntity
  8
0
 62
256
370
-1
 48
1.0
  6
BYLAYER
100
AcDbLine
 10
166.062578000000002
 20
209.602325000000036
 30
0.0
 11
166.062578000000002
 21
223.5723250000000064
 31
0.0
  0
LINE
  5
12B
100
AcDbEntity
  8
0
 62
256
370
-1
 48
1.0
  6
BYLAYER
100
AcDbLine
 10
152.0925780000000032
 20
209.6023250000000075
 30
0.0
 11
152.0925780000000032
 21
223.572324999999978
 31
0.0
  0
LINE
  5
12C
100
AcDbEntity
  8
0
 62
256
370
-1
 48
1.0
  6
BYLAYER
100
AcDbLine
 10
146.7709309999999903
 20
209.6819540000000188
 30
0.0
 11
146.7709309999999903
 21
223.6519539999999893
 31
0.0
  0
LINE
  5
12D
100
AcDbEntity
  8
0
 62
256
370
-1
 48
1.0
  6
BYLAYER
100
AcDbLine
 10
132.8009309999999914
 20
209.6819539999999904
 30
0.0
 11
132.8009309999999914
 21
223.6519539999999608
 31
0.0
  0
LINE
  5
12E
100
AcDbEntity
  8
0
 62
256
370
-1
 48
1.0
  6
BYLAYER
100
AcDbLine
 10
203.1858530000000087
 20
218.5555870000000311
 30
0.0
 11
203.1858530000000087
 21
232.5255870000000016
 31
0.0
  0
LINE
  5
12F
100
AcDbEntity
  8
0
 62
256
370
-1
 48
1.0
  6
BYLAYER
100
AcDbLine
 10
189.2158530000000098
 20
218.5555870000000027
 30
0.0
 11
189.2158530000000098
 21
232.5255870000000016
 31
0.0
  0
LINE
  5
130
100
AcDbEntity
  8
0
 62
256
370
-1
 48
1.0
  6
BYLAYER
100
AcDbLine
 10
166.843795911419619
 20
228.239807318024873
 30
0.0
 11
166.843795911419619
 21
242.2098073180248434
 31
0.0
  0
LINE
  5
131
100
AcDbEntity
  8
0
 62
256
370
-1
 48
1.0
  6
BYLAYER
100
AcDbLine
 10
152.8737959114196201
 20
228.2398073180248446
 30
0.0
 11
152.8737959114196201
 21
242.209807318024815
 31
0.0
  0
LINE
  5
132
100
AcDbEntity
  8
0
 62
256
370
-1
 48
1.0
  6
BYLAYER
100
AcDbLine
 10
185.112577999999985
 20
227.9890040000000226
 30
0.0
 11
185.112577999999985
 21
241.9590039999999931
 31
0.0
  0
LINE
  5
133
100
AcDbEntity
  8
0
 62
256
370
-1
 48
1.0
  6
BYLAYER
100
AcDbLine
 10
171.1425779999999861
 20
227.9890039999999942
 30
0.0
 11
171.1425779999999861
 21
241.9590039999999647
 31
0.0
  0
ENDBLK
  5
134
100
AcDbEntity
  8
0
100
AcDbBlockEnd
  0
ENDSEC
  0
SECTION
  2
ENTITIES
  0
SPLINE
  5
135
100
AcDbEntity
  8
MAGENTA
 62
1
420
16711680
370
-1
 48
1.0
  6
BYLAYER
100
AcDbSpline
 70
8
 71
3
 72
8
 73
4
 74
0
 40
0.0
 40
0.0
 40
0.0
 40
0.0
 40
1.0
 40
1.0
 40
1.0
 40
1.0
 10
213.4292121116952217
 20
264.0188886092047937
 30
0.0
 10
213.4292121116952217
 20
264.5547866092048253
 30
0.0
 10
213.1433131116952211
 20
265.0499776092048023
 30
0.0
 10
212.6792111116951958
 20
265.3179266092047897
 30
0.0
  0
SPLINE
  5
136
100
AcDbEntity
  8
MAGENTA
 62
1
420
16711680
370
-1
 48
1.0
  6
BYLAYER
100
AcDbSpline
 70
8
 71
3
 72
8
 73
4
 74
0
 40
0.0
 40
0.0
 40
0.0
 40
0.0
 40
1.0
 40
1.0
 40
1.0
 40
1.0
 10
212.5000009999999975
 20
166.0
 30
0.0
 10
212.5000009999999975
 20
166.5358980000000031
 30
0.0
 10
212.2141019999999969
 20
167.0310890000000086
 30
0.0
 10
211.7499999999999716
 20
167.2990379999999959
 30
0.0
  0
SPLINE
  5
137
100
AcDbEntity
  8
MAGENTA
 62
1
420
16711680
370
-1
 48
1.0
  6
BYLAYER
100
AcDbSpline
 70
8
 71
3
 72
8
 73
4
 74
0
 40
0.0
 40
0.0
 40
0.0
 40
0.0
 40
1.0
 40
1.0
 40
1.0
 40
1.0
 10
127.5000009999999975
 20
166.0
 30
0.0
 10
127.5000009999999975
 20
166.5358980000000031
 30
0.0
 10
127.2141019999999969
 20
167.0310890000000086
 30
0.0
 10
126.7499999999999716
 20
167.2990379999999959
 30
0.0
  0
SPLINE
  5
138
100
AcDbEntity
  8
MAGENTA
 62
1
420
16711680
370
-1
 48
1.0
  6
BYLAYER
100
AcDbSpline
 70
8
 71
3
 72
8
 73
4
 74
0
 40
0.0
 40
0.0
 40
0.0
 40
0.0
 40
1.0
 40
1.0
 40
1.0
 40
1.0
 10
-205.015239768659427
 20
338.1627696664616565
 30
0.0
 10
-205.015239768659427
 20
338.698667666461688
 30
0.0
 10
-205.3011387686594276
 20
339.1938586664616651
 30
0.0
 10
-205.7652407686594529
 20
339.4618076664616524
 30
0.0
  0
SPLINE
  5
139
100
AcDbEntity
  8
MAGENTA
 62
1
420
16711680
370
-1
 48
1.0
  6
BYLAYER
100
AcDbSpline
 70
8
 71
3
 72
8
 73
4
 74
0
 40
0.0
 40
0.0
 40
0.0
 40
0.0
 40
1.0
 40
1.0
 40
1.0
 40
1.0
 10
-95.015239768659427
 20
338.1627696664616565
 30
0.0
 10
-95.015239768659427
 20
338.698667666461688
 30
0.0
 10
-95.3011387686594276
 20
339.1938586664616651
 30
0.0
 10
-95.7652407686594529
 20
339.4618076664616524
 30
0.0
  0
SPLINE
  5
13A
100
AcDbEntity
  8
MAGENTA
 62
1
420
16711680
370
-1
 48
1.0
  6
BYLAYER
100
AcDbSpline
 70
8
 71
3
 72
8
 73
4
 74
0
 40
0.0
 40
0.0
 40
0.0
 40
0.0
 40
1.0
 40
1.0
 40
1.0
 40
1.0
 10
24.984760231340573
 20
338.1627696664616565
 30
0.0
 10
24.984760231340573
 20
338.698667666461688
 30
0.0
 10
24.6988612313405724
 20
339.1938586664616651
 30
0.0
 10
24.2347592313405471
 20
339.4618076664616524
 30
0.0
  0
SPLINE
  5
13B
100
AcDbEntity
  8
MAGENTA
 62
1
420
16711680
370
-1
 48
1.0
  6
BYLAYER
100
AcDbSpline
 70
8
 71
3
 72
8
 73
4
 74
0
 40
0.0
 40
0.0
 40
0.0
 40
0.0
 40
1.0
 40
1.0
 40
1.0
 40
1.0
 10
-204.0828983890870916
 20
263.1366160094706288
 30
0.0
 10
-204.0828983890870916
 20
263.6725140094706603
 30
0.0
 10
-204.3687973890870921
 20
264.1677050094706374
 30
0.0
 10
-204.8328993890871175
 20
264.4356540094706247
 30
0.0
  0
SPLINE
  5
13C
100
AcDbEntity
  8
MAGENTA
 62
1
420
16711680
370
-1
 48
1.0
  6
BYLAYER
100
AcDbSpline
 70
8
 71
3
 72
8
 73
4
 74
0
 40
0.0
 40
0.0
 40
0.0
 40
0.0
 40
1.0
 40
1.0
 40
1.0
 40
1.0
 10
-94.0828983890870916
 20
263.1366160094706288
 30
0.0
 10
-94.0828983890870916
 20
263.6725140094706603
 30
0.0
 10
-94.3687973890870921
 20
264.1677050094706374
 30
0.0
 10
-94.8328993890871175
 20
264.4356540094706247
 30
0.0
  0
SPLINE
  5
13D
100
AcDbEntity
  8
MAGENTA
 62
1
420
16711680
370
-1
 48
1.0
  6
BYLAYER
100
AcDbSpline
 70
8
 71
3
 72
8
 73
4
 74
0
 40
0.0
 40
0.0
 40
0.0
 40
0.0
 40
1.0
 40
1.0
 40
1.0
 40
1.0
 10
25.9171016109129084
 20
263.1366160094706288
 30
0.0
 10
25.9171016109129084
 20
263.6725140094706603
 30
0.0
 10
25.6312026109129079
 20
264.1677050094706374
 30
0.0
 10
25.1671006109128825
 20
264.4356540094706247
 30
0.0
  0
SPLINE
  5
13E
100
AcDbEntity
  8
MAGENTA
 62
1
420
16711680
370
-1
 48
1.0
  6
BYLAYER
100
AcDbSpline
 70
8
 71
3
 72
8
 73
4
 74
0
 40
0.0
 40
0.0
 40
0.0
 40
0.0
 40
1.0
 40
1.0
 40
1.0
 40
1.0
 10
-205.0121095007823158
 20
165.1177274002658351
 30
0.0
 10
-205.0121095007823158
 20
165.6536254002658382
 30
0.0
 10
-205.2980085007823163
 20
166.1488164002658436
 30
0.0
 10
-205.7621105007823417
 20
166.416765400265831
 30
0.0
  0
SPLINE
  5
13F
100
AcDbEntity
  8
MAGENTA
 62
1
420
16711680
370
-1
 48
1.0
  6
BYLAYER
100
AcDbSpline
 70
8
 71
3
 72
8
 73
4
 74
0
 40
0.0
 40
0.0
 40
0.0
 40
0.0
 40
1.0
 40
1.0
 40
1.0
 40
1.0
 10
-95.0121095007823158
 20
165.1177274002658351
 30
0.0
 10
-95.0121095007823158
 20
165.6536254002658382
 30
0.0
 10
-95.2980085007823163
 20
166.1488164002658436
 30
0.0
 10
-95.7621105007823417
 20
166.416765400265831
 30
0.0
  0
SPLINE
  5
140
100
AcDbEntity
  8
MAGENTA
 62
1
420
16711680
370
-1
 48
1.0
  6
BYLAYER
100
AcDbSpline
 70
8
 71
3
 72
8
 73
4
 74
0
 40
0.0
 40
0.0
 40
0.0
 40
0.0
 40
1.0
 40
1.0
 40
1.0
 40
1.0
 10
24.9878904992176842
 20
165.1177274002658351
 30
0.0
 10
24.9878904992176842
 20
165.6536254002658382
 30
0.0
 10
24.7019914992176837
 20
166.1488164002658436
 30
0.0
 10
24.2378894992176583
 20
166.416765400265831
 30
0.0
  0
SPLINE
  5
141
100
AcDbEntity
  8
MAGENTA
 62
1
420
16711680
370
-1
 48
1.0
  6
BYLAYER
100
AcDbSpline
 70
8
 71
3
 72
8
 73
4
 74
0
 40
0.0
 40
0.0
 40
0.0
 40
0.0
 40
1.0
 40
1.0
 40
1.0
 40
1.0
 10
-290.0121095007823442
 20
165.1177274002658351
 30
0.0
 10
-290.0121095007823442
 20
165.6536254002658382
 30
0.0
 10
-290.2980085007823163
 20
166.1488164002658436
 30
0.0
 10
-290.7621105007823417
 20
166.416765400265831
 30
0.0
  0
SPLINE
  5
142
100
AcDbEntity
  8
MAGENTA
 62
1
420
16711680
370
-1
 48
1.0
  6
BYLAYER
100
AcDbSpline
 70
8
 71
3
 72
8
 73
4
 74
0
 40
0.0
 40
0.0
 40
0.0
 40
0.0
 40
1.0
 40
1.0
 40
1.0
 40
1.0
 10
-180.0121095007823158
 20
165.1177274002658351
 30
0.0
 10
-180.0121095007823158
 20
165.6536254002658382
 30
0.0
 10
-180.2980085007823163
 20
166.1488164002658436
 30
0.0
 10
-180.7621105007823417
 20
166.416765400265831
 30
0.0
  0
SPLINE
  5
143
100
AcDbEntity
  8
MAGENTA
 62
1
420
16711680
370
-1
 48
1.0
  6
BYLAYER
100
AcDbSpline
 70
8
 71
3
 72
8
 73
4
 74
0
 40
0.0
 40
0.0
 40
0.0
 40
0.0
 40
1.0
 40
1.0
 40
1.0
 40
1.0
 10
-60.0121095007823158
 20
165.1177274002658351
 30
0.0
 10
-60.0121095007823158
 20
165.6536254002658382
 30
0.0
 10
-60.2980085007823163
 20
166.1488164002658436
 30
0.0
 10
-60.7621105007823417
 20
166.416765400265831
 30
0.0
  0
SPLINE
  5
144
100
AcDbEntity
  8
MAGENTA
 62
1
420
16711680
370
-1
 48
1.0
  6
BYLAYER
100
AcDbSpline
 70
8
 71
3
 72
8
 73
4
 74
0
 40
0.0
 40
0.0
 40
0.0
 40
0.0
 40
1.0
 40
1.0
 40
1.0
 40
1.0
 10
-289.9493971270408679
 20
337.877755715594617
 30
0.0
 10
-289.9493971270408679
 20
338.4136537155946485
 30
0.0
 10
-290.23529612704084
 20
338.9088447155946255
 30
0.0
 10
-290.6993981270408653
 20
339.1767937155946129
 30
0.0
  0
SPLINE
  5
145
100
AcDbEntity
  8
MAGENTA
 62
1
420
16711680
370
-1
 48
1.0
  6
BYLAYER
100
AcDbSpline
 70
8
 71
3
 72
8
 73
4
 74
0
 40
0.0
 40
0.0
 40
0.0
 40
0.0
 40
1.0
 40
1.0
 40
1.0
 40
1.0
 10
-179.9493971270408395
 20
337.877755715594617
 30
0.0
 10
-179.9493971270408395
 20
338.4136537155946485
 30
0.0
 10
-180.23529612704084
 20
338.9088447155946255
 30
0.0
 10
-180.6993981270408653
 20
339.1767937155946129
 30
0.0
  0
SPLINE
  5
146
100
AcDbEntity
  8
MAGENTA
 62
1
420
16711680
370
-1
 48
1.0
  6
BYLAYER
100
AcDbSpline
 70
8
 71
3
 72
8
 73
4
 74
0
 40
0.0
 40
0.0
 40
0.0
 40
0.0
 40
1.0
 40
1.0
 40
1.0
 40
1.0
 10
-59.9493971270408395
 20
337.877755715594617
 30
0.0
 10
-59.9493971270408395
 20
338.4136537155946485
 30
0.0
 10
-60.23529612704084
 20
338.9088447155946255
 30
0.0
 10
-60.6993981270408653
 20
339.1767937155946129
 30
0.0
  0
SPLINE
  5
147
100
AcDbEntity
  8
MAGENTA
 62
1
420
16711680
370
-1
 48
1.0
  6
BYLAYER
100
AcDbSpline
 70
8
 71
3
 72
8
 73
4
 74
0
 40
0.0
 40
0.0
 40
0.0
 40
0.0
 40
1.0
 40
1.0
 40
1.0
 40
1.0
 10
127.5627133737414738
 20
338.7600283153287819
 30
0.0
 10
127.5627133737414738
 20
339.2959263153288134
 30
0.0
 10
127.2768143737414732
 20
339.7911173153287905
 30
0.0
 10
126.8127123737414479
 20
340.0590663153287778
 30
0.0
  0
SPLINE
  5
148
100
AcDbEntity
  8
MAGENTA
 62
1
420
16711680
370
-1
 48
1.0
  6
BYLAYER
100
AcDbSpline
 70
8
 71
3
 72
8
 73
4
 74
0
 40
0.0
 40
0.0
 40
0.0
 40
0.0
 40
1.0
 40
1.0
 40
1.0
 40
1.0
 10
212.4968707321228862
 20
339.0450422661958214
 30
0.0
 10
212.4968707321228862
 20
339.5809402661958529
 30
0.0
 10
212.2109717321228857
 20
340.07613126619583
 30
0.0
 10
211.7468697321228603
 20
340.3440802661958173
 30
0.0
  0
SPLINE
  5
149
100
AcDbEntity
  8
MAGENTA
 62
1
420
16711680
370
-1
 48
1.0
  6
BYLAYER
100
AcDbSpline
 70
8
 71
3
 72
8
 73
4
 74
0
 40
0.0
 40
0.0
 40
0.0
 40
0.0
 40
1.0
 40
1.0
 40
1.0
 40
1.0
 10
212.6792111116951958
 20
265.3179266092047897
 30
0.0
 10
212.2151101116951963
 20
265.585875609204777
 30
0.0
 10
211.6433111116951977
 20
265.585875609204777
 30
0.0
 10
211.1792111116951958
 20
265.3179266092047897
 30
0.0
  0
SPLINE
  5
14A
100
AcDbEntity
  8
MAGENTA
 62
1
420
16711680
370
-1
 48
1.0
  6
BYLAYER
100
AcDbSpline
 70
8
 71
3
 72
8
 73
4
 74
0
 40
0.0
 40
0.0
 40
0.0
 40
0.0
 40
1.0
 40
1.0
 40
1.0
 40
1.0
 10
211.7499999999999716
 20
167.2990379999999959
 30
0.0
 10
211.2858989999999721
 20
167.5669870000000117
 30
0.0
 10
210.7140999999999735
 20
167.5669870000000117
 30
0.0
 10
210.2499999999999716
 20
167.2990379999999959
 30
0.0
  0
SPLINE
  5
14B
100
AcDbEntity
  8
MAGENTA
 62
1
420
16711680
370
-1
 48
1.0
  6
BYLAYER
100
AcDbSpline
 70
8
 71
3
 72
8
 73
4
 74
0
 40
0.0
 40
0.0
 40
0.0
 40
0.0
 40
1.0
 40
1.0
 40
1.0
 40
1.0
 10
126.7499999999999716
 20
167.2990379999999959
 30
0.0
 10
126.2858989999999721
 20
167.5669870000000117
 30
0.0
 10
125.7140999999999735
 20
167.5669870000000117
 30
0.0
 10
125.2499999999999716
 20
167.2990379999999959
 30
0.0
  0
SPLINE
  5
14C
100
AcDbEntity
  8
MAGENTA
 62
1
420
16711680
370
-1
 48
1.0
  6
BYLAYER
100
AcDbSpline
 70
8
 71
3
 72
8
 73
4
 74
0
 40
0.0
 40
0.0
 40
0.0
 40
0.0
 40
1.0
 40
1.0
 40
1.0
 40
1.0
 10
-204.8328993890871175
 20
264.4356540094706247
 30
0.0
 10
-205.2970003890871169
 20
264.7036030094706121
 30
0.0
 10
-205.8687993890871155
 20
264.7036030094706121
 30
0.0
 10
-206.3328993890871175
 20
264.4356540094706247
 30
0.0
  0
SPLINE
  5
14D
100
AcDbEntity
  8
MAGENTA
 62
1
420
16711680
370
-1
 48
1.0
  6
BYLAYER
100
AcDbSpline
 70
8
 71
3
 72
8
 73
4
 74
0
 40
0.0
 40
0.0
 40
0.0
 40
0.0
 40
1.0
 40
1.0
 40
1.0
 40
1.0
 10
-94.8328993890871175
 20
264.4356540094706247
 30
0.0
 10
-95.2970003890871169
 20
264.7036030094706121
 30
0.0
 10
-95.8687993890871155
 20
264.7036030094706121
 30
0.0
 10
-96.3328993890871175
 20
264.4356540094706247
 30
0.0
  0
SPLINE
  5
14E
100
AcDbEntity
  8
MAGENTA
 62
1
420
16711680
370
-1
 48
1.0
  6
BYLAYER
100
AcDbSpline
 70
8
 71
3
 72
8
 73
4
 74
0
 40
0.0
 40
0.0
 40
0.0
 40
0.0
 40
1.0
 40
1.0
 40
1.0
 40
1.0
 10
25.1671006109128825
 20
264.4356540094706247
 30
0.0
 10
24.7029996109128831
 20
264.7036030094706121
 30
0.0
 10
24.1312006109128845
 20
264.7036030094706121
 30
0.0
 10
23.6671006109128825
 20
264.4356540094706247
 30
0.0
  0
SPLINE
  5
14F
100
AcDbEntity
  8
MAGENTA
 62
1
420
16711680
370
-1
 48
1.0
  6
BYLAYER
100
AcDbSpline
 70
8
 71
3
 72
8
 73
4
 74
0
 40
0.0
 40
0.0
 40
0.0
 40
0.0
 40
1.0
 40
1.0
 40
1.0
 40
1.0
 10
-205.7621105007823417
 20
166.416765400265831
 30
0.0
 10
-206.2262115007823411
 20
166.6847144002658467
 30
0.0
 10
-206.7980105007823397
 20
166.6847144002658467
 30
0.0
 10
-207.2621105007823417
 20
166.416765400265831
 30
0.0
  0
SPLINE
  5
150
100
AcDbEntity
  8
MAGENTA
 62
1
420
16711680
370
-1
 48
1.0
  6
BYLAYER
100
AcDbSpline
 70
8
 71
3
 72
8
 73
4
 74
0
 40
0.0
 40
0.0
 40
0.0
 40
0.0
 40
1.0
 40
1.0
 40
1.0
 40
1.0
 10
-95.7621105007823417
 20
166.416765400265831
 30
0.0
 10
-96.2262115007823411
 20
166.6847144002658467
 30
0.0
 10
-96.7980105007823397
 20
166.6847144002658467
 30
0.0
 10
-97.2621105007823417
 20
166.416765400265831
 30
0.0
  0
SPLINE
  5
151
100
AcDbEntity
  8
MAGENTA
 62
1
420
16711680
370
-1
 48
1.0
  6
BYLAYER
100
AcDbSpline
 70
8
 71
3
 72
8
 73
4
 74
0
 40
0.0
 40
0.0
 40
0.0
 40
0.0
 40
1.0
 40
1.0
 40
1.0
 40
1.0
 10
24.2378894992176583
 20
166.416765400265831
 30
0.0
 10
23.7737884992176589
 20
166.6847144002658467
 30
0.0
 10
23.2019894992176603
 20
166.6847144002658467
 30
0.0
 10
22.7378894992176583
 20
166.416765400265831
 30
0.0
  0
SPLINE
  5
152
100
AcDbEntity
  8
MAGENTA
 62
1
420
16711680
370
-1
 48
1.0
  6
BYLAYER
100
AcDbSpline
 70
8
 71
3
 72
8
 73
4
 74
0
 40
0.0
 40
0.0
 40
0.0
 40
0.0
 40
1.0
 40
1.0
 40
1.0
 40
1.0
 10
-180.7621105007823417
 20
166.416765400265831
 30
0.0
 10
-181.2262115007823411
 20
166.6847144002658467
 30
0.0
 10
-181.7980105007823397
 20
166.6847144002658467
 30
0.0
 10
-182.2621105007823417
 20
166.416765400265831
 30
0.0
  0
SPLINE
  5
153
100
AcDbEntity
  8
MAGENTA
 62
1
420
16711680
370
-1
 48
1.0
  6
BYLAYER
100
AcDbSpline
 70
8
 71
3
 72
8
 73
4
 74
0
 40
0.0
 40
0.0
 40
0.0
 40
0.0
 40
1.0
 40
1.0
 40
1.0
 40
1.0
 10
-60.7621105007823417
 20
166.416765400265831
 30
0.0
 10
-61.2262115007823411
 20
166.6847144002658467
 30
0.0
 10
-61.7980105007823397
 20
166.6847144002658467
 30
0.0
 10
-62.2621105007823417
 20
166.416765400265831
 30
0.0
  0
SPLINE
  5
154
100
AcDbEntity
  8
MAGENTA
 62
1
420
16711680
370
-1
 48
1.0
  6
BYLAYER
100
AcDbSpline
 70
8
 71
3
 72
8
 73
4
 74
0
 40
0.0
 40
0.0
 40
0.0
 40
0.0
 40
1.0
 40
1.0
 40
1.0
 40
1.0
 10
-290.7621105007823417
 20
166.416765400265831
 30
0.0
 10
-291.2262115007823695
 20
166.6847144002658467
 30
0.0
 10
-291.7980105007823681
 20
166.6847144002658467
 30
0.0
 10
-292.2621105007823417
 20
166.416765400265831
 30
0.0
  0
SPLINE
  5
155
100
AcDbEntity
  8
MAGENTA
 62
1
420
16711680
370
-1
 48
1.0
  6
BYLAYER
100
AcDbSpline
 70
8
 71
3
 72
8
 73
4
 74
0
 40
0.0
 40
0.0
 40
0.0
 40
0.0
 40
1.0
 40
1.0
 40
1.0
 40
1.0
 10
-180.6993981270408653
 20
339.1767937155946129
 30
0.0
 10
-181.1634991270408648
 20
339.4447427155946002
 30
0.0
 10
-181.7352981270408634
 20
339.4447427155946002
 30
0.0
 10
-182.1993981270408653
 20
339.1767937155946129
 30
0.0
  0
SPLINE
  5
156
100
AcDbEntity
  8
MAGENTA
 62
1
420
16711680
370
-1
 48
1.0
  6
BYLAYER
100
AcDbSpline
 70
8
 71
3
 72
8
 73
4
 74
0
 40
0.0
 40
0.0
 40
0.0
 40
0.0
 40
1.0
 40
1.0
 40
1.0
 40
1.0
 10
-60.6993981270408653
 20
339.1767937155946129
 30
0.0
 10
-61.1634991270408648
 20
339.4447427155946002
 30
0.0
 10
-61.7352981270408634
 20
339.4447427155946002
 30
0.0
 10
-62.1993981270408653
 20
339.1767937155946129
 30
0.0
  0
SPLINE
  5
157
100
AcDbEntity
  8
MAGENTA
 62
1
420
16711680
370
-1
 48
1.0
  6
BYLAYER
100
AcDbSpline
 70
8
 71
3
 72
8
 73
4
 74
0
 40
0.0
 40
0.0
 40
0.0
 40
0.0
 40
1.0
 40
1.0
 40
1.0
 40
1.0
 10
-290.6993981270408653
 20
339.1767937155946129
 30
0.0
 10
-291.1634991270408932
 20
339.4447427155946002
 30
0.0
 10
-291.7352981270408918
 20
339.4447427155946002
 30
0.0
 10
-292.1993981270408653
 20
339.1767937155946129
 30
0.0
  0
SPLINE
  5
158
100
AcDbEntity
  8
MAGENTA
 62
1
420
16711680
370
-1
 48
1.0
  6
BYLAYER
100
AcDbSpline
 70
8
 71
3
 72
8
 73
4
 74
0
 40
0.0
 40
0.0
 40
0.0
 40
0.0
 40
1.0
 40
1.0
 40
1.0
 40
1.0
 10
-95.7652407686594529
 20
339.4618076664616524
 30
0.0
 10
-96.2293417686594523
 20
339.7297566664616397
 30
0.0
 10
-96.8011407686594509
 20
339.7297566664616397
 30
0.0
 10
-97.2652407686594529
 20
339.4618076664616524
 30
0.0
  0
SPLINE
  5
159
100
AcDbEntity
  8
MAGENTA
 62
1
420
16711680
370
-1
 48
1.0
  6
BYLAYER
100
AcDbSpline
 70
8
 71
3
 72
8
 73
4
 74
0
 40
0.0
 40
0.0
 40
0.0
 40
0.0
 40
1.0
 40
1.0
 40
1.0
 40
1.0
 10
24.2347592313405471
 20
339.4618076664616524
 30
0.0
 10
23.7706582313405477
 20
339.7297566664616397
 30
0.0
 10
23.1988592313405491
 20
339.7297566664616397
 30
0.0
 10
22.7347592313405471
 20
339.4618076664616524
 30
0.0
  0
SPLINE
  5
15A
100
AcDbEntity
  8
MAGENTA
 62
1
420
16711680
370
-1
 48
1.0
  6
BYLAYER
100
AcDbSpline
 70
8
 71
3
 72
8
 73
4
 74
0
 40
0.0
 40
0.0
 40
0.0
 40
0.0
 40
1.0
 40
1.0
 40
1.0
 40
1.0
 10
-205.7652407686594529
 20
339.4618076664616524
 30
0.0
 10
-206.2293417686594523
 20
339.7297566664616397
 30
0.0
 10
-206.8011407686594509
 20
339.7297566664616397
 30
0.0
 10
-207.2652407686594529
 20
339.4618076664616524
 30
0.0
  0
SPLINE
  5
15B
100
AcDbEntity
  8
MAGENTA
 62
1
420
16711680
370
-1
 48
1.0
  6
BYLAYER
100
AcDbSpline
 70
8
 71
3
 72
8
 73
4
 74
0
 40
0.0
 40
0.0
 40
0.0
 40
0.0
 40
1.0
 40
1.0
 40
1.0
 40
1.0
 10
126.8127123737414479
 20
340.0590663153287778
 30
0.0
 10
126.3486113737414485
 20
340.3270153153287652
 30
0.0
 10
125.7768123737414498
 20
340.3270153153287652
 30
0.0
 10
125.3127123737414479
 20
340.0590663153287778
 30
0.0
  0
SPLINE
  5
15C
100
AcDbEntity
  8
MAGENTA
 62
1
420
16711680
370
-1
 48
1.0
  6
BYLAYER
100
AcDbSpline
 70
8
 71
3
 72
8
 73
4
 74
0
 40
0.0
 40
0.0
 40
0.0
 40
0.0
 40
1.0
 40
1.0
 40
1.0
 40
1.0
 10
211.7468697321228603
 20
340.3440802661958173
 30
0.0
 10
211.2827687321228609
 20
340.6120292661958047
 30
0.0
 10
210.7109697321228623
 20
340.6120292661958047
 30
0.0
 10
210.2468697321228603
 20
340.3440802661958173
 30
0.0
  0
SPLINE
  5
15D
100
AcDbEntity
  8
MAGENTA
 62
1
420
16711680
370
-1
 48
1.0
  6
BYLAYER
100
AcDbSpline
 70
8
 71
3
 72
8
 73
4
 74
0
 40
0.0
 40
0.0
 40
0.0
 40
0.0
 40
1.0
 40
1.0
 40
1.0
 40
1.0
 10
210.2499999999999716
 20
167.2990379999999959
 30
0.0
 10
209.7858969999999772
 20
167.0310890000000086
 30
0.0
 10
209.4999989999999741
 20
166.5358980000000031
 30
0.0
 10
209.4999989999999741
 20
166.0
 30
0.0
  0
SPLINE
  5
15E
100
AcDbEntity
  8
MAGENTA
 62
1
420
16711680
370
-1
 48
1.0
  6
BYLAYER
100
AcDbSpline
 70
8
 71
3
 72
8
 73
4
 74
0
 40
0.0
 40
0.0
 40
0.0
 40
0.0
 40
1.0
 40
1.0
 40
1.0
 40
1.0
 10
125.2499999999999716
 20
167.2990379999999959
 30
0.0
 10
124.7858969999999772
 20
167.0310890000000086
 30
0.0
 10
124.4999989999999741
 20
166.5358980000000031
 30
0.0
 10
124.4999989999999741
 20
166.0
 30
0.0
  0
SPLINE
  5
15F
100
AcDbEntity
  8
MAGENTA
 62
1
420
16711680
370
-1
 48
1.0
  6
BYLAYER
100
AcDbSpline
 70
8
 71
3
 72
8
 73
4
 74
0
 40
0.0
 40
0.0
 40
0.0
 40
0.0
 40
1.0
 40
1.0
 40
1.0
 40
1.0
 10
-96.3328993890871175
 20
264.4356540094706247
 30
0.0
 10
-96.7970023890871119
 20
264.1677050094706374
 30
0.0
 10
-97.0829003890871149
 20
263.6725140094706603
 30
0.0
 10
-97.0829003890871149
 20
263.1366160094706288
 30
0.0
  0
SPLINE
  5
160
100
AcDbEntity
  8
MAGENTA
 62
1
420
16711680
370
-1
 48
1.0
  6
BYLAYER
100
AcDbSpline
 70
8
 71
3
 72
8
 73
4
 74
0
 40
0.0
 40
0.0
 40
0.0
 40
0.0
 40
1.0
 40
1.0
 40
1.0
 40
1.0
 10
23.6671006109128825
 20
264.4356540094706247
 30
0.0
 10
23.2029976109128881
 20
264.1677050094706374
 30
0.0
 10
22.9170996109128851
 20
263.6725140094706603
 30
0.0
 10
22.9170996109128851
 20
263.1366160094706288
 30
0.0
  0
SPLINE
  5
161
100
AcDbEntity
  8
MAGENTA
 62
1
420
16711680
370
-1
 48
1.0
  6
BYLAYER
100
AcDbSpline
 70
8
 71
3
 72
8
 73
4
 74
0
 40
0.0
 40
0.0
 40
0.0
 40
0.0
 40
1.0
 40
1.0
 40
1.0
 40
1.0
 10
-206.3328993890871175
 20
264.4356540094706247
 30
0.0
 10
-206.7970023890871119
 20
264.1677050094706374
 30
0.0
 10
-207.0829003890871149
 20
263.6725140094706603
 30
0.0
 10
-207.0829003890871149
 20
263.1366160094706288
 30
0.0
  0
SPLINE
  5
162
100
AcDbEntity
  8
MAGENTA
 62
1
420
16711680
370
-1
 48
1.0
  6
BYLAYER
100
AcDbSpline
 70
8
 71
3
 72
8
 73
4
 74
0
 40
0.0
 40
0.0
 40
0.0
 40
0.0
 40
1.0
 40
1.0
 40
1.0
 40
1.0
 10
-97.2621105007823417
 20
166.416765400265831
 30
0.0
 10
-97.726213500782336
 20
166.1488164002658436
 30
0.0
 10
-98.0121115007823391
 20
165.6536254002658382
 30
0.0
 10
-98.0121115007823391
 20
165.1177274002658351
 30
0.0
  0
SPLINE
  5
163
100
AcDbEntity
  8
MAGENTA
 62
1
420
16711680
370
-1
 48
1.0
  6
BYLAYER
100
AcDbSpline
 70
8
 71
3
 72
8
 73
4
 74
0
 40
0.0
 40
0.0
 40
0.0
 40
0.0
 40
1.0
 40
1.0
 40
1.0
 40
1.0
 10
22.7378894992176583
 20
166.416765400265831
 30
0.0
 10
22.273786499217664
 20
166.1488164002658436
 30
0.0
 10
21.9878884992176609
 20
165.6536254002658382
 30
0.0
 10
21.9878884992176609
 20
165.1177274002658351
 30
0.0
  0
SPLINE
  5
164
100
AcDbEntity
  8
MAGENTA
 62
1
420
16711680
370
-1
 48
1.0
  6
BYLAYER
100
AcDbSpline
 70
8
 71
3
 72
8
 73
4
 74
0
 40
0.0
 40
0.0
 40
0.0
 40
0.0
 40
1.0
 40
1.0
 40
1.0
 40
1.0
 10
-207.2621105007823417
 20
166.416765400265831
 30
0.0
 10
-207.726213500782336
 20
166.1488164002658436
 30
0.0
 10
-208.0121115007823391
 20
165.6536254002658382
 30
0.0
 10
-208.0121115007823391
 20
165.1177274002658351
 30
0.0
  0
SPLINE
  5
165
100
AcDbEntity
  8
MAGENTA
 62
1
420
16711680
370
-1
 48
1.0
  6
BYLAYER
100
AcDbSpline
 70
8
 71
3
 72
8
 73
4
 74
0
 40
0.0
 40
0.0
 40
0.0
 40
0.0
 40
1.0
 40
1.0
 40
1.0
 40
1.0
 10
-182.2621105007823417
 20
166.416765400265831
 30
0.0
 10
-182.726213500782336
 20
166.1488164002658436
 30
0.0
 10
-183.0121115007823391
 20
165.6536254002658382
 30
0.0
 10
-183.0121115007823391
 20
165.1177274002658351
 30
0.0
  0
SPLINE
  5
166
100
AcDbEntity
  8
MAGENTA
 62
1
420
16711680
370
-1
 48
1.0
  6
BYLAYER
100
AcDbSpline
 70
8
 71
3
 72
8
 73
4
 74
0
 40
0.0
 40
0.0
 40
0.0
 40
0.0
 40
1.0
 40
1.0
 40
1.0
 40
1.0
 10
-62.2621105007823417
 20
166.416765400265831
 30
0.0
 10
-62.726213500782336
 20
166.1488164002658436
 30
0.0
 10
-63.0121115007823391
 20
165.6536254002658382
 30
0.0
 10
-63.0121115007823391
 20
165.1177274002658351
 30
0.0
  0
SPLINE
  5
167
100
AcDbEntity
  8
MAGENTA
 62
1
420
16711680
370
-1
 48
1.0
  6
BYLAYER
100
AcDbSpline
 70
8
 71
3
 72
8
 73
4
 74
0
 40
0.0
 40
0.0
 40
0.0
 40
0.0
 40
1.0
 40
1.0
 40
1.0
 40
1.0
 10
-292.2621105007823417
 20
166.416765400265831
 30
0.0
 10
-292.7262135007823645
 20
166.1488164002658436
 30
0.0
 10
-293.0121115007823391
 20
165.6536254002658382
 30
0.0
 10
-293.0121115007823391
 20
165.1177274002658351
 30
0.0
  0
SPLINE
  5
168
100
AcDbEntity
  8
MAGENTA
 62
1
420
16711680
370
-1
 48
1.0
  6
BYLAYER
100
AcDbSpline
 70
8
 71
3
 72
8
 73
4
 74
0
 40
0.0
 40
0.0
 40
0.0
 40
0.0
 40
1.0
 40
1.0
 40
1.0
 40
1.0
 10
-182.1993981270408653
 20
339.1767937155946129
 30
0.0
 10
-182.6635011270408597
 20
338.9088447155946255
 30
0.0
 10
-182.9493991270408628
 20
338.4136537155946485
 30
0.0
 10
-182.9493991270408628
 20
337.877755715594617
 30
0.0
  0
SPLINE
  5
169
100
AcDbEntity
  8
MAGENTA
 62
1
420
16711680
370
-1
 48
1.0
  6
BYLAYER
100
AcDbSpline
 70
8
 71
3
 72
8
 73
4
 74
0
 40
0.0
 40
0.0
 40
0.0
 40
0.0
 40
1.0
 40
1.0
 40
1.0
 40
1.0
 10
-62.1993981270408653
 20
339.1767937155946129
 30
0.0
 10
-62.6635011270408597
 20
338.9088447155946255
 30
0.0
 10
-62.9493991270408628
 20
338.4136537155946485
 30
0.0
 10
-62.9493991270408628
 20
337.877755715594617
 30
0.0
  0
SPLINE
  5
16A
100
AcDbEntity
  8
MAGENTA
 62
1
420
16711680
370
-1
 48
1.0
  6
BYLAYER
100
AcDbSpline
 70
8
 71
3
 72
8
 73
4
 74
0
 40
0.0
 40
0.0
 40
0.0
 40
0.0
 40
1.0
 40
1.0
 40
1.0
 40
1.0
 10
-292.1993981270408653
 20
339.1767937155946129
 30
0.0
 10
-292.6635011270408882
 20
338.9088447155946255
 30
0.0
 10
-292.9493991270408628
 20
338.4136537155946485
 30
0.0
 10
-292.9493991270408628
 20
337.877755715594617
 30
0.0
  0
SPLINE
  5
16B
100
AcDbEntity
  8
MAGENTA
 62
1
420
16711680
370
-1
 48
1.0
  6
BYLAYER
100
AcDbSpline
 70
8
 71
3
 72
8
 73
4
 74
0
 40
0.0
 40
0.0
 40
0.0
 40
0.0
 40
1.0
 40
1.0
 40
1.0
 40
1.0
 10
-97.2652407686594529
 20
339.4618076664616524
 30
0.0
 10
-97.7293437686594473
 20
339.1938586664616651
 30
0.0
 10
-98.0152417686594504
 20
338.698667666461688
 30
0.0
 10
-98.0152417686594504
 20
338.1627696664616565
 30
0.0
  0
SPLINE
  5
16C
100
AcDbEntity
  8
MAGENTA
 62
1
420
16711680
370
-1
 48
1.0
  6
BYLAYER
100
AcDbSpline
 70
8
 71
3
 72
8
 73
4
 74
0
 40
0.0
 40
0.0
 40
0.0
 40
0.0
 40
1.0
 40
1.0
 40
1.0
 40
1.0
 10
22.7347592313405471
 20
339.4618076664616524
 30
0.0
 10
22.2706562313405527
 20
339.1938586664616651
 30
0.0
 10
21.9847582313405496
 20
338.698667666461688
 30
0.0
 10
21.9847582313405496
 20
338.1627696664616565
 30
0.0
  0
SPLINE
  5
16D
100
AcDbEntity
  8
MAGENTA
 62
1
420
16711680
370
-1
 48
1.0
  6
BYLAYER
100
AcDbSpline
 70
8
 71
3
 72
8
 73
4
 74
0
 40
0.0
 40
0.0
 40
0.0
 40
0.0
 40
1.0
 40
1.0
 40
1.0
 40
1.0
 10
-207.2652407686594529
 20
339.4618076664616524
 30
0.0
 10
-207.7293437686594473
 20
339.1938586664616651
 30
0.0
 10
-208.0152417686594504
 20
338.698667666461688
 30
0.0
 10
-208.0152417686594504
 20
338.1627696664616565
 30
0.0
  0
SPLINE
  5
16E
100
AcDbEntity
  8
MAGENTA
 62
1
420
16711680
370
-1
 48
1.0
  6
BYLAYER
100
AcDbSpline
 70
8
 71
3
 72
8
 73
4
 74
0
 40
0.0
 40
0.0
 40
0.0
 40
0.0
 40
1.0
 40
1.0
 40
1.0
 40
1.0
 10
125.3127123737414479
 20
340.0590663153287778
 30
0.0
 10
124.8486093737414535
 20
339.7911173153287905
 30
0.0
 10
124.5627113737414504
 20
339.2959263153288134
 30
0.0
 10
124.5627113737414504
 20
338.7600283153287819
 30
0.0
  0
SPLINE
  5
16F
100
AcDbEntity
  8
MAGENTA
 62
1
420
16711680
370
-1
 48
1.0
  6
BYLAYER
100
AcDbSpline
 70
8
 71
3
 72
8
 73
4
 74
0
 40
0.0
 40
0.0
 40
0.0
 40
0.0
 40
1.0
 40
1.0
 40
1.0
 40
1.0
 10
210.2468697321228603
 20
340.3440802661958173
 30
0.0
 10
209.782766732122866
 20
340.07613126619583
 30
0.0
 10
209.4968687321228629
 20
339.5809402661958529
 30
0.0
 10
209.4968687321228629
 20
339.0450422661958214
 30
0.0
  0
SPLINE
  5
170
100
AcDbEntity
  8
MAGENTA
 62
1
420
16711680
370
-1
 48
1.0
  6
BYLAYER
100
AcDbSpline
 70
8
 71
3
 72
8
 73
4
 74
0
 40
0.0
 40
0.0
 40
0.0
 40
0.0
 40
1.0
 40
1.0
 40
1.0
 40
1.0
 10
211.1792111116951958
 20
265.3179266092047897
 30
0.0
 10
210.7151081116952014
 20
265.0499776092048023
 30
0.0
 10
210.4292101116951983
 20
264.5547866092048253
 30
0.0
 10
210.4292101116951983
 20
264.0188886092047937
 30
0.0
  0
SPLINE
  5
171
100
AcDbEntity
  8
MAGENTA
 62
1
420
16711680
370
-1
 48
1.0
  6
BYLAYER
100
AcDbSpline
 70
8
 71
3
 72
8
 73
4
 74
0
 40
0.0
 40
0.0
 40
0.0
 40
0.0
 40
1.0
 40
1.0
 40
1.0
 40
1.0
 10
209.4999989999999741
 20
166.0
 30
0.0
 10
209.4999989999999741
 20
165.4641019999999969
 30
0.0
 10
209.7858969999999772
 20
164.9689110000000198
 30
0.0
 10
210.2499999999999716
 20
164.7009620000000041
 30
0.0
  0
SPLINE
  5
172
100
AcDbEntity
  8
MAGENTA
 62
1
420
16711680
370
-1
 48
1.0
  6
BYLAYER
100
AcDbSpline
 70
8
 71
3
 72
8
 73
4
 74
0
 40
0.0
 40
0.0
 40
0.0
 40
0.0
 40
1.0
 40
1.0
 40
1.0
 40
1.0
 10
124.4999989999999741
 20
166.0
 30
0.0
 10
124.4999989999999741
 20
165.4641019999999969
 30
0.0
 10
124.7858969999999772
 20
164.9689110000000198
 30
0.0
 10
125.2499999999999716
 20
164.7009620000000041
 30
0.0
  0
SPLINE
  5
173
100
AcDbEntity
  8
MAGENTA
 62
1
420
16711680
370
-1
 48
1.0
  6
BYLAYER
100
AcDbSpline
 70
8
 71
3
 72
8
 73
4
 74
0
 40
0.0
 40
0.0
 40
0.0
 40
0.0
 40
1.0
 40
1.0
 40
1.0
 40
1.0
 10
-97.0829003890871149
 20
263.1366160094706288
 30
0.0
 10
-97.0829003890871149
 20
262.6007180094705973
 30
0.0
 10
-96.7970023890871119
 20
262.1055270094706202
 30
0.0
 10
-96.3328993890871175
 20
261.8375780094706329
 30
0.0
  0
SPLINE
  5
174
100
AcDbEntity
  8
MAGENTA
 62
1
420
16711680
370
-1
 48
1.0
  6
BYLAYER
100
AcDbSpline
 70
8
 71
3
 72
8
 73
4
 74
0
 40
0.0
 40
0.0
 40
0.0
 40
0.0
 40
1.0
 40
1.0
 40
1.0
 40
1.0
 10
22.9170996109128851
 20
263.1366160094706288
 30
0.0
 10
22.9170996109128851
 20
262.6007180094705973
 30
0.0
 10
23.2029976109128881
 20
262.1055270094706202
 30
0.0
 10
23.6671006109128825
 20
261.8375780094706329
 30
0.0
  0
SPLINE
  5
175
100
AcDbEntity
  8
MAGENTA
 62
1
420
16711680
370
-1
 48
1.0
  6
BYLAYER
100
AcDbSpline
 70
8
 71
3
 72
8
 73
4
 74
0
 40
0.0
 40
0.0
 40
0.0
 40
0.0
 40
1.0
 40
1.0
 40
1.0
 40
1.0
 10
-207.0829003890871149
 20
263.1366160094706288
 30
0.0
 10
-207.0829003890871149
 20
262.6007180094705973
 30
0.0
 10
-206.7970023890871119
 20
262.1055270094706202
 30
0.0
 10
-206.3328993890871175
 20
261.8375780094706329
 30
0.0
  0
SPLINE
  5
176
100
AcDbEntity
  8
MAGENTA
 62
1
420
16711680
370
-1
 48
1.0
  6
BYLAYER
100
AcDbSpline
 70
8
 71
3
 72
8
 73
4
 74
0
 40
0.0
 40
0.0
 40
0.0
 40
0.0
 40
1.0
 40
1.0
 40
1.0
 40
1.0
 10
-98.0121115007823391
 20
165.1177274002658351
 30
0.0
 10
-98.0121115007823391
 20
164.581829400265832
 30
0.0
 10
-97.726213500782336
 20
164.0866384002658549
 30
0.0
 10
-97.2621105007823417
 20
163.8186894002658391
 30
0.0
  0
SPLINE
  5
177
100
AcDbEntity
  8
MAGENTA
 62
1
420
16711680
370
-1
 48
1.0
  6
BYLAYER
100
AcDbSpline
 70
8
 71
3
 72
8
 73
4
 74
0
 40
0.0
 40
0.0
 40
0.0
 40
0.0
 40
1.0
 40
1.0
 40
1.0
 40
1.0
 10
21.9878884992176609
 20
165.1177274002658351
 30
0.0
 10
21.9878884992176609
 20
164.581829400265832
 30
0.0
 10
22.273786499217664
 20
164.0866384002658549
 30
0.0
 10
22.7378894992176583
 20
163.8186894002658391
 30
0.0
  0
SPLINE
  5
178
100
AcDbEntity
  8
MAGENTA
 62
1
420
16711680
370
-1
 48
1.0
  6
BYLAYER
100
AcDbSpline
 70
8
 71
3
 72
8
 73
4
 74
0
 40
0.0
 40
0.0
 40
0.0
 40
0.0
 40
1.0
 40
1.0
 40
1.0
 40
1.0
 10
-208.0121115007823391
 20
165.1177274002658351
 30
0.0
 10
-208.0121115007823391
 20
164.581829400265832
 30
0.0
 10
-207.726213500782336
 20
164.0866384002658549
 30
0.0
 10
-207.2621105007823417
 20
163.8186894002658391
 30
0.0
  0
SPLINE
  5
179
100
AcDbEntity
  8
MAGENTA
 62
1
420
16711680
370
-1
 48
1.0
  6
BYLAYER
100
AcDbSpline
 70
8
 71
3
 72
8
 73
4
 74
0
 40
0.0
 40
0.0
 40
0.0
 40
0.0
 40
1.0
 40
1.0
 40
1.0
 40
1.0
 10
-183.0121115007823391
 20
165.1177274002658351
 30
0.0
 10
-183.0121115007823391
 20
164.581829400265832
 30
0.0
 10
-182.726213500782336
 20
164.0866384002658549
 30
0.0
 10
-182.2621105007823417
 20
163.8186894002658391
 30
0.0
  0
SPLINE
  5
17A
100
AcDbEntity
  8
MAGENTA
 62
1
420
16711680
370
-1
 48
1.0
  6
BYLAYER
100
AcDbSpline
 70
8
 71
3
 72
8
 73
4
 74
0
 40
0.0
 40
0.0
 40
0.0
 40
0.0
 40
1.0
 40
1.0
 40
1.0
 40
1.0
 10
-63.0121115007823391
 20
165.1177274002658351
 30
0.0
 10
-63.0121115007823391
 20
164.581829400265832
 30
0.0
 10
-62.726213500782336
 20
164.0866384002658549
 30
0.0
 10
-62.2621105007823417
 20
163.8186894002658391
 30
0.0
  0
SPLINE
  5
17B
100
AcDbEntity
  8
MAGENTA
 62
1
420
16711680
370
-1
 48
1.0
  6
BYLAYER
100
AcDbSpline
 70
8
 71
3
 72
8
 73
4
 74
0
 40
0.0
 40
0.0
 40
0.0
 40
0.0
 40
1.0
 40
1.0
 40
1.0
 40
1.0
 10
-293.0121115007823391
 20
165.1177274002658351
 30
0.0
 10
-293.0121115007823391
 20
164.581829400265832
 30
0.0
 10
-292.7262135007823645
 20
164.0866384002658549
 30
0.0
 10
-292.2621105007823417
 20
163.8186894002658391
 30
0.0
  0
SPLINE
  5
17C
100
AcDbEntity
  8
MAGENTA
 62
1
420
16711680
370
-1
 48
1.0
  6
BYLAYER
100
AcDbSpline
 70
8
 71
3
 72
8
 73
4
 74
0
 40
0.0
 40
0.0
 40
0.0
 40
0.0
 40
1.0
 40
1.0
 40
1.0
 40
1.0
 10
-182.9493991270408628
 20
337.877755715594617
 30
0.0
 10
-182.9493991270408628
 20
337.3418577155945854
 30
0.0
 10
-182.6635011270408597
 20
336.8466667155946084
 30
0.0
 10
-182.1993981270408653
 20
336.578717715594621
 30
0.0
  0
SPLINE
  5
17D
100
AcDbEntity
  8
MAGENTA
 62
1
420
16711680
370
-1
 48
1.0
  6
BYLAYER
100
AcDbSpline
 70
8
 71
3
 72
8
 73
4
 74
0
 40
0.0
 40
0.0
 40
0.0
 40
0.0
 40
1.0
 40
1.0
 40
1.0
 40
1.0
 10
-62.9493991270408628
 20
337.877755715594617
 30
0.0
 10
-62.9493991270408628
 20
337.3418577155945854
 30
0.0
 10
-62.6635011270408597
 20
336.8466667155946084
 30
0.0
 10
-62.1993981270408653
 20
336.578717715594621
 30
0.0
  0
SPLINE
  5
17E
100
AcDbEntity
  8
MAGENTA
 62
1
420
16711680
370
-1
 48
1.0
  6
BYLAYER
100
AcDbSpline
 70
8
 71
3
 72
8
 73
4
 74
0
 40
0.0
 40
0.0
 40
0.0
 40
0.0
 40
1.0
 40
1.0
 40
1.0
 40
1.0
 10
-292.9493991270408628
 20
337.877755715594617
 30
0.0
 10
-292.9493991270408628
 20
337.3418577155945854
 30
0.0
 10
-292.6635011270408882
 20
336.8466667155946084
 30
0.0
 10
-292.1993981270408653
 20
336.578717715594621
 30
0.0
  0
SPLINE
  5
17F
100
AcDbEntity
  8
MAGENTA
 62
1
420
16711680
370
-1
 48
1.0
  6
BYLAYER
100
AcDbSpline
 70
8
 71
3
 72
8
 73
4
 74
0
 40
0.0
 40
0.0
 40
0.0
 40
0.0
 40
1.0
 40
1.0
 40
1.0
 40
1.0
 10
-98.0152417686594504
 20
338.1627696664616565
 30
0.0
 10
-98.0152417686594504
 20
337.626871666461625
 30
0.0
 10
-97.7293437686594473
 20
337.1316806664616479
 30
0.0
 10
-97.2652407686594529
 20
336.8637316664616606
 30
0.0
  0
SPLINE
  5
180
100
AcDbEntity
  8
MAGENTA
 62
1
420
16711680
370
-1
 48
1.0
  6
BYLAYER
100
AcDbSpline
 70
8
 71
3
 72
8
 73
4
 74
0
 40
0.0
 40
0.0
 40
0.0
 40
0.0
 40
1.0
 40
1.0
 40
1.0
 40
1.0
 10
21.9847582313405496
 20
338.1627696664616565
 30
0.0
 10
21.9847582313405496
 20
337.626871666461625
 30
0.0
 10
22.2706562313405527
 20
337.1316806664616479
 30
0.0
 10
22.7347592313405471
 20
336.8637316664616606
 30
0.0
  0
SPLINE
  5
181
100
AcDbEntity
  8
MAGENTA
 62
1
420
16711680
370
-1
 48
1.0
  6
BYLAYER
100
AcDbSpline
 70
8
 71
3
 72
8
 73
4
 74
0
 40
0.0
 40
0.0
 40
0.0
 40
0.0
 40
1.0
 40
1.0
 40
1.0
 40
1.0
 10
-208.0152417686594504
 20
338.1627696664616565
 30
0.0
 10
-208.0152417686594504
 20
337.626871666461625
 30
0.0
 10
-207.7293437686594473
 20
337.1316806664616479
 30
0.0
 10
-207.2652407686594529
 20
336.8637316664616606
 30
0.0
  0
SPLINE
  5
182
100
AcDbEntity
  8
MAGENTA
 62
1
420
16711680
370
-1
 48
1.0
  6
BYLAYER
100
AcDbSpline
 70
8
 71
3
 72
8
 73
4
 74
0
 40
0.0
 40
0.0
 40
0.0
 40
0.0
 40
1.0
 40
1.0
 40
1.0
 40
1.0
 10
124.5627113737414504
 20
338.7600283153287819
 30
0.0
 10
124.5627113737414504
 20
338.2241303153287504
 30
0.0
 10
124.8486093737414535
 20
337.7289393153287733
 30
0.0
 10
125.3127123737414479
 20
337.460990315328786
 30
0.0
  0
SPLINE
  5
183
100
AcDbEntity
  8
MAGENTA
 62
1
420
16711680
370
-1
 48
1.0
  6
BYLAYER
100
AcDbSpline
 70
8
 71
3
 72
8
 73
4
 74
0
 40
0.0
 40
0.0
 40
0.0
 40
0.0
 40
1.0
 40
1.0
 40
1.0
 40
1.0
 10
209.4968687321228629
 20
339.0450422661958214
 30
0.0
 10
209.4968687321228629
 20
338.5091442661957899
 30
0.0
 10
209.782766732122866
 20
338.0139532661958128
 30
0.0
 10
210.2468697321228603
 20
337.7460042661958255
 30
0.0
  0
SPLINE
  5
184
100
AcDbEntity
  8
MAGENTA
 62
1
420
16711680
370
-1
 48
1.0
  6
BYLAYER
100
AcDbSpline
 70
8
 71
3
 72
8
 73
4
 74
0
 40
0.0
 40
0.0
 40
0.0
 40
0.0
 40
1.0
 40
1.0
 40
1.0
 40
1.0
 10
210.4292101116951983
 20
264.0188886092047937
 30
0.0
 10
210.4292101116951983
 20
263.4829906092047622
 30
0.0
 10
210.7151081116952014
 20
262.9877996092047852
 30
0.0
 10
211.1792111116951958
 20
262.7198506092047978
 30
0.0
  0
SPLINE
  5
185
100
AcDbEntity
  8
MAGENTA
 62
1
420
16711680
370
-1
 48
1.0
  6
BYLAYER
100
AcDbSpline
 70
8
 71
3
 72
8
 73
4
 74
0
 40
0.0
 40
0.0
 40
0.0
 40
0.0
 40
1.0
 40
1.0
 40
1.0
 40
1.0
 10
210.2499999999999716
 20
164.7009620000000041
 30
0.0
 10
210.7140999999999735
 20
164.4330130000000167
 30
0.0
 10
211.2858989999999721
 20
164.4330130000000167
 30
0.0
 10
211.7499999999999716
 20
164.7009620000000041
 30
0.0
  0
SPLINE
  5
186
100
AcDbEntity
  8
MAGENTA
 62
1
420
16711680
370
-1
 48
1.0
  6
BYLAYER
100
AcDbSpline
 70
8
 71
3
 72
8
 73
4
 74
0
 40
0.0
 40
0.0
 40
0.0
 40
0.0
 40
1.0
 40
1.0
 40
1.0
 40
1.0
 10
125.2499999999999716
 20
164.7009620000000041
 30
0.0
 10
125.7140999999999735
 20
164.4330130000000167
 30
0.0
 10
126.2858989999999721
 20
164.4330130000000167
 30
0.0
 10
126.7499999999999716
 20
164.7009620000000041
 30
0.0
  0
SPLINE
  5
187
100
AcDbEntity
  8
MAGENTA
 62
1
420
16711680
370
-1
 48
1.0
  6
BYLAYER
100
AcDbSpline
 70
8
 71
3
 72
8
 73
4
 74
0
 40
0.0
 40
0.0
 40
0.0
 40
0.0
 40
1.0
 40
1.0
 40
1.0
 40
1.0
 10
-96.3328993890871175
 20
261.8375780094706329
 30
0.0
 10
-95.8687993890871155
 20
261.5696290094706455
 30
0.0
 10
-95.2970003890871169
 20
261.5696290094706455
 30
0.0
 10
-94.8328993890871175
 20
261.8375780094706329
 30
0.0
  0
SPLINE
  5
188
100
AcDbEntity
  8
MAGENTA
 62
1
420
16711680
370
-1
 48
1.0
  6
BYLAYER
100
AcDbSpline
 70
8
 71
3
 72
8
 73
4
 74
0
 40
0.0
 40
0.0
 40
0.0
 40
0.0
 40
1.0
 40
1.0
 40
1.0
 40
1.0
 10
23.6671006109128825
 20
261.8375780094706329
 30
0.0
 10
24.1312006109128845
 20
261.5696290094706455
 30
0.0
 10
24.7029996109128831
 20
261.5696290094706455
 30
0.0
 10
25.1671006109128825
 20
261.8375780094706329
 30
0.0
  0
SPLINE
  5
189
100
AcDbEntity
  8
MAGENTA
 62
1
420
16711680
370
-1
 48
1.0
  6
BYLAYER
100
AcDbSpline
 70
8
 71
3
 72
8
 73
4
 74
0
 40
0.0
 40
0.0
 40
0.0
 40
0.0
 40
1.0
 40
1.0
 40
1.0
 40
1.0
 10
-206.3328993890871175
 20
261.8375780094706329
 30
0.0
 10
-205.8687993890871155
 20
261.5696290094706455
 30
0.0
 10
-205.2970003890871169
 20
261.5696290094706455
 30
0.0
 10
-204.8328993890871175
 20
261.8375780094706329
 30
0.0
  0
SPLINE
  5
18A
100
AcDbEntity
  8
MAGENTA
 62
1
420
16711680
370
-1
 48
1.0
  6
BYLAYER
100
AcDbSpline
 70
8
 71
3
 72
8
 73
4
 74
0
 40
0.0
 40
0.0
 40
0.0
 40
0.0
 40
1.0
 40
1.0
 40
1.0
 40
1.0
 10
-97.2621105007823417
 20
163.8186894002658391
 30
0.0
 10
-96.7980105007823397
 20
163.5507404002658518
 30
0.0
 10
-96.2262115007823411
 20
163.5507404002658518
 30
0.0
 10
-95.7621105007823417
 20
163.8186894002658391
 30
0.0
  0
SPLINE
  5
18B
100
AcDbEntity
  8
MAGENTA
 62
1
420
16711680
370
-1
 48
1.0
  6
BYLAYER
100
AcDbSpline
 70
8
 71
3
 72
8
 73
4
 74
0
 40
0.0
 40
0.0
 40
0.0
 40
0.0
 40
1.0
 40
1.0
 40
1.0
 40
1.0
 10
22.7378894992176583
 20
163.8186894002658391
 30
0.0
 10
23.2019894992176603
 20
163.5507404002658518
 30
0.0
 10
23.7737884992176589
 20
163.5507404002658518
 30
0.0
 10
24.2378894992176583
 20
163.8186894002658391
 30
0.0
  0
SPLINE
  5
18C
100
AcDbEntity
  8
MAGENTA
 62
1
420
16711680
370
-1
 48
1.0
  6
BYLAYER
100
AcDbSpline
 70
8
 71
3
 72
8
 73
4
 74
0
 40
0.0
 40
0.0
 40
0.0
 40
0.0
 40
1.0
 40
1.0
 40
1.0
 40
1.0
 10
-207.2621105007823417
 20
163.8186894002658391
 30
0.0
 10
-206.7980105007823397
 20
163.5507404002658518
 30
0.0
 10
-206.2262115007823411
 20
163.5507404002658518
 30
0.0
 10
-205.7621105007823417
 20
163.8186894002658391
 30
0.0
  0
SPLINE
  5
18D
100
AcDbEntity
  8
MAGENTA
 62
1
420
16711680
370
-1
 48
1.0
  6
BYLAYER
100
AcDbSpline
 70
8
 71
3
 72
8
 73
4
 74
0
 40
0.0
 40
0.0
 40
0.0
 40
0.0
 40
1.0
 40
1.0
 40
1.0
 40
1.0
 10
-182.2621105007823417
 20
163.8186894002658391
 30
0.0
 10
-181.7980105007823397
 20
163.5507404002658518
 30
0.0
 10
-181.2262115007823411
 20
163.5507404002658518
 30
0.0
 10
-180.7621105007823417
 20
163.8186894002658391
 30
0.0
  0
SPLINE
  5
18E
100
AcDbEntity
  8
MAGENTA
 62
1
420
16711680
370
-1
 48
1.0
  6
BYLAYER
100
AcDbSpline
 70
8
 71
3
 72
8
 73
4
 74
0
 40
0.0
 40
0.0
 40
0.0
 40
0.0
 40
1.0
 40
1.0
 40
1.0
 40
1.0
 10
-62.2621105007823417
 20
163.8186894002658391
 30
0.0
 10
-61.7980105007823397
 20
163.5507404002658518
 30
0.0
 10
-61.2262115007823411
 20
163.5507404002658518
 30
0.0
 10
-60.7621105007823417
 20
163.8186894002658391
 30
0.0
  0
SPLINE
  5
18F
100
AcDbEntity
  8
MAGENTA
 62
1
420
16711680
370
-1
 48
1.0
  6
BYLAYER
100
AcDbSpline
 70
8
 71
3
 72
8
 73
4
 74
0
 40
0.0
 40
0.0
 40
0.0
 40
0.0
 40
1.0
 40
1.0
 40
1.0
 40
1.0
 10
-292.2621105007823417
 20
163.8186894002658391
 30
0.0
 10
-291.7980105007823681
 20
163.5507404002658518
 30
0.0
 10
-291.2262115007823695
 20
163.5507404002658518
 30
0.0
 10
-290.7621105007823417
 20
163.8186894002658391
 30
0.0
  0
SPLINE
  5
190
100
AcDbEntity
  8
MAGENTA
 62
1
420
16711680
370
-1
 48
1.0
  6
BYLAYER
100
AcDbSpline
 70
8
 71
3
 72
8
 73
4
 74
0
 40
0.0
 40
0.0
 40
0.0
 40
0.0
 40
1.0
 40
1.0
 40
1.0
 40
1.0
 10
-182.1993981270408653
 20
336.578717715594621
 30
0.0
 10
-181.7352981270408634
 20
336.3107687155946337
 30
0.0
 10
-181.1634991270408648
 20
336.3107687155946337
 30
0.0
 10
-180.6993981270408653
 20
336.578717715594621
 30
0.0
  0
SPLINE
  5
191
100
AcDbEntity
  8
MAGENTA
 62
1
420
16711680
370
-1
 48
1.0
  6
BYLAYER
100
AcDbSpline
 70
8
 71
3
 72
8
 73
4
 74
0
 40
0.0
 40
0.0
 40
0.0
 40
0.0
 40
1.0
 40
1.0
 40
1.0
 40
1.0
 10
-62.1993981270408653
 20
336.578717715594621
 30
0.0
 10
-61.7352981270408634
 20
336.3107687155946337
 30
0.0
 10
-61.1634991270408648
 20
336.3107687155946337
 30
0.0
 10
-60.6993981270408653
 20
336.578717715594621
 30
0.0
  0
SPLINE
  5
192
100
AcDbEntity
  8
MAGENTA
 62
1
420
16711680
370
-1
 48
1.0
  6
BYLAYER
100
AcDbSpline
 70
8
 71
3
 72
8
 73
4
 74
0
 40
0.0
 40
0.0
 40
0.0
 40
0.0
 40
1.0
 40
1.0
 40
1.0
 40
1.0
 10
-292.1993981270408653
 20
336.578717715594621
 30
0.0
 10
-291.7352981270408918
 20
336.3107687155946337
 30
0.0
 10
-291.1634991270408932
 20
336.3107687155946337
 30
0.0
 10
-290.6993981270408653
 20
336.578717715594621
 30
0.0
  0
SPLINE
  5
193
100
AcDbEntity
  8
MAGENTA
 62
1
420
16711680
370
-1
 48
1.0
  6
BYLAYER
100
AcDbSpline
 70
8
 71
3
 72
8
 73
4
 74
0
 40
0.0
 40
0.0
 40
0.0
 40
0.0
 40
1.0
 40
1.0
 40
1.0
 40
1.0
 10
-97.2652407686594529
 20
336.8637316664616606
 30
0.0
 10
-96.8011407686594509
 20
336.5957826664616732
 30
0.0
 10
-96.2293417686594523
 20
336.5957826664616732
 30
0.0
 10
-95.7652407686594529
 20
336.8637316664616606
 30
0.0
  0
SPLINE
  5
194
100
AcDbEntity
  8
MAGENTA
 62
1
420
16711680
370
-1
 48
1.0
  6
BYLAYER
100
AcDbSpline
 70
8
 71
3
 72
8
 73
4
 74
0
 40
0.0
 40
0.0
 40
0.0
 40
0.0
 40
1.0
 40
1.0
 40
1.0
 40
1.0
 10
22.7347592313405471
 20
336.8637316664616606
 30
0.0
 10
23.1988592313405491
 20
336.5957826664616732
 30
0.0
 10
23.7706582313405477
 20
336.5957826664616732
 30
0.0
 10
24.2347592313405471
 20
336.8637316664616606
 30
0.0
  0
SPLINE
  5
195
100
AcDbEntity
  8
MAGENTA
 62
1
420
16711680
370
-1
 48
1.0
  6
BYLAYER
100
AcDbSpline
 70
8
 71
3
 72
8
 73
4
 74
0
 40
0.0
 40
0.0
 40
0.0
 40
0.0
 40
1.0
 40
1.0
 40
1.0
 40
1.0
 10
-207.2652407686594529
 20
336.8637316664616606
 30
0.0
 10
-206.8011407686594509
 20
336.5957826664616732
 30
0.0
 10
-206.2293417686594523
 20
336.5957826664616732
 30
0.0
 10
-205.7652407686594529
 20
336.8637316664616606
 30
0.0
  0
SPLINE
  5
196
100
AcDbEntity
  8
MAGENTA
 62
1
420
16711680
370
-1
 48
1.0
  6
BYLAYER
100
AcDbSpline
 70
8
 71
3
 72
8
 73
4
 74
0
 40
0.0
 40
0.0
 40
0.0
 40
0.0
 40
1.0
 40
1.0
 40
1.0
 40
1.0
 10
125.3127123737414479
 20
337.460990315328786
 30
0.0
 10
125.7768123737414498
 20
337.1930413153287986
 30
0.0
 10
126.3486113737414485
 20
337.1930413153287986
 30
0.0
 10
126.8127123737414479
 20
337.460990315328786
 30
0.0
  0
SPLINE
  5
197
100
AcDbEntity
  8
MAGENTA
 62
1
420
16711680
370
-1
 48
1.0
  6
BYLAYER
100
AcDbSpline
 70
8
 71
3
 72
8
 73
4
 74
0
 40
0.0
 40
0.0
 40
0.0
 40
0.0
 40
1.0
 40
1.0
 40
1.0
 40
1.0
 10
210.2468697321228603
 20
337.7460042661958255
 30
0.0
 10
210.7109697321228623
 20
337.4780552661958382
 30
0.0
 10
211.2827687321228609
 20
337.4780552661958382
 30
0.0
 10
211.7468697321228603
 20
337.7460042661958255
 30
0.0
  0
SPLINE
  5
198
100
AcDbEntity
  8
MAGENTA
 62
1
420
16711680
370
-1
 48
1.0
  6
BYLAYER
100
AcDbSpline
 70
8
 71
3
 72
8
 73
4
 74
0
 40
0.0
 40
0.0
 40
0.0
 40
0.0
 40
1.0
 40
1.0
 40
1.0
 40
1.0
 10
211.1792111116951958
 20
262.7198506092047978
 30
0.0
 10
211.6433111116951977
 20
262.4519016092048105
 30
0.0
 10
212.2151101116951963
 20
262.4519016092048105
 30
0.0
 10
212.6792111116951958
 20
262.7198506092047978
 30
0.0
  0
SPLINE
  5
199
100
AcDbEntity
  8
MAGENTA
 62
1
420
16711680
370
-1
 48
1.0
  6
BYLAYER
100
AcDbSpline
 70
8
 71
3
 72
8
 73
4
 74
0
 40
0.0
 40
0.0
 40
0.0
 40
0.0
 40
1.0
 40
1.0
 40
1.0
 40
1.0
 10
211.7499999999999716
 20
164.7009620000000041
 30
0.0
 10
212.2141029999999944
 20
164.9689110000000198
 30
0.0
 10
212.5000009999999975
 20
165.4641019999999969
 30
0.0
 10
212.5000009999999975
 20
166.0
 30
0.0
  0
SPLINE
  5
19A
100
AcDbEntity
  8
MAGENTA
 62
1
420
16711680
370
-1
 48
1.0
  6
BYLAYER
100
AcDbSpline
 70
8
 71
3
 72
8
 73
4
 74
0
 40
0.0
 40
0.0
 40
0.0
 40
0.0
 40
1.0
 40
1.0
 40
1.0
 40
1.0
 10
126.7499999999999716
 20
164.7009620000000041
 30
0.0
 10
127.2141029999999944
 20
164.9689110000000198
 30
0.0
 10
127.5000009999999975
 20
165.4641019999999969
 30
0.0
 10
127.5000009999999975
 20
166.0
 30
0.0
  0
SPLINE
  5
19B
100
AcDbEntity
  8
MAGENTA
 62
1
420
16711680
370
-1
 48
1.0
  6
BYLAYER
100
AcDbSpline
 70
8
 71
3
 72
8
 73
4
 74
0
 40
0.0
 40
0.0
 40
0.0
 40
0.0
 40
1.0
 40
1.0
 40
1.0
 40
1.0
 10
-94.8328993890871175
 20
261.8375780094706329
 30
0.0
 10
-94.3687963890870947
 20
262.1055270094706202
 30
0.0
 10
-94.0828983890870916
 20
262.6007180094705973
 30
0.0
 10
-94.0828983890870916
 20
263.1366160094706288
 30
0.0
  0
SPLINE
  5
19C
100
AcDbEntity
  8
MAGENTA
 62
1
420
16711680
370
-1
 48
1.0
  6
BYLAYER
100
AcDbSpline
 70
8
 71
3
 72
8
 73
4
 74
0
 40
0.0
 40
0.0
 40
0.0
 40
0.0
 40
1.0
 40
1.0
 40
1.0
 40
1.0
 10
25.1671006109128825
 20
261.8375780094706329
 30
0.0
 10
25.6312036109129053
 20
262.1055270094706202
 30
0.0
 10
25.9171016109129084
 20
262.6007180094705973
 30
0.0
 10
25.9171016109129084
 20
263.1366160094706288
 30
0.0
  0
SPLINE
  5
19D
100
AcDbEntity
  8
MAGENTA
 62
1
420
16711680
370
-1
 48
1.0
  6
BYLAYER
100
AcDbSpline
 70
8
 71
3
 72
8
 73
4
 74
0
 40
0.0
 40
0.0
 40
0.0
 40
0.0
 40
1.0
 40
1.0
 40
1.0
 40
1.0
 10
-204.8328993890871175
 20
261.8375780094706329
 30
0.0
 10
-204.3687963890870947
 20
262.1055270094706202
 30
0.0
 10
-204.0828983890870916
 20
262.6007180094705973
 30
0.0
 10
-204.0828983890870916
 20
263.1366160094706288
 30
0.0
  0
SPLINE
  5
19E
100
AcDbEntity
  8
MAGENTA
 62
1
420
16711680
370
-1
 48
1.0
  6
BYLAYER
100
AcDbSpline
 70
8
 71
3
 72
8
 73
4
 74
0
 40
0.0
 40
0.0
 40
0.0
 40
0.0
 40
1.0
 40
1.0
 40
1.0
 40
1.0
 10
-95.7621105007823417
 20
163.8186894002658391
 30
0.0
 10
-95.2980075007823189
 20
164.0866384002658549
 30
0.0
 10
-95.0121095007823158
 20
164.581829400265832
 30
0.0
 10
-95.0121095007823158
 20
165.1177274002658351
 30
0.0
  0
SPLINE
  5
19F
100
AcDbEntity
  8
MAGENTA
 62
1
420
16711680
370
-1
 48
1.0
  6
BYLAYER
100
AcDbSpline
 70
8
 71
3
 72
8
 73
4
 74
0
 40
0.0
 40
0.0
 40
0.0
 40
0.0
 40
1.0
 40
1.0
 40
1.0
 40
1.0
 10
24.2378894992176583
 20
163.8186894002658391
 30
0.0
 10
24.7019924992176811
 20
164.0866384002658549
 30
0.0
 10
24.9878904992176842
 20
164.581829400265832
 30
0.0
 10
24.9878904992176842
 20
165.1177274002658351
 30
0.0
  0
SPLINE
  5
1A0
100
AcDbEntity
  8
MAGENTA
 62
1
420
16711680
370
-1
 48
1.0
  6
BYLAYER
100
AcDbSpline
 70
8
 71
3
 72
8
 73
4
 74
0
 40
0.0
 40
0.0
 40
0.0
 40
0.0
 40
1.0
 40
1.0
 40
1.0
 40
1.0
 10
-205.7621105007823417
 20
163.8186894002658391
 30
0.0
 10
-205.2980075007823189
 20
164.0866384002658549
 30
0.0
 10
-205.0121095007823158
 20
164.581829400265832
 30
0.0
 10
-205.0121095007823158
 20
165.1177274002658351
 30
0.0
  0
SPLINE
  5
1A1
100
AcDbEntity
  8
MAGENTA
 62
1
420
16711680
370
-1
 48
1.0
  6
BYLAYER
100
AcDbSpline
 70
8
 71
3
 72
8
 73
4
 74
0
 40
0.0
 40
0.0
 40
0.0
 40
0.0
 40
1.0
 40
1.0
 40
1.0
 40
1.0
 10
-180.7621105007823417
 20
163.8186894002658391
 30
0.0
 10
-180.2980075007823189
 20
164.0866384002658549
 30
0.0
 10
-180.0121095007823158
 20
164.581829400265832
 30
0.0
 10
-180.0121095007823158
 20
165.1177274002658351
 30
0.0
  0
SPLINE
  5
1A2
100
AcDbEntity
  8
MAGENTA
 62
1
420
16711680
370
-1
 48
1.0
  6
BYLAYER
100
AcDbSpline
 70
8
 71
3
 72
8
 73
4
 74
0
 40
0.0
 40
0.0
 40
0.0
 40
0.0
 40
1.0
 40
1.0
 40
1.0
 40
1.0
 10
-60.7621105007823417
 20
163.8186894002658391
 30
0.0
 10
-60.2980075007823189
 20
164.0866384002658549
 30
0.0
 10
-60.0121095007823158
 20
164.581829400265832
 30
0.0
 10
-60.0121095007823158
 20
165.1177274002658351
 30
0.0
  0
SPLINE
  5
1A3
100
AcDbEntity
  8
MAGENTA
 62
1
420
16711680
370
-1
 48
1.0
  6
BYLAYER
100
AcDbSpline
 70
8
 71
3
 72
8
 73
4
 74
0
 40
0.0
 40
0.0
 40
0.0
 40
0.0
 40
1.0
 40
1.0
 40
1.0
 40
1.0
 10
-290.7621105007823417
 20
163.8186894002658391
 30
0.0
 10
-290.2980075007823189
 20
164.0866384002658549
 30
0.0
 10
-290.0121095007823442
 20
164.581829400265832
 30
0.0
 10
-290.0121095007823442
 20
165.1177274002658351
 30
0.0
  0
SPLINE
  5
1A4
100
AcDbEntity
  8
MAGENTA
 62
1
420
16711680
370
-1
 48
1.0
  6
BYLAYER
100
AcDbSpline
 70
8
 71
3
 72
8
 73
4
 74
0
 40
0.0
 40
0.0
 40
0.0
 40
0.0
 40
1.0
 40
1.0
 40
1.0
 40
1.0
 10
-180.6993981270408653
 20
336.578717715594621
 30
0.0
 10
-180.2352951270408425
 20
336.8466667155946084
 30
0.0
 10
-179.9493971270408395
 20
337.3418577155945854
 30
0.0
 10
-179.9493971270408395
 20
337.877755715594617
 30
0.0
  0
SPLINE
  5
1A5
100
AcDbEntity
  8
MAGENTA
 62
1
420
16711680
370
-1
 48
1.0
  6
BYLAYER
100
AcDbSpline
 70
8
 71
3
 72
8
 73
4
 74
0
 40
0.0
 40
0.0
 40
0.0
 40
0.0
 40
1.0
 40
1.0
 40
1.0
 40
1.0
 10
-60.6993981270408653
 20
336.578717715594621
 30
0.0
 10
-60.2352951270408425
 20
336.8466667155946084
 30
0.0
 10
-59.9493971270408395
 20
337.3418577155945854
 30
0.0
 10
-59.9493971270408395
 20
337.877755715594617
 30
0.0
  0
SPLINE
  5
1A6
100
AcDbEntity
  8
MAGENTA
 62
1
420
16711680
370
-1
 48
1.0
  6
BYLAYER
100
AcDbSpline
 70
8
 71
3
 72
8
 73
4
 74
0
 40
0.0
 40
0.0
 40
0.0
 40
0.0
 40
1.0
 40
1.0
 40
1.0
 40
1.0
 10
-290.6993981270408653
 20
336.578717715594621
 30
0.0
 10
-290.2352951270408425
 20
336.8466667155946084
 30
0.0
 10
-289.9493971270408679
 20
337.3418577155945854
 30
0.0
 10
-289.9493971270408679
 20
337.877755715594617
 30
0.0
  0
SPLINE
  5
1A7
100
AcDbEntity
  8
MAGENTA
 62
1
420
16711680
370
-1
 48
1.0
  6
BYLAYER
100
AcDbSpline
 70
8
 71
3
 72
8
 73
4
 74
0
 40
0.0
 40
0.0
 40
0.0
 40
0.0
 40
1.0
 40
1.0
 40
1.0
 40
1.0
 10
-95.7652407686594529
 20
336.8637316664616606
 30
0.0
 10
-95.3011377686594301
 20
337.1316806664616479
 30
0.0
 10
-95.015239768659427
 20
337.626871666461625
 30
0.0
 10
-95.015239768659427
 20
338.1627696664616565
 30
0.0
  0
SPLINE
  5
1A8
100
AcDbEntity
  8
MAGENTA
 62
1
420
16711680
370
-1
 48
1.0
  6
BYLAYER
100
AcDbSpline
 70
8
 71
3
 72
8
 73
4
 74
0
 40
0.0
 40
0.0
 40
0.0
 40
0.0
 40
1.0
 40
1.0
 40
1.0
 40
1.0
 10
24.2347592313405471
 20
336.8637316664616606
 30
0.0
 10
24.6988622313405699
 20
337.1316806664616479
 30
0.0
 10
24.984760231340573
 20
337.626871666461625
 30
0.0
 10
24.984760231340573
 20
338.1627696664616565
 30
0.0
  0
SPLINE
  5
1A9
100
AcDbEntity
  8
MAGENTA
 62
1
420
16711680
370
-1
 48
1.0
  6
BYLAYER
100
AcDbSpline
 70
8
 71
3
 72
8
 73
4
 74
0
 40
0.0
 40
0.0
 40
0.0
 40
0.0
 40
1.0
 40
1.0
 40
1.0
 40
1.0
 10
-205.7652407686594529
 20
336.8637316664616606
 30
0.0
 10
-205.3011377686594301
 20
337.1316806664616479
 30
0.0
 10
-205.015239768659427
 20
337.626871666461625
 30
0.0
 10
-205.015239768659427
 20
338.1627696664616565
 30
0.0
  0
SPLINE
  5
1AA
100
AcDbEntity
  8
MAGENTA
 62
1
420
16711680
370
-1
 48
1.0
  6
BYLAYER
100
AcDbSpline
 70
8
 71
3
 72
8
 73
4
 74
0
 40
0.0
 40
0.0
 40
0.0
 40
0.0
 40
1.0
 40
1.0
 40
1.0
 40
1.0
 10
126.8127123737414479
 20
337.460990315328786
 30
0.0
 10
127.2768153737414707
 20
337.7289393153287733
 30
0.0
 10
127.5627133737414738
 20
338.2241303153287504
 30
0.0
 10
127.5627133737414738
 20
338.7600283153287819
 30
0.0
  0
SPLINE
  5
1AB
100
AcDbEntity
  8
MAGENTA
 62
1
420
16711680
370
-1
 48
1.0
  6
BYLAYER
100
AcDbSpline
 70
8
 71
3
 72
8
 73
4
 74
0
 40
0.0
 40
0.0
 40
0.0
 40
0.0
 40
1.0
 40
1.0
 40
1.0
 40
1.0
 10
211.7468697321228603
 20
337.7460042661958255
 30
0.0
 10
212.2109727321228831
 20
338.0139532661958128
 30
0.0
 10
212.4968707321228862
 20
338.5091442661957899
 30
0.0
 10
212.4968707321228862
 20
339.0450422661958214
 30
0.0
  0
SPLINE
  5
1AC
100
AcDbEntity
  8
MAGENTA
 62
1
420
16711680
370
-1
 48
1.0
  6
BYLAYER
100
AcDbSpline
 70
8
 71
3
 72
8
 73
4
 74
0
 40
0.0
 40
0.0
 40
0.0
 40
0.0
 40
1.0
 40
1.0
 40
1.0
 40
1.0
 10
212.6792111116951958
 20
262.7198506092047978
 30
0.0
 10
213.1433141116952186
 20
262.9877996092047852
 30
0.0
 10
213.4292121116952217
 20
263.4829906092047622
 30
0.0
 10
213.4292121116952217
 20
264.0188886092047937
 30
0.0
  0
SPLINE
  5
1AD
100
AcDbEntity
  8
MAGENTA
 62
1
420
16711680
370
-1
 48
1.0
  6
BYLAYER
100
AcDbSpline
 70
8
 71
3
 72
8
 73
4
 74
0
 40
0.0
 40
0.0
 40
0.0
 40
0.0
 40
1.0
 40
1.0
 40
1.0
 40
1.0
 10
127.5000004999999987
 20
264.0000000000000568
 30
0.0
 10
127.5000004999999987
 20
264.535897000000034
 30
0.0
 10
127.2141024999999956
 20
265.0310890000000654
 30
0.0
 10
126.7499994999999728
 20
265.2990380000000528
 30
0.0
  0
SPLINE
  5
1AE
100
AcDbEntity
  8
MAGENTA
 62
1
420
16711680
370
-1
 48
1.0
  6
BYLAYER
100
AcDbSpline
 70
8
 71
3
 72
8
 73
4
 74
0
 40
0.0
 40
0.0
 40
0.0
 40
0.0
 40
1.0
 40
1.0
 40
1.0
 40
1.0
 10
-180.0121100007823145
 20
263.1177274002658919
 30
0.0
 10
-180.0121100007823145
 20
263.6536244002658691
 30
0.0
 10
-180.2980080007823176
 20
264.1488164002659005
 30
0.0
 10
-180.7621110007823404
 20
264.4167654002658878
 30
0.0
  0
SPLINE
  5
1AF
100
AcDbEntity
  8
MAGENTA
 62
1
420
16711680
370
-1
 48
1.0
  6
BYLAYER
100
AcDbSpline
 70
8
 71
3
 72
8
 73
4
 74
0
 40
0.0
 40
0.0
 40
0.0
 40
0.0
 40
1.0
 40
1.0
 40
1.0
 40
1.0
 10
-60.0121100007823145
 20
263.1177274002658919
 30
0.0
 10
-60.0121100007823145
 20
263.6536244002658691
 30
0.0
 10
-60.2980080007823176
 20
264.1488164002659005
 30
0.0
 10
-60.7621110007823404
 20
264.4167654002658878
 30
0.0
  0
SPLINE
  5
1B0
100
AcDbEntity
  8
MAGENTA
 62
1
420
16711680
370
-1
 48
1.0
  6
BYLAYER
100
AcDbSpline
 70
8
 71
3
 72
8
 73
4
 74
0
 40
0.0
 40
0.0
 40
0.0
 40
0.0
 40
1.0
 40
1.0
 40
1.0
 40
1.0
 10
-290.0121100007823429
 20
263.1177274002658919
 30
0.0
 10
-290.0121100007823429
 20
263.6536244002658691
 30
0.0
 10
-290.2980080007823176
 20
264.1488164002659005
 30
0.0
 10
-290.7621110007823404
 20
264.4167654002658878
 30
0.0
  0
SPLINE
  5
1B1
100
AcDbEntity
  8
MAGENTA
 62
1
420
16711680
370
-1
 48
1.0
  6
BYLAYER
100
AcDbSpline
 70
8
 71
3
 72
8
 73
4
 74
0
 40
0.0
 40
0.0
 40
0.0
 40
0.0
 40
1.0
 40
1.0
 40
1.0
 40
1.0
 10
126.7499994999999728
 20
265.2990380000000528
 30
0.0
 10
126.2858994999999993
 20
265.5669870000000401
 30
0.0
 10
125.7141004999999723
 20
265.5669870000000401
 30
0.0
 10
125.2500004999999987
 20
265.2990380000000528
 30
0.0
  0
SPLINE
  5
1B2
100
AcDbEntity
  8
MAGENTA
 62
1
420
16711680
370
-1
 48
1.0
  6
BYLAYER
100
AcDbSpline
 70
8
 71
3
 72
8
 73
4
 74
0
 40
0.0
 40
0.0
 40
0.0
 40
0.0
 40
1.0
 40
1.0
 40
1.0
 40
1.0
 10
-180.7621110007823404
 20
264.4167654002658878
 30
0.0
 10
-181.2262110007823139
 20
264.6847144002658752
 30
0.0
 10
-181.798010000782341
 20
264.6847144002658752
 30
0.0
 10
-182.2621100007823145
 20
264.4167654002658878
 30
0.0
  0
SPLINE
  5
1B3
100
AcDbEntity
  8
MAGENTA
 62
1
420
16711680
370
-1
 48
1.0
  6
BYLAYER
100
AcDbSpline
 70
8
 71
3
 72
8
 73
4
 74
0
 40
0.0
 40
0.0
 40
0.0
 40
0.0
 40
1.0
 40
1.0
 40
1.0
 40
1.0
 10
-60.7621110007823404
 20
264.4167654002658878
 30
0.0
 10
-61.2262110007823139
 20
264.6847144002658752
 30
0.0
 10
-61.798010000782341
 20
264.6847144002658752
 30
0.0
 10
-62.2621100007823145
 20
264.4167654002658878
 30
0.0
  0
SPLINE
  5
1B4
100
AcDbEntity
  8
MAGENTA
 62
1
420
16711680
370
-1
 48
1.0
  6
BYLAYER
100
AcDbSpline
 70
8
 71
3
 72
8
 73
4
 74
0
 40
0.0
 40
0.0
 40
0.0
 40
0.0
 40
1.0
 40
1.0
 40
1.0
 40
1.0
 10
-290.7621110007823404
 20
264.4167654002658878
 30
0.0
 10
-291.2262110007823139
 20
264.6847144002658752
 30
0.0
 10
-291.7980100007823694
 20
264.6847144002658752
 30
0.0
 10
-292.2621100007823429
 20
264.4167654002658878
 30
0.0
  0
SPLINE
  5
1B5
100
AcDbEntity
  8
MAGENTA
 62
1
420
16711680
370
-1
 48
1.0
  6
BYLAYER
100
AcDbSpline
 70
8
 71
3
 72
8
 73
4
 74
0
 40
0.0
 40
0.0
 40
0.0
 40
0.0
 40
1.0
 40
1.0
 40
1.0
 40
1.0
 10
125.2500004999999987
 20
265.2990380000000528
 30
0.0
 10
124.7858974999999901
 20
265.0310890000000654
 30
0.0
 10
124.4999994999999871
 20
264.535897000000034
 30
0.0
 10
124.4999994999999871
 20
264.0000000000000568
 30
0.0
  0
SPLINE
  5
1B6
100
AcDbEntity
  8
MAGENTA
 62
1
420
16711680
370
-1
 48
1.0
  6
BYLAYER
100
AcDbSpline
 70
8
 71
3
 72
8
 73
4
 74
0
 40
0.0
 40
0.0
 40
0.0
 40
0.0
 40
1.0
 40
1.0
 40
1.0
 40
1.0
 10
-182.2621100007823145
 20
264.4167654002658878
 30
0.0
 10
-182.7262130007823373
 20
264.1488164002659005
 30
0.0
 10
-183.0121110007823404
 20
263.6536244002658691
 30
0.0
 10
-183.0121110007823404
 20
263.1177274002658919
 30
0.0
  0
SPLINE
  5
1B7
100
AcDbEntity
  8
MAGENTA
 62
1
420
16711680
370
-1
 48
1.0
  6
BYLAYER
100
AcDbSpline
 70
8
 71
3
 72
8
 73
4
 74
0
 40
0.0
 40
0.0
 40
0.0
 40
0.0
 40
1.0
 40
1.0
 40
1.0
 40
1.0
 10
-62.2621100007823145
 20
264.4167654002658878
 30
0.0
 10
-62.7262130007823231
 20
264.1488164002659005
 30
0.0
 10
-63.0121110007823262
 20
263.6536244002658691
 30
0.0
 10
-63.0121110007823262
 20
263.1177274002658919
 30
0.0
  0
SPLINE
  5
1B8
100
AcDbEntity
  8
MAGENTA
 62
1
420
16711680
370
-1
 48
1.0
  6
BYLAYER
100
AcDbSpline
 70
8
 71
3
 72
8
 73
4
 74
0
 40
0.0
 40
0.0
 40
0.0
 40
0.0
 40
1.0
 40
1.0
 40
1.0
 40
1.0
 10
-292.2621100007823429
 20
264.4167654002658878
 30
0.0
 10
-292.7262130007823089
 20
264.1488164002659005
 30
0.0
 10
-293.0121110007823404
 20
263.6536244002658691
 30
0.0
 10
-293.0121110007823404
 20
263.1177274002658919
 30
0.0
  0
SPLINE
  5
1B9
100
AcDbEntity
  8
MAGENTA
 62
1
420
16711680
370
-1
 48
1.0
  6
BYLAYER
100
AcDbSpline
 70
8
 71
3
 72
8
 73
4
 74
0
 40
0.0
 40
0.0
 40
0.0
 40
0.0
 40
1.0
 40
1.0
 40
1.0
 40
1.0
 10
124.4999994999999871
 20
264.0000000000000568
 30
0.0
 10
124.4999994999999871
 20
263.4641020000000253
 30
0.0
 10
124.7858974999999901
 20
262.9689110000000483
 30
0.0
 10
125.2500004999999987
 20
262.7009620000000609
 30
0.0
  0
SPLINE
  5
1BA
100
AcDbEntity
  8
MAGENTA
 62
1
420
16711680
370
-1
 48
1.0
  6
BYLAYER
100
AcDbSpline
 70
8
 71
3
 72
8
 73
4
 74
0
 40
0.0
 40
0.0
 40
0.0
 40
0.0
 40
1.0
 40
1.0
 40
1.0
 40
1.0
 10
-183.0121110007823404
 20
263.1177274002658919
 30
0.0
 10
-183.0121110007823404
 20
262.5818294002658604
 30
0.0
 10
-182.7262130007823373
 20
262.0866384002658833
 30
0.0
 10
-182.2621100007823145
 20
261.818689400265896
 30
0.0
  0
SPLINE
  5
1BB
100
AcDbEntity
  8
MAGENTA
 62
1
420
16711680
370
-1
 48
1.0
  6
BYLAYER
100
AcDbSpline
 70
8
 71
3
 72
8
 73
4
 74
0
 40
0.0
 40
0.0
 40
0.0
 40
0.0
 40
1.0
 40
1.0
 40
1.0
 40
1.0
 10
-63.0121110007823262
 20
263.1177274002658919
 30
0.0
 10
-63.0121110007823262
 20
262.5818294002658604
 30
0.0
 10
-62.7262130007823231
 20
262.0866384002658833
 30
0.0
 10
-62.2621100007823145
 20
261.818689400265896
 30
0.0
  0
SPLINE
  5
1BC
100
AcDbEntity
  8
MAGENTA
 62
1
420
16711680
370
-1
 48
1.0
  6
BYLAYER
100
AcDbSpline
 70
8
 71
3
 72
8
 73
4
 74
0
 40
0.0
 40
0.0
 40
0.0
 40
0.0
 40
1.0
 40
1.0
 40
1.0
 40
1.0
 10
-293.0121110007823404
 20
263.1177274002658919
 30
0.0
 10
-293.0121110007823404
 20
262.5818294002658604
 30
0.0
 10
-292.7262130007823089
 20
262.0866384002658833
 30
0.0
 10
-292.2621100007823429
 20
261.818689400265896
 30
0.0
  0
SPLINE
  5
1BD
100
AcDbEntity
  8
MAGENTA
 62
1
420
16711680
370
-1
 48
1.0
  6
BYLAYER
100
AcDbSpline
 70
8
 71
3
 72
8
 73
4
 74
0
 40
0.0
 40
0.0
 40
0.0
 40
0.0
 40
1.0
 40
1.0
 40
1.0
 40
1.0
 10
125.2500004999999987
 20
262.7009620000000609
 30
0.0
 10
125.7141004999999723
 20
262.4330130000000167
 30
0.0
 10
126.2858994999999993
 20
262.4330130000000167
 30
0.0
 10
126.7499994999999728
 20
262.7009620000000609
 30
0.0
  0
SPLINE
  5
1BE
100
AcDbEntity
  8
MAGENTA
 62
1
420
16711680
370
-1
 48
1.0
  6
BYLAYER
100
AcDbSpline
 70
8
 71
3
 72
8
 73
4
 74
0
 40
0.0
 40
0.0
 40
0.0
 40
0.0
 40
1.0
 40
1.0
 40
1.0
 40
1.0
 10
-182.2621100007823145
 20
261.818689400265896
 30
0.0
 10
-181.798010000782341
 20
261.5507404002658518
 30
0.0
 10
-181.2262110007823139
 20
261.5507404002658518
 30
0.0
 10
-180.7621110007823404
 20
261.818689400265896
 30
0.0
  0
SPLINE
  5
1BF
100
AcDbEntity
  8
MAGENTA
 62
1
420
16711680
370
-1
 48
1.0
  6
BYLAYER
100
AcDbSpline
 70
8
 71
3
 72
8
 73
4
 74
0
 40
0.0
 40
0.0
 40
0.0
 40
0.0
 40
1.0
 40
1.0
 40
1.0
 40
1.0
 10
-62.2621100007823145
 20
261.818689400265896
 30
0.0
 10
-61.798010000782341
 20
261.5507404002658518
 30
0.0
 10
-61.2262110007823139
 20
261.5507404002658518
 30
0.0
 10
-60.7621110007823404
 20
261.818689400265896
 30
0.0
  0
SPLINE
  5
1C0
100
AcDbEntity
  8
MAGENTA
 62
1
420
16711680
370
-1
 48
1.0
  6
BYLAYER
100
AcDbSpline
 70
8
 71
3
 72
8
 73
4
 74
0
 40
0.0
 40
0.0
 40
0.0
 40
0.0
 40
1.0
 40
1.0
 40
1.0
 40
1.0
 10
-292.2621100007823429
 20
261.818689400265896
 30
0.0
 10
-291.7980100007823694
 20
261.5507404002658518
 30
0.0
 10
-291.2262110007823139
 20
261.5507404002658518
 30
0.0
 10
-290.7621110007823404
 20
261.818689400265896
 30
0.0
  0
SPLINE
  5
1C1
100
AcDbEntity
  8
MAGENTA
 62
1
420
16711680
370
-1
 48
1.0
  6
BYLAYER
100
AcDbSpline
 70
8
 71
3
 72
8
 73
4
 74
0
 40
0.0
 40
0.0
 40
0.0
 40
0.0
 40
1.0
 40
1.0
 40
1.0
 40
1.0
 10
126.7499994999999728
 20
262.7009620000000609
 30
0.0
 10
127.2141024999999956
 20
262.9689110000000483
 30
0.0
 10
127.5000004999999987
 20
263.4641020000000253
 30
0.0
 10
127.5000004999999987
 20
264.0000000000000568
 30
0.0
  0
SPLINE
  5
1C2
100
AcDbEntity
  8
MAGENTA
 62
1
420
16711680
370
-1
 48
1.0
  6
BYLAYER
100
AcDbSpline
 70
8
 71
3
 72
8
 73
4
 74
0
 40
0.0
 40
0.0
 40
0.0
 40
0.0
 40
1.0
 40
1.0
 40
1.0
 40
1.0
 10
-180.7621110007823404
 20
261.818689400265896
 30
0.0
 10
-180.2980080007823176
 20
262.0866384002658833
 30
0.0
 10
-180.0121100007823145
 20
262.5818294002658604
 30
0.0
 10
-180.0121100007823145
 20
263.1177274002658919
 30
0.0
  0
SPLINE
  5
1C3
100
AcDbEntity
  8
MAGENTA
 62
1
420
16711680
370
-1
 48
1.0
  6
BYLAYER
100
AcDbSpline
 70
8
 71
3
 72
8
 73
4
 74
0
 40
0.0
 40
0.0
 40
0.0
 40
0.0
 40
1.0
 40
1.0
 40
1.0
 40
1.0
 10
-60.7621110007823404
 20
261.818689400265896
 30
0.0
 10
-60.2980080007823176
 20
262.0866384002658833
 30
0.0
 10
-60.0121100007823145
 20
262.5818294002658604
 30
0.0
 10
-60.0121100007823145
 20
263.1177274002658919
 30
0.0
  0
SPLINE
  5
1C4
100
AcDbEntity
  8
MAGENTA
 62
1
420
16711680
370
-1
 48
1.0
  6
BYLAYER
100
AcDbSpline
 70
8
 71
3
 72
8
 73
4
 74
0
 40
0.0
 40
0.0
 40
0.0
 40
0.0
 40
1.0
 40
1.0
 40
1.0
 40
1.0
 10
-290.7621110007823404
 20
261.818689400265896
 30
0.0
 10
-290.2980080007823176
 20
262.0866384002658833
 30
0.0
 10
-290.0121100007823429
 20
262.5818294002658604
 30
0.0
 10
-290.0121100007823429
 20
263.1177274002658919
 30
0.0
  0
LINE
  5
1C5
100
AcDbEntity
  8
0
 62
256
370
-1
 48
1.0
  6
BYLAYER
100
AcDbLine
 10
122.0307930289921785
 20
162.2543765598031769
 30
0.0
 11
122.0307930289921785
 21
343.510168639665153
 31
0.0
  0
LINE
  5
1C6
100
AcDbEntity
  8
0
 62
256
370
-1
 48
1.0
  6
BYLAYER
100
AcDbLine
 10
-185.4813174717901347
 20
161.3721039600690119
 30
0.0
 11
-185.4813174717901347
 21
342.6278960399309881
 31
0.0
  0
LINE
  5
1C7
100
AcDbEntity
  8
0
 62
256
370
-1
 48
1.0
  6
BYLAYER
100
AcDbLine
 10
-65.4813174717901347
 20
161.3721039600690119
 30
0.0
 11
-65.4813174717901347
 21
342.6278960399309881
 31
0.0
  0
LINE
  5
1C8
100
AcDbEntity
  8
0
 62
256
370
-1
 48
1.0
  6
BYLAYER
100
AcDbLine
 10
-295.4813174717901347
 20
161.3721039600690119
 30
0.0
 11
-295.4813174717901347
 21
342.6278960399309881
 31
0.0
  0
LINE
  5
1C9
100
AcDbEntity
  8
0
 62
256
370
-1
 48
1.0
  6
BYLAYER
100
AcDbLine
 10
214.993427972572448
 20
162.2543765598031769
 30
0.0
 11
214.9934279725724764
 21
343.510168639665153
 31
0.0
  0
LINE
  5
1CA
100
AcDbEntity
  8
0
 62
256
370
-1
 48
1.0
  6
BYLAYER
100
AcDbLine
 10
-92.5186825282098653
 20
161.3721039600690119
 30
0.0
 11
-92.5186825282098368
 21
342.6278960399309881
 31
0.0
  0
LINE
  5
1CB
100
AcDbEntity
  8
0
 62
256
370
-1
 48
1.0
  6
BYLAYER
100
AcDbLine
 10
27.4813174717901347
 20
161.3721039600690119
 30
0.0
 11
27.4813174717901632
 21
342.6278960399309881
 31
0.0
  0
LINE
  5
1CC
100
AcDbEntity
  8
0
 62
256
370
-1
 48
1.0
  6
BYLAYER
100
AcDbLine
 10
-202.5186825282098653
 20
161.3721039600690119
 30
0.0
 11
-202.5186825282098368
 21
342.6278960399309881
 31
0.0
  0
LINE
  5
1CD
100
AcDbEntity
  8
0
 62
256
370
-1
 48
1.0
  6
BYLAYER
100
AcDbLine
 10
122.0307930289921643
 20
162.2543765598031769
 30
0.0
 11
214.993427972572448
 21
162.2543765598031769
 31
0.0
  0
LINE
  5
1CE
100
AcDbEntity
  8
0
 62
256
370
-1
 48
1.0
  6
BYLAYER
100
AcDbLine
 10
-185.4813174717901632
 20
161.3721039600690119
 30
0.0
 11
-92.5186825282098653
 21
161.3721039600690119
 31
0.0
  0
LINE
  5
1CF
100
AcDbEntity
  8
0
 62
256
370
-1
 48
1.0
  6
BYLAYER
100
AcDbLine
 10
-65.4813174717901489
 20
161.3721039600690119
 30
0.0
 11
27.4813174717901347
 21
161.3721039600690119
 31
0.0
  0
LINE
  5
1D0
100
AcDbEntity
  8
0
 62
256
370
-1
 48
1.0
  6
BYLAYER
100
AcDbLine
 10
-295.4813174717901347
 20
161.3721039600690119
 30
0.0
 11
-202.5186825282098653
 21
161.3721039600690119
 31
0.0
  0
LINE
  5
1D1
100
AcDbEntity
  8
0
 62
256
370
-1
 48
1.0
  6
BYLAYER
100
AcDbLine
 10
-185.4813174717901347
 20
342.6278960399309881
 30
0.0
 11
-125.3462891019487131
 21
342.6278960399309881
 31
0.0
  0
LINE
  5
1D2
100
AcDbEntity
  8
0
 62
256
370
-1
 48
1.0
  6
BYLAYER
100
AcDbLine
 10
-65.4813174717901347
 20
342.6278960399309881
 30
0.0
 11
-5.3462891019486989
 21
342.6278960399309881
 31
0.0
  0
LINE
  5
1D3
100
AcDbEntity
  8
0
 62
256
370
-1
 48
1.0
  6
BYLAYER
100
AcDbLine
 10
-295.4813174717901347
 20
342.6278960399309881
 30
0.0
 11
-235.3462891019487131
 21
342.6278960399309881
 31
0.0
  0
LINE
  5
1D4
100
AcDbEntity
  8
0
 62
256
370
-1
 48
1.0
  6
BYLAYER
100
AcDbLine
 10
122.0307930289921785
 20
343.510168639665153
 30
0.0
 11
214.9934279725724764
 21
343.510168639665153
 31
0.0
  0
LINE
  5
1D5
100
AcDbEntity
  8
0
 62
256
370
-1
 48
1.0
  6
BYLAYER
100
AcDbLine
 10
-177.4742110246500602
 20
170.0931537363050552
 30
0.0
 11
-100.7653398888105016
 21
170.1327055796967898
 31
0.0
  0
LINE
  5
1D6
100
AcDbEntity
  8
0
 62
256
370
-1
 48
1.0
  6
BYLAYER
100
AcDbLine
 10
-57.4742110246500459
 20
170.0931537363050552
 30
0.0
 11
19.2346601111894984
 21
170.1327055796967898
 31
0.0
  0
LINE
  5
1D7
100
AcDbEntity
  8
0
 62
256
370
-1
 48
1.0
  6
BYLAYER
100
AcDbLine
 10
-177.4742110246500602
 20
170.0931537363050552
 30
0.0
 11
-177.4742110246500602
 21
334.5558846701033531
 31
0.0
  0
LINE
  5
1D8
100
AcDbEntity
  8
0
 62
256
370
-1
 48
1.0
  6
BYLAYER
100
AcDbLine
 10
-57.4742110246500459
 20
170.0931537363050552
 30
0.0
 11
-57.4742110246500388
 21
334.5558846701033531
 31
0.0
  0
LINE
  5
1D9
100
AcDbEntity
  8
0
 62
256
370
-1
 48
1.0
  6
BYLAYER
100
AcDbLine
 10
-100.7653398888105016
 20
170.1327055796967898
 30
0.0
 11
-100.7653398888105016
 21
334.5558846701034099
 31
0.0
  0
LINE
  5
1DA
100
AcDbEntity
  8
0
 62
256
370
-1
 48
1.0
  6
BYLAYER
100
AcDbLine
 10
19.2346601111894984
 20
170.1327055796967898
 30
0.0
 11
19.2346601111895055
 21
334.5558846701034099
 31
0.0
  0
LINE
  5
1DB
100
AcDbEntity
  8
0
 62
256
370
-1
 48
1.0
  6
BYLAYER
100
AcDbLine
 10
-177.4742110246500602
 20
334.5558846701033531
 30
0.0
 11
-125.3462891019487131
 21
334.5558846701033531
 31
0.0
  0
LINE
  5
1DC
100
AcDbEntity
  8
0
 62
256
370
-1
 48
1.0
  6
BYLAYER
100
AcDbLine
 10
-57.4742110246500459
 20
334.5558846701033531
 30
0.0
 11
19.2346601111895055
 21
334.5558846701034099
 31
0.0
  0
LINE
  5
1DD
100
AcDbEntity
  8
0
 62
256
370
-1
 48
1.0
  6
BYLAYER
100
AcDbLine
 10
-115.2850327345354344
 20
334.5558846701034099
 30
0.0
 11
-115.2850327345354344
 21
342.6278960399309881
 31
0.0
  0
LINE
  5
1DE
100
AcDbEntity
  8
0
 62
256
370
-1
 48
1.0
  6
BYLAYER
100
AcDbLine
 10
-125.3462891019487131
 20
334.5558846701034099
 30
0.0
 11
-125.3462891019487131
 21
342.6278960399309881
 31
0.0
  0
LINE
  5
1DF
100
AcDbEntity
  8
0
 62
256
370
-1
 48
1.0
  6
BYLAYER
100
AcDbLine
 10
-115.2850327345354344
 20
334.5558846701034099
 30
0.0
 11
-100.7653398888105016
 21
334.5558846701034099
 31
0.0
  0
LINE
  5
1E0
100
AcDbEntity
  8
0
 62
256
370
-1
 48
1.0
  6
BYLAYER
100
AcDbLine
 10
-115.2850327345354344
 20
342.6278960399309881
 30
0.0
 11
-92.5186825282098368
 21
342.6278960399309881
 31
0.0
  0
LINE
  5
1E1
100
AcDbEntity
  8
0
 62
256
370
-1
 48
1.0
  6
BYLAYER
100
AcDbLine
 10
4.7149672654645798
 20
342.6278960399309881
 30
0.0
 11
27.4813174717901632
 21
342.6278960399309881
 31
0.0
  0
LINE
  5
1E2
100
AcDbEntity
  8
0
 62
256
370
-1
 48
1.0
  6
BYLAYER
100
AcDbLine
 10
-225.2850327345354344
 20
342.6278960399309881
 30
0.0
 11
-202.5186825282098368
 21
342.6278960399309881
 31
0.0
  0
LINE
  5
1E3
100
AcDbEntity
  8
0
 62
256
370
-1
 48
1.0
  6
BYLAYER
100
AcDbLine
 10
-5.3462891019486989
 20
342.6278960399309312
 30
0.0
 11
4.7149672654645798
 21
342.6278960399309881
 31
0.0
  0
LINE
  5
1E4
100
AcDbEntity
  8
0
 62
256
370
-1
 48
1.0
  6
BYLAYER
100
AcDbLine
 10
-235.3462891019487131
 20
342.6278960399309312
 30
0.0
 11
-225.2850327345354344
 21
342.6278960399309881
 31
0.0
  0
LINE
  5
1E5
100
AcDbEntity
  8
0
 62
256
370
-1
 48
1.0
  6
BYLAYER
100
AcDbLine
 10
202.2270777662468788
 20
332.4381572698375749
 30
0.0
 11
202.2270777662468788
 21
325.4381572698375749
 31
0.0
  0
LINE
  5
1E6
100
AcDbEntity
  8
0
 62
256
370
-1
 48
1.0
  6
BYLAYER
100
AcDbLine
 10
195.2270777662468788
 20
332.4381572698375749
 30
0.0
 11
195.2270777662468788
 21
325.4381572698375749
 31
0.0
  0
LINE
  5
1E7
100
AcDbEntity
  8
0
 62
256
370
-1
 48
1.0
  6
BYLAYER
100
AcDbLine
 10
195.2270777662468788
 20
325.4381572698375749
 30
0.0
 11
202.2270777662468788
 21
325.4381572698375749
 31
0.0
  0
LINE
  5
1E8
100
AcDbEntity
  8
0
 62
256
370
-1
 48
1.0
  6
BYLAYER
100
AcDbLine
 10
195.2270777662468788
 20
332.4381572698375749
 30
0.0
 11
202.2270777662468788
 21
332.4381572698375749
 31
0.0
  0
LINE
  5
1E9
100
AcDbEntity
  8
0
 62
256
370
-1
 48
1.0
  6
BYLAYER
100
AcDbLine
 10
133.8009309999999914
 20
262.4253120000000195
 30
0.0
 11
147.7709309999999903
 21
262.4253120000000195
 31
0.0
  0
LINE
  5
1EA
100
AcDbEntity
  8
0
 62
256
370
-1
 48
1.0
  6
BYLAYER
100
AcDbLine
 10
140.0324343046748936
 20
172.2365175625999711
 30
0.0
 11
136.7302592623026953
 21
172.2365175625999711
 31
0.0
  0
LINE
  5
1EB
100
AcDbEntity
  8
0
 62
256
370
-1
 48
1.0
  6
BYLAYER
100
AcDbLine
 10
160.5894263046749302
 20
186.2032920206098083
 30
0.0
 11
163.8916013470471285
 21
186.2032920206098083
 31
0.0
  0
LINE
  5
1EC
100
AcDbEntity
  8
0
 62
256
370
-1
 48
1.0
  6
BYLAYER
100
AcDbLine
 10
160.5894263046749302
 20
172.2365175625999711
 30
0.0
 11
163.8916013470471285
 21
172.2365175625999996
 31
0.0
  0
LINE
  5
1ED
100
AcDbEntity
  8
0
 62
256
370
-1
 48
1.0
  6
BYLAYER
100
AcDbLine
 10
140.0324343046748936
 20
186.2032920206098083
 30
0.0
 11
136.7302592623026953
 21
186.2032920206098083
 31
0.0
  0
LINE
  5
1EE
100
AcDbEntity
  8
0
 62
256
370
-1
 48
1.0
  6
BYLAYER
100
AcDbLine
 10
204.9289015111876324
 20
199.0438130924028997
 30
0.0
 11
204.9289015111876324
 21
202.3459881347750979
 31
0.0
  0
LINE
  5
1EF
100
AcDbEntity
  8
0
 62
256
370
-1
 48
1.0
  6
BYLAYER
100
AcDbLine
 10
190.9621270531777668
 20
199.0438130924028997
 30
0.0
 11
190.9621270531777668
 21
202.3459881347750979
 31
0.0
  0
LINE
  5
1F0
100
AcDbEntity
  8
0
 62
256
370
-1
 48
1.0
  6
BYLAYER
100
AcDbLine
 10
204.9289015111876324
 20
178.4868210924028631
 30
0.0
 11
204.9289015111876324
 21
175.1846460500306648
 31
0.0
  0
LINE
  5
1F1
100
AcDbEntity
  8
0
 62
256
370
-1
 48
1.0
  6
BYLAYER
100
AcDbLine
 10
190.9621270531777668
 20
178.4868210924028631
 30
0.0
 11
190.9621270531777668
 21
175.1846460500306648
 31
0.0
  0
LINE
  5
1F2
100
AcDbEntity
  8
0
 62
256
370
-1
 48
1.0
  6
BYLAYER
100
AcDbLine
 10
204.9289015111876324
 20
237.143810311102925
 30
0.0
 11
204.9289015111876324
 21
240.4459853534751232
 31
0.0
  0
LINE
  5
1F3
100
AcDbEntity
  8
0
 62
256
370
-1
 48
1.0
  6
BYLAYER
100
AcDbLine
 10
190.9621270531777668
 20
237.1438103111028965
 30
0.0
 11
190.9621270531777668
 21
240.4459853534751232
 31
0.0
  0
LINE
  5
1F4
100
AcDbEntity
  8
0
 62
256
370
-1
 48
1.0
  6
BYLAYER
100
AcDbLine
 10
204.9289015111876324
 20
216.58681831110286
 30
0.0
 11
204.9289015111876324
 21
213.2846432687306617
 31
0.0
  0
LINE
  5
1F5
100
AcDbEntity
  8
0
 62
256
370
-1
 48
1.0
  6
BYLAYER
100
AcDbLine
 10
190.9621270531777668
 20
216.58681831110286
 30
0.0
 11
190.9621270531777668
 21
213.2846432687306617
 31
0.0
  0
LINE
  5
1F6
100
AcDbEntity
  8
0
 62
256
370
-1
 48
1.0
  6
BYLAYER
100
AcDbLine
 10
140.0324343046748936
 20
172.2365175625999711
 30
0.0
 11
140.0324343046748936
 21
186.2032920206098083
 31
0.0
  0
LINE
  5
1F7
100
AcDbEntity
  8
0
 62
256
370
-1
 48
1.0
  6
BYLAYER
100
AcDbLine
 10
136.7302588370044987
 20
172.2365175625999996
 30
0.0
 11
136.7302588370044987
 21
186.2032920206098083
 31
0.0
  0
LINE
  5
1F8
100
AcDbEntity
  8
0
 62
256
370
-1
 48
1.0
  6
BYLAYER
100
AcDbLine
 10
160.5894263046749302
 20
172.2365175625999711
 30
0.0
 11
160.5894263046749302
 21
186.2032920206098083
 31
0.0
  0
LINE
  5
1F9
100
AcDbEntity
  8
0
 62
256
370
-1
 48
1.0
  6
BYLAYER
100
AcDbLine
 10
163.8916017723453251
 20
172.2365175625999711
 30
0.0
 11
163.8916017723453251
 21
186.2032920206098083
 31
0.0
  0
LINE
  5
1FA
100
AcDbEntity
  8
0
 62
256
370
-1
 48
1.0
  6
BYLAYER
100
AcDbLine
 10
190.9621270531777668
 20
199.0438130924028997
 30
0.0
 11
204.9289015111876324
 21
199.0438130924028997
 31
0.0
  0
LINE
  5
1FB
100
AcDbEntity
  8
0
 62
256
370
-1
 48
1.0
  6
BYLAYER
100
AcDbLine
 10
190.9621270531777668
 20
202.3459885600732946
 30
0.0
 11
204.9289015111876324
 21
202.3459885600732946
 31
0.0
  0
LINE
  5
1FC
100
AcDbEntity
  8
0
 62
256
370
-1
 48
1.0
  6
BYLAYER
100
AcDbLine
 10
190.9621270531777668
 20
178.4868210924028631
 30
0.0
 11
204.9289015111876324
 21
178.4868210924028631
 31
0.0
  0
LINE
  5
1FD
100
AcDbEntity
  8
0
 62
256
370
-1
 48
1.0
  6
BYLAYER
100
AcDbLine
 10
190.9621270531777668
 20
175.1846456247324681
 30
0.0
 11
204.9289015111876324
 21
175.1846456247324681
 31
0.0
  0
LINE
  5
1FE
100
AcDbEntity
  8
0
 62
256
370
-1
 48
1.0
  6
BYLAYER
100
AcDbLine
 10
190.9621270531777668
 20
237.1438103111028965
 30
0.0
 11
204.9289015111876324
 21
237.143810311102925
 31
0.0
  0
LINE
  5
1FF
100
AcDbEntity
  8
0
 62
256
370
-1
 48
1.0
  6
BYLAYER
100
AcDbLine
 10
190.9621270531777668
 20
240.4459857787732915
 30
0.0
 11
204.9289015111876324
 21
240.4459857787732915
 31
0.0
  0
LINE
  5
200
100
AcDbEntity
  8
0
 62
256
370
-1
 48
1.0
  6
BYLAYER
100
AcDbLine
 10
190.9621270531777668
 20
216.58681831110286
 30
0.0
 11
204.9289015111876324
 21
216.58681831110286
 31
0.0
  0
LINE
  5
201
100
AcDbEntity
  8
0
 62
256
370
-1
 48
1.0
  6
BYLAYER
100
AcDbLine
 10
190.9621270531777668
 20
213.2846428434324935
 30
0.0
 11
204.9289015111876324
 21
213.284642843432465
 31
0.0
  0
LINE
  5
202
100
AcDbEntity
  8
0
 62
256
370
-1
 48
1.0
  6
BYLAYER
100
AcDbLine
 10
152.8509296093499756
 20
248.425311999999991
 30
0.0
 11
152.8509296093499756
 21
262.4253120000000195
 31
0.0
  0
LINE
  5
203
100
AcDbEntity
  8
0
 62
256
370
-1
 48
1.0
  6
BYLAYER
100
AcDbLine
 10
171.9009282186999599
 20
248.425311999999991
 30
0.0
 11
171.9009282186999599
 21
262.4253120000000195
 31
0.0
  0
LINE
  5
204
100
AcDbEntity
  8
0
 62
256
370
-1
 48
1.0
  6
BYLAYER
100
AcDbLine
 10
190.9509268280500009
 20
248.425311999999991
 30
0.0
 11
190.9509268280500009
 21
262.4253120000000195
 31
0.0
  0
LINE
  5
205
100
AcDbEntity
  8
0
 62
256
370
-1
 48
1.0
  6
BYLAYER
100
AcDbLine
 10
171.9009282186999599
 20
191.2753161719499815
 30
0.0
 11
171.9009282186999599
 21
205.2753161719500099
 31
0.0
  0
LINE
  5
206
100
AcDbEntity
  8
0
 62
256
370
-1
 48
1.0
  6
BYLAYER
100
AcDbLine
 10
171.9009282186999599
 20
172.2253175625999688
 30
0.0
 11
171.9009282186999599
 21
186.2253175625999972
 31
0.0
  0
LINE
  5
207
100
AcDbEntity
  8
0
 62
256
370
-1
 48
1.0
  6
BYLAYER
100
AcDbLine
 10
133.8009309999999914
 20
210.3253147812999941
 30
0.0
 11
133.8009309999999914
 21
224.3253147813000226
 31
0.0
  0
LINE
  5
208
100
AcDbEntity
  8
0
 62
256
370
-1
 48
1.0
  6
BYLAYER
100
AcDbLine
 10
171.9009282186999599
 20
210.3253147812999941
 30
0.0
 11
171.9009282186999599
 21
224.3253147813000226
 31
0.0
  0
LINE
  5
209
100
AcDbEntity
  8
0
 62
256
370
-1
 48
1.0
  6
BYLAYER
100
AcDbLine
 10
152.8509296093499756
 20
191.2753161719499815
 30
0.0
 11
152.8509296093499756
 21
205.2753161719500099
 31
0.0
  0
LINE
  5
20A
100
AcDbEntity
  8
0
 62
256
370
-1
 48
1.0
  6
BYLAYER
100
AcDbLine
 10
133.8009309999999914
 20
191.2753161719499815
 30
0.0
 11
133.8009309999999914
 21
205.2753161719500099
 31
0.0
  0
LINE
  5
20B
100
AcDbEntity
  8
0
 62
256
370
-1
 48
1.0
  6
BYLAYER
100
AcDbLine
 10
171.9009282186999599
 20
229.3753133906499784
 30
0.0
 11
171.9009282186999599
 21
243.3753133906500068
 31
0.0
  0
LINE
  5
20C
100
AcDbEntity
  8
0
 62
256
370
-1
 48
1.0
  6
BYLAYER
100
AcDbLine
 10
152.8509296093499756
 20
210.3253147812999941
 30
0.0
 11
152.8509296093499756
 21
224.3253147813000226
 31
0.0
  0
LINE
  5
20D
100
AcDbEntity
  8
0
 62
256
370
-1
 48
1.0
  6
BYLAYER
100
AcDbLine
 10
152.8509296093499756
 20
229.3753133906499784
 30
0.0
 11
152.8509296093499756
 21
243.3753133906500068
 31
0.0
  0
LINE
  5
20E
100
AcDbEntity
  8
0
 62
256
370
-1
 48
1.0
  6
BYLAYER
100
AcDbLine
 10
133.8009309999999914
 20
229.3753133906499784
 30
0.0
 11
133.8009309999999914
 21
243.3753133906500068
 31
0.0
  0
LINE
  5
20F
100
AcDbEntity
  8
0
 62
256
370
-1
 48
1.0
  6
BYLAYER
100
AcDbLine
 10
133.8009309999999914
 20
248.425311999999991
 30
0.0
 11
133.8009309999999914
 21
262.4253120000000195
 31
0.0
  0
LINE
  5
210
100
AcDbEntity
  8
0
 62
256
370
-1
 48
1.0
  6
BYLAYER
100
AcDbLine
 10
157.3259303046749551
 20
186.2253175625999972
 30
0.0
 11
157.3259303046749551
 21
172.2253175625999688
 31
0.0
  0
LINE
  5
211
100
AcDbEntity
  8
0
 62
256
370
-1
 48
1.0
  6
BYLAYER
100
AcDbLine
 10
204.9509270531777929
 20
181.7503170924028097
 30
0.0
 11
190.9509270531777929
 21
181.7503170924028097
 31
0.0
  0
LINE
  5
212
100
AcDbEntity
  8
0
 62
256
370
-1
 48
1.0
  6
BYLAYER
100
AcDbLine
 10
204.9509270531777929
 20
219.8503143111028066
 30
0.0
 11
190.9509270531777929
 21
219.8503143111028066
 31
0.0
  0
LINE
  5
213
100
AcDbEntity
  8
0
 62
256
370
-1
 48
1.0
  6
BYLAYER
100
AcDbLine
 10
166.8509296093499756
 20
248.425311999999991
 30
0.0
 11
166.8509296093499756
 21
262.4253120000000195
 31
0.0
  0
LINE
  5
214
100
AcDbEntity
  8
0
 62
256
370
-1
 48
1.0
  6
BYLAYER
100
AcDbLine
 10
185.9009282186999599
 20
248.425311999999991
 30
0.0
 11
185.9009282186999599
 21
262.4253120000000195
 31
0.0
  0
LINE
  5
215
100
AcDbEntity
  8
0
 62
256
370
-1
 48
1.0
  6
BYLAYER
100
AcDbLine
 10
204.9509268280500009
 20
248.425311999999991
 30
0.0
 11
204.9509268280500009
 21
262.4253120000000195
 31
0.0
  0
LINE
  5
216
100
AcDbEntity
  8
0
 62
256
370
-1
 48
1.0
  6
BYLAYER
100
AcDbLine
 10
185.9009282186999599
 20
191.2753161719499815
 30
0.0
 11
185.9009282186999599
 21
205.2753161719500099
 31
0.0
  0
LINE
  5
217
100
AcDbEntity
  8
0
 62
256
370
-1
 48
1.0
  6
BYLAYER
100
AcDbLine
 10
185.9009282186999599
 20
172.2253175625999688
 30
0.0
 11
185.9009282186999599
 21
186.2253175625999972
 31
0.0
  0
LINE
  5
218
100
AcDbEntity
  8
0
 62
256
370
-1
 48
1.0
  6
BYLAYER
100
AcDbLine
 10
147.8009309999999914
 20
210.3253147812999941
 30
0.0
 11
147.8009309999999914
 21
224.3253147813000226
 31
0.0
  0
LINE
  5
219
100
AcDbEntity
  8
0
 62
256
370
-1
 48
1.0
  6
BYLAYER
100
AcDbLine
 10
185.9009282186999599
 20
210.3253147812999941
 30
0.0
 11
185.9009282186999599
 21
224.3253147813000226
 31
0.0
  0
LINE
  5
21A
100
AcDbEntity
  8
0
 62
256
370
-1
 48
1.0
  6
BYLAYER
100
AcDbLine
 10
166.8509296093499756
 20
191.2753161719499815
 30
0.0
 11
166.8509296093499756
 21
205.2753161719500099
 31
0.0
  0
LINE
  5
21B
100
AcDbEntity
  8
0
 62
256
370
-1
 48
1.0
  6
BYLAYER
100
AcDbLine
 10
147.8009309999999914
 20
191.2753161719499815
 30
0.0
 11
147.8009309999999914
 21
205.2753161719500099
 31
0.0
  0
LINE
  5
21C
100
AcDbEntity
  8
0
 62
256
370
-1
 48
1.0
  6
BYLAYER
100
AcDbLine
 10
185.9009282186999599
 20
229.3753133906499784
 30
0.0
 11
185.9009282186999599
 21
243.3753133906500068
 31
0.0
  0
LINE
  5
21D
100
AcDbEntity
  8
0
 62
256
370
-1
 48
1.0
  6
BYLAYER
100
AcDbLine
 10
166.8509296093499756
 20
210.3253147812999941
 30
0.0
 11
166.8509296093499756
 21
224.3253147813000226
 31
0.0
  0
LINE
  5
21E
100
AcDbEntity
  8
0
 62
256
370
-1
 48
1.0
  6
BYLAYER
100
AcDbLine
 10
166.8509296093499756
 20
229.3753133906499784
 30
0.0
 11
166.8509296093499756
 21
243.3753133906500068
 31
0.0
  0
LINE
  5
21F
100
AcDbEntity
  8
0
 62
256
370
-1
 48
1.0
  6
BYLAYER
100
AcDbLine
 10
147.8009309999999914
 20
229.3753133906499784
 30
0.0
 11
147.8009309999999914
 21
243.3753133906500068
 31
0.0
  0
LINE
  5
220
100
AcDbEntity
  8
0
 62
256
370
-1
 48
1.0
  6
BYLAYER
100
AcDbLine
 10
147.8009309999999914
 20
248.425311999999991
 30
0.0
 11
147.8009309999999914
 21
262.4253120000000195
 31
0.0
  0
LINE
  5
221
100
AcDbEntity
  8
0
 62
256
370
-1
 48
1.0
  6
BYLAYER
100
AcDbLine
 10
143.3259303046749551
 20
186.2253175625999972
 30
0.0
 11
143.3259303046749551
 21
172.2253175625999688
 31
0.0
  0
LINE
  5
222
100
AcDbEntity
  8
0
 62
256
370
-1
 48
1.0
  6
BYLAYER
100
AcDbLine
 10
204.9509270531777929
 20
195.7503170924028097
 30
0.0
 11
190.9509270531777929
 21
195.7503170924028097
 31
0.0
  0
LINE
  5
223
100
AcDbEntity
  8
0
 62
256
370
-1
 48
1.0
  6
BYLAYER
100
AcDbLine
 10
204.9509270531777929
 20
233.8503143111028066
 30
0.0
 11
190.9509270531777929
 21
233.8503143111028066
 31
0.0
  0
LINE
  5
224
100
AcDbEntity
  8
0
 62
256
370
-1
 48
1.0
  6
BYLAYER
100
AcDbLine
 10
152.8509296093499756
 20
248.425311999999991
 30
0.0
 11
166.8509296093499756
 21
248.425311999999991
 31
0.0
  0
LINE
  5
225
100
AcDbEntity
  8
0
 62
256
370
-1
 48
1.0
  6
BYLAYER
100
AcDbLine
 10
171.9009282186999599
 20
248.425311999999991
 30
0.0
 11
185.9009282186999599
 21
248.425311999999991
 31
0.0
  0
LINE
  5
226
100
AcDbEntity
  8
0
 62
256
370
-1
 48
1.0
  6
BYLAYER
100
AcDbLine
 10
190.9509268280500009
 20
248.425311999999991
 30
0.0
 11
204.9509268280500009
 21
248.425311999999991
 31
0.0
  0
LINE
  5
227
100
AcDbEntity
  8
0
 62
256
370
-1
 48
1.0
  6
BYLAYER
100
AcDbLine
 10
171.9009282186999599
 20
191.2753161719499815
 30
0.0
 11
185.9009282186999599
 21
191.2753161719499815
 31
0.0
  0
LINE
  5
228
100
AcDbEntity
  8
0
 62
256
370
-1
 48
1.0
  6
BYLAYER
100
AcDbLine
 10
171.9009282186999599
 20
172.2253175625999688
 30
0.0
 11
185.9009282186999599
 21
172.2253175625999688
 31
0.0
  0
LINE
  5
229
100
AcDbEntity
  8
0
 62
256
370
-1
 48
1.0
  6
BYLAYER
100
AcDbLine
 10
133.8009309999999914
 20
210.3253147812999941
 30
0.0
 11
147.8009309999999914
 21
210.3253147812999941
 31
0.0
  0
LINE
  5
22A
100
AcDbEntity
  8
0
 62
256
370
-1
 48
1.0
  6
BYLAYER
100
AcDbLine
 10
171.9009282186999599
 20
210.3253147812999941
 30
0.0
 11
185.9009282186999599
 21
210.3253147812999941
 31
0.0
  0
LINE
  5
22B
100
AcDbEntity
  8
0
 62
256
370
-1
 48
1.0
  6
BYLAYER
100
AcDbLine
 10
152.8509296093499756
 20
191.2753161719499815
 30
0.0
 11
166.8509296093499756
 21
191.2753161719499815
 31
0.0
  0
LINE
  5
22C
100
AcDbEntity
  8
0
 62
256
370
-1
 48
1.0
  6
BYLAYER
100
AcDbLine
 10
133.8009309999999914
 20
191.2753161719499815
 30
0.0
 11
147.8009309999999914
 21
191.2753161719499815
 31
0.0
  0
LINE
  5
22D
100
AcDbEntity
  8
0
 62
256
370
-1
 48
1.0
  6
BYLAYER
100
AcDbLine
 10
171.9009282186999599
 20
229.3753133906499784
 30
0.0
 11
185.9009282186999599
 21
229.3753133906499784
 31
0.0
  0
LINE
  5
22E
100
AcDbEntity
  8
0
 62
256
370
-1
 48
1.0
  6
BYLAYER
100
AcDbLine
 10
152.8509296093499756
 20
210.3253147812999941
 30
0.0
 11
166.8509296093499756
 21
210.3253147812999941
 31
0.0
  0
LINE
  5
22F
100
AcDbEntity
  8
0
 62
256
370
-1
 48
1.0
  6
BYLAYER
100
AcDbLine
 10
152.8509296093499756
 20
229.3753133906499784
 30
0.0
 11
166.8509296093499756
 21
229.3753133906499784
 31
0.0
  0
LINE
  5
230
100
AcDbEntity
  8
0
 62
256
370
-1
 48
1.0
  6
BYLAYER
100
AcDbLine
 10
133.8009309999999914
 20
229.3753133906499784
 30
0.0
 11
147.8009309999999914
 21
229.3753133906499784
 31
0.0
  0
LINE
  5
231
100
AcDbEntity
  8
0
 62
256
370
-1
 48
1.0
  6
BYLAYER
100
AcDbLine
 10
133.8009309999999914
 20
248.425311999999991
 30
0.0
 11
147.8009309999999914
 21
248.425311999999991
 31
0.0
  0
LINE
  5
232
100
AcDbEntity
  8
0
 62
256
370
-1
 48
1.0
  6
BYLAYER
100
AcDbLine
 10
157.3259303046749551
 20
186.2253175625999972
 30
0.0
 11
143.3259303046749551
 21
186.2253175625999972
 31
0.0
  0
LINE
  5
233
100
AcDbEntity
  8
0
 62
256
370
-1
 48
1.0
  6
BYLAYER
100
AcDbLine
 10
204.9509270531777929
 20
181.7503170924028097
 30
0.0
 11
204.9509270531777929
 21
195.7503170924028097
 31
0.0
  0
LINE
  5
234
100
AcDbEntity
  8
0
 62
256
370
-1
 48
1.0
  6
BYLAYER
100
AcDbLine
 10
204.9509270531777929
 20
219.8503143111028066
 30
0.0
 11
204.9509270531777929
 21
233.8503143111028066
 31
0.0
  0
LINE
  5
235
100
AcDbEntity
  8
0
 62
256
370
-1
 48
1.0
  6
BYLAYER
100
AcDbLine
 10
152.8509296093499756
 20
262.4253120000000195
 30
0.0
 11
166.8509296093499756
 21
262.4253120000000195
 31
0.0
  0
LINE
  5
236
100
AcDbEntity
  8
0
 62
256
370
-1
 48
1.0
  6
BYLAYER
100
AcDbLine
 10
171.9009282186999599
 20
262.4253120000000195
 30
0.0
 11
185.9009282186999599
 21
262.4253120000000195
 31
0.0
  0
LINE
  5
237
100
AcDbEntity
  8
0
 62
256
370
-1
 48
1.0
  6
BYLAYER
100
AcDbLine
 10
190.9509268280500009
 20
262.4253120000000195
 30
0.0
 11
204.9509268280500009
 21
262.4253120000000195
 31
0.0
  0
LINE
  5
238
100
AcDbEntity
  8
0
 62
256
370
-1
 48
1.0
  6
BYLAYER
100
AcDbLine
 10
171.9009282186999599
 20
205.2753161719500099
 30
0.0
 11
185.9009282186999599
 21
205.2753161719500099
 31
0.0
  0
LINE
  5
239
100
AcDbEntity
  8
0
 62
256
370
-1
 48
1.0
  6
BYLAYER
100
AcDbLine
 10
171.9009282186999599
 20
186.2253175625999972
 30
0.0
 11
185.9009282186999599
 21
186.2253175625999972
 31
0.0
  0
LINE
  5
23A
100
AcDbEntity
  8
0
 62
256
370
-1
 48
1.0
  6
BYLAYER
100
AcDbLine
 10
133.8009309999999914
 20
224.3253147813000226
 30
0.0
 11
147.8009309999999914
 21
224.3253147813000226
 31
0.0
  0
LINE
  5
23B
100
AcDbEntity
  8
0
 62
256
370
-1
 48
1.0
  6
BYLAYER
100
AcDbLine
 10
171.9009282186999599
 20
224.3253147813000226
 30
0.0
 11
185.9009282186999599
 21
224.3253147813000226
 31
0.0
  0
LINE
  5
23C
100
AcDbEntity
  8
0
 62
256
370
-1
 48
1.0
  6
BYLAYER
100
AcDbLine
 10
152.8509296093499756
 20
205.2753161719500099
 30
0.0
 11
166.8509296093499756
 21
205.2753161719500099
 31
0.0
  0
LINE
  5
23D
100
AcDbEntity
  8
0
 62
256
370
-1
 48
1.0
  6
BYLAYER
100
AcDbLine
 10
133.8009309999999914
 20
205.2753161719500099
 30
0.0
 11
147.8009309999999914
 21
205.2753161719500099
 31
0.0
  0
LINE
  5
23E
100
AcDbEntity
  8
0
 62
256
370
-1
 48
1.0
  6
BYLAYER
100
AcDbLine
 10
171.9009282186999599
 20
243.3753133906500068
 30
0.0
 11
185.9009282186999599
 21
243.3753133906500068
 31
0.0
  0
LINE
  5
23F
100
AcDbEntity
  8
0
 62
256
370
-1
 48
1.0
  6
BYLAYER
100
AcDbLine
 10
152.8509296093499756
 20
224.3253147813000226
 30
0.0
 11
166.8509296093499756
 21
224.3253147813000226
 31
0.0
  0
LINE
  5
240
100
AcDbEntity
  8
0
 62
256
370
-1
 48
1.0
  6
BYLAYER
100
AcDbLine
 10
152.8509296093499756
 20
243.3753133906500068
 30
0.0
 11
166.8509296093499756
 21
243.3753133906500068
 31
0.0
  0
LINE
  5
241
100
AcDbEntity
  8
0
 62
256
370
-1
 48
1.0
  6
BYLAYER
100
AcDbLine
 10
133.8009309999999914
 20
243.3753133906500068
 30
0.0
 11
147.8009309999999914
 21
243.3753133906500068
 31
0.0
  0
LINE
  5
242
100
AcDbEntity
  8
0
 62
256
370
-1
 48
1.0
  6
BYLAYER
100
AcDbLine
 10
157.3259303046749551
 20
172.2253175625999688
 30
0.0
 11
143.3259303046749551
 21
172.2253175625999688
 31
0.0
  0
LINE
  5
243
100
AcDbEntity
  8
0
 62
256
370
-1
 48
1.0
  6
BYLAYER
100
AcDbLine
 10
190.9509270531777929
 20
181.7503170924028097
 30
0.0
 11
190.9509270531777929
 21
195.7503170924028097
 31
0.0
  0
LINE
  5
244
100
AcDbEntity
  8
0
 62
256
370
-1
 48
1.0
  6
BYLAYER
100
AcDbLine
 10
190.9509270531777929
 20
219.8503143111028066
 30
0.0
 11
190.9509270531777929
 21
233.8503143111028066
 31
0.0
  0
ENDSEC
  0
SECTION
  2
OBJECTS
  0
DICTIONARY
  5
C
100
AcDbDictionary
280
0
281
1
  3
ACAD_GROUP
350
D
  3
ACAD_LAYOUT
350
1A
  3
ACAD_MLINESTYLE
350
17
  3
ACAD_PLOTSETTINGS
350
19
  3
ACAD_PLOTSTYLENAME
350
E
  3
AcDbVariableDictionary
350
245
  3
QCAD_OBJECTS
350
246
  0
DICTIONARY
  5
D
100
AcDbDictionary
280
0
281
1
  0
ACDBDICTIONARYWDFLT
  5
E
100
AcDbDictionary
281
1
  3
Normal
350
F
100
AcDbDictionaryWithDefault
340
F
  0
ACDBPLACEHOLDER
  5
F
  0
DICTIONARY
  5
17
100
AcDbDictionary
280
0
281
1
  3
Standard
350
18
  0
MLINESTYLE
  5
18
100
AcDbMlineStyle
  2
STANDARD
 70
0
  3

 62
256
 51
90.0
 52
90.0
 71
2
 49
0.5
 62
256
  6
BYLAYER
 49
-0.5
 62
256
  6
BYLAYER
  0
DICTIONARY
  5
19
100
AcDbDictionary
280
0
281
1
  0
DICTIONARY
  5
1A
100
AcDbDictionary
281
1
  3
Layout1
350
1E
  3
Layout2
350
26
  3
Model
350
22
  0
LAYOUT
  5
1E
100
AcDbPlotSettings
  1

  2
none_device
  4

  6

 40
0.0
 41
0.0
 42
0.0
 43
0.0
 44
0.0
 45
0.0
 46
0.0
 47
0.0
 48
0.0
 49
0.0
140
0.0
141
0.0
142
1.0
143
1.0
 70
688
 72
0
 73
0
 74
5
  7

 75
16
147
1.0
148
0.0
149
0.0
100
AcDbLayout
  1
Layout1
 70
1
 71
1
 10
0.0
 20
0.0
 11
420.0
 21
297.0
 12
0.0
 22
0.0
 32
0.0
 14
100000000000000000000.0
 24
100000000000000000000.0
 34
100000000000000000000.0
 15
-100000000000000000000.0
 25
-100000000000000000000.0
 35
-100000000000000000000.0
146
0.0
 13
0.0
 23
0.0
 33
0.0
 16
1.0
 26
0.0
 36
0.0
 17
0.0
 27
1.0
 37
0.0
 76
0
330
1B
  0
LAYOUT
  5
22
100
AcDbPlotSettings
  1

  2
none_device
  4

  6

 40
0.0
 41
0.0
 42
0.0
 43
0.0
 44
0.0
 45
0.0
 46
0.0
 47
0.0
 48
0.0
 49
0.0
140
0.0
141
0.0
142
1.0
143
1.0
 70
1712
 72
0
 73
0
 74
0
  7

 75
0
147
1.0
148
0.0
149
0.0
100
AcDbLayout
  1
Model
 70
1
 71
0
 10
0.0
 20
0.0
 11
12.0
 21
9.0
 12
0.0
 22
0.0
 32
0.0
 14
0.0
 24
0.0
 34
0.0
 15
0.0
 25
0.0
 35
0.0
146
0.0
 13
0.0
 23
0.0
 33
0.0
 16
1.0
 26
0.0
 36
0.0
 17
0.0
 27
1.0
 37
0.0
 76
0
330
1F
  0
LAYOUT
  5
26
100
AcDbPlotSettings
  1

  2
none_device
  4

  6

 40
0.0
 41
0.0
 42
0.0
 43
0.0
 44
0.0
 45
0.0
 46
0.0
 47
0.0
 48
0.0
 49
0.0
140
0.0
141
0.0
142
1.0
143
1.0
 70
688
 72
0
 73
0
 74
5
  7

 75
16
147
1.0
148
0.0
149
0.0
100
AcDbLayout
  1
Layout2
 70
1
 71
2
 10
0.0
 20
0.0
 11
12.0
 21
9.0
 12
0.0
 22
0.0
 32
0.0
 14
0.0
 24
0.0
 34
0.0
 15
0.0
 25
0.0
 35
0.0
146
0.0
 13
0.0
 23
0.0
 33
0.0
 16
1.0
 26
0.0
 36
0.0
 17
0.0
 27
1.0
 37
0.0
 76
0
330
23
  0
DICTIONARY
  5
245
100
AcDbDictionary
281
1
  3
DIMASSOC
350
248
  3
HIDETEXT
350
247
  0
DICTIONARYVAR
  5
247
100
DictionaryVariables
280
0
  1
2
  0
DICTIONARYVAR
  5
248
100
DictionaryVariables
280
0
  1
1
  0
DICTIONARY
  5
246
100
AcDbDictionary
281
1
  3
ColorSettings/BackgroundColor
350
249
  3
ColorSettings/ColorMode
350
24A
  3
Grid/DisplayGrid00
350
24B
  3
Grid/DisplayGrid01
350
24C
  3
Grid/DisplayGrid02
350
24D
  3
Grid/DisplayGrid03
350
24E
  3
Grid/GridSpacingX00
350
24F
  3
Grid/GridSpacingX01
350
250
  3
Grid/GridSpacingX02
350
251
  3
Grid/GridSpacingX03
350
252
  3
Grid/GridSpacingY00
350
253
  3
Grid/GridSpacingY01
350
254
  3
Grid/GridSpacingY02
350
255
  3
Grid/GridSpacingY03
350
256
  3
Grid/IsometricGrid00
350
257
  3
Grid/IsometricGrid01
350
258
  3
Grid/IsometricGrid02
350
259
  3
Grid/IsometricGrid03
350
25A
  3
Grid/IsometricProjection00
350
25B
  3
Grid/IsometricProjection01
350
25C
  3
Grid/IsometricProjection02
350
25D
  3
Grid/IsometricProjection03
350
25E
  3
Grid/MetaGridSpacingX00
350
25F
  3
Grid/MetaGridSpacingX01
350
260
  3
Grid/MetaGridSpacingX02
350
261
  3
Grid/MetaGridSpacingX03
350
262
  3
Grid/MetaGridSpacingY00
350
263
  3
Grid/MetaGridSpacingY01
350
264
  3
Grid/MetaGridSpacingY02
350
265
  3
Grid/MetaGridSpacingY03
350
266
  3
MultiPageSettings/Columns
350
267
  3
MultiPageSettings/GlueMarginsBottom
350
268
  3
MultiPageSettings/GlueMarginsLeft
350
269
  3
MultiPageSettings/GlueMarginsRight
350
26A
  3
MultiPageSettings/GlueMarginsTop
350
26B
  3
MultiPageSettings/PrintCropMarks
350
26C
  3
MultiPageSettings/Rows
350
26D
  3
PageSettings/OffsetX
350
26E
  3
PageSettings/OffsetY
350
26F
  3
PageSettings/PageOrientation
350
270
  3
PageSettings/PaperHeight
350
271
  3
PageSettings/PaperWidth
350
272
  3
PageSettings/Scale
350
273
  3
PageSettings/ShowPaperBorders
350
274
  3
QCADVersion
350
275
  3
UnitSettings/PaperUnit
350
276
  3
ViewportCenter
350
277
  3
ViewportHeight
350
278
  3
ViewportWidth
350
279
  0
XRECORD
  5
249
330
246
100
AcDbXrecord
280
1
1000
White
  0
XRECORD
  5
24A
330
246
100
AcDbXrecord
280
1
1000
FullColor
  0
XRECORD
  5
24B
330
246
100
AcDbXrecord
280
1
290
1
  0
XRECORD
  5
24C
330
246
100
AcDbXrecord
280
1
290
1
  0
XRECORD
  5
24D
330
246
100
AcDbXrecord
280
1
290
1
  0
XRECORD
  5
24E
330
246
100
AcDbXrecord
280
1
290
1
  0
XRECORD
  5
24F
330
246
100
AcDbXrecord
280
1
1000
auto
  0
XRECORD
  5
250
330
246
100
AcDbXrecord
280
1
1000
auto
  0
XRECORD
  5
251
330
246
100
AcDbXrecord
280
1
1000
auto
  0
XRECORD
  5
252
330
246
100
AcDbXrecord
280
1
1000
auto
  0
XRECORD
  5
253
330
246
100
AcDbXrecord
280
1
1000
auto
  0
XRECORD
  5
254
330
246
100
AcDbXrecord
280
1
1000
auto
  0
XRECORD
  5
255
330
246
100
AcDbXrecord
280
1
1000
auto
  0
XRECORD
  5
256
330
246
100
AcDbXrecord
280
1
1000
auto
  0
XRECORD
  5
257
330
246
100
AcDbXrecord
280
1
290
0
  0
XRECORD
  5
258
330
246
100
AcDbXrecord
280
1
290
0
  0
XRECORD
  5
259
330
246
100
AcDbXrecord
280
1
290
0
  0
XRECORD
  5
25A
330
246
100
AcDbXrecord
280
1
290
0
  0
XRECORD
  5
25B
330
246
100
AcDbXrecord
280
1
 90
0
  0
XRECORD
  5
25C
330
246
100
AcDbXrecord
280
1
 90
0
  0
XRECORD
  5
25D
330
246
100
AcDbXrecord
280
1
 90
0
  0
XRECORD
  5
25E
330
246
100
AcDbXrecord
280
1
 90
0
  0
XRECORD
  5
25F
330
246
100
AcDbXrecord
280
1
1000
auto
  0
XRECORD
  5
260
330
246
100
AcDbXrecord
280
1
1000
auto
  0
XRECORD
  5
261
330
246
100
AcDbXrecord
280
1
1000
auto
  0
XRECORD
  5
262
330
246
100
AcDbXrecord
280
1
1000
auto
  0
XRECORD
  5
263
330
246
100
AcDbXrecord
280
1
1000
auto
  0
XRECORD
  5
264
330
246
100
AcDbXrecord
280
1
1000
auto
  0
XRECORD
  5
265
330
246
100
AcDbXrecord
280
1
1000
auto
  0
XRECORD
  5
266
330
246
100
AcDbXrecord
280
1
1000
auto
  0
XRECORD
  5
267
330
246
100
AcDbXrecord
280
1
 90
1
  0
XRECORD
  5
268
330
246
100
AcDbXrecord
280
1
 40
10.0
  0
XRECORD
  5
269
330
246
100
AcDbXrecord
280
1
 40
10.0
  0
XRECORD
  5
26A
330
246
100
AcDbXrecord
280
1
 40
10.0
  0
XRECORD
  5
26B
330
246
100
AcDbXrecord
280
1
 40
10.0
  0
XRECORD
  5
26C
330
246
100
AcDbXrecord
280
1
290
0
  0
XRECORD
  5
26D
330
246
100
AcDbXrecord
280
1
 90
1
  0
XRECORD
  5
26E
330
246
100
AcDbXrecord
280
1
 40
0.0
  0
XRECORD
  5
26F
330
246
100
AcDbXrecord
280
1
 40
0.0
  0
XRECORD
  5
270
330
246
100
AcDbXrecord
280
1
1000
Portrait
  0
XRECORD
  5
271
330
246
100
AcDbXrecord
280
1
 40
297.0
  0
XRECORD
  5
272
330
246
100
AcDbXrecord
280
1
 40
210.0
  0
XRECORD
  5
273
330
246
100
AcDbXrecord
280
1
1000
1:1
  0
XRECORD
  5
274
330
246
100
AcDbXrecord
280
1
290
1
  0
XRECORD
  5
275
330
246
100
AcDbXrecord
280
1
1000
3.16.5
  0
XRECORD
  5
276
330
246
100
AcDbXrecord
280
1
 90
4
  0
XRECORD
  5
278
330
246
100
AcDbXrecord
280
1
 40
335.3172121814021125
  0
XRECORD
  5
279
330
246
100
AcDbXrecord
280
1
 40
648.0920907707771903
  0
ENDSEC
  0
EOF
